MerriweatherSans-Bold.ufo
<glyph name="exclam" format="2">
  <advance width="313.0"/>
  <unicode hex="0021"/>
  <outline>
    <contour>
      <point x="96.0" y="271.0" type="line"/>
      <point x="227.0" y="271.0" type="line"/>
      <point x="243.0" y="869.0" type="line"/>
      <point x="74.0" y="869.0" type="line"/>
    </contour>
    <contour>
      <point x="152.0" y="-11.0" type="curve" smooth="yes"/>
      <point x="208.0" y="-11.0"/>
      <point x="252.0" y="37.0"/>
      <point x="251.0" y="93.0" type="curve" smooth="yes"/>
      <point x="251.0" y="146.0"/>
      <point x="218.0" y="187.0"/>
      <point x="161.0" y="187.0" type="curve" smooth="yes"/>
      <point x="106.0" y="187.0"/>
      <point x="61.0" y="139.0"/>
      <point x="62.0" y="83.0" type="curve" smooth="yes"/>
      <point x="62.0" y="30.0"/>
      <point x="100.0" y="-11.0"/>
    </contour>
  </outline>
</glyph>
<glyph name="numbersign" format="2">
  <advance width="803.0"/>
  <unicode hex="0023"/>
  <outline>
    <contour>
      <point x="172.0" y="0.0" type="line"/>
      <point x="298.0" y="0.0" type="line"/>
      <point x="362.0" y="670.0" type="line"/>
      <point x="235.0" y="670.0" type="line"/>
    </contour>
    <contour>
      <point x="435.0" y="0.0" type="line"/>
      <point x="559.0" y="0.0" type="line"/>
      <point x="623.0" y="670.0" type="line"/>
      <point x="496.0" y="670.0" type="line"/>
    </contour>
    <contour>
      <point x="708.0" y="418.0" type="line"/>
      <point x="708.0" y="517.0" type="line"/>
      <point x="114.0" y="517.0" type="line"/>
      <point x="114.0" y="418.0" type="line"/>
    </contour>
    <contour>
      <point x="686.0" y="159.0" type="line"/>
      <point x="686.0" y="262.0" type="line"/>
      <point x="96.0" y="262.0" type="line"/>
      <point x="96.0" y="159.0" type="line"/>
    </contour>
  </outline>
</glyph>
<glyph name="dollar" format="2">
  <advance width="688.0"/>
  <unicode hex="0024"/>
  <anchor x="336.0" y="0.0" name="bottom"/>
  <anchor x="336.0" y="-83.0" name="btm"/>
  <anchor x="358.0" y="830.0" name="top"/>
  <outline>
    <contour>
      <point x="300.0" y="720.0" type="line"/>
      <point x="390.0" y="720.0" type="line"/>
      <point x="394.0" y="861.0" type="line"/>
      <point x="304.0" y="861.0" type="line"/>
    </contour>
    <contour>
      <point x="276.0" y="-110.0" type="line"/>
      <point x="366.0" y="-110.0" type="line"/>
      <point x="369.0" y="29.0" type="line"/>
      <point x="280.0" y="29.0" type="line"/>
    </contour>
    <component base="S" xOffset="41.0"/>
  </outline>
</glyph>
<glyph name="percent" format="2">
  <advance width="1068.0"/>
  <unicode hex="0025"/>
  <outline>
    <contour>
      <point x="243.0" y="306.0" type="curve" smooth="yes"/>
      <point x="352.0" y="307.0"/>
      <point x="452.0" y="385.0"/>
      <point x="452.0" y="526.0" type="curve" smooth="yes"/>
      <point x="452.0" y="647.0"/>
      <point x="394.0" y="745.0"/>
      <point x="259.0" y="744.0" type="curve" smooth="yes"/>
      <point x="150.0" y="743.0"/>
      <point x="50.0" y="664.0"/>
      <point x="50.0" y="523.0" type="curve" smooth="yes"/>
      <point x="50.0" y="403.0"/>
      <point x="114.0" y="305.0"/>
    </contour>
    <contour>
      <point x="330.0" y="0.0" type="line"/>
      <point x="450.0" y="0.0" type="line"/>
      <point x="739.0" y="747.0" type="line"/>
      <point x="619.0" y="747.0" type="line"/>
    </contour>
    <contour>
      <point x="250.0" y="402.0" type="curve" smooth="yes"/>
      <point x="200.0" y="402.0"/>
      <point x="172.0" y="454.0"/>
      <point x="172.0" y="527.0" type="curve" smooth="yes"/>
      <point x="172.0" y="602.0"/>
      <point x="200.0" y="648.0"/>
      <point x="252.0" y="648.0" type="curve" smooth="yes"/>
      <point x="302.0" y="648.0"/>
      <point x="331.0" y="598.0"/>
      <point x="331.0" y="522.0" type="curve" smooth="yes"/>
      <point x="331.0" y="448.0"/>
      <point x="302.0" y="402.0"/>
    </contour>
    <contour>
      <point x="809.0" y="6.0" type="curve" smooth="yes"/>
      <point x="918.0" y="7.0"/>
      <point x="1018.0" y="85.0"/>
      <point x="1018.0" y="227.0" type="curve" smooth="yes"/>
      <point x="1018.0" y="348.0"/>
      <point x="959.0" y="445.0"/>
      <point x="825.0" y="444.0" type="curve" smooth="yes"/>
      <point x="716.0" y="443.0"/>
      <point x="616.0" y="364.0"/>
      <point x="616.0" y="223.0" type="curve" smooth="yes"/>
      <point x="616.0" y="104.0"/>
      <point x="679.0" y="5.0"/>
    </contour>
    <contour>
      <point x="816.0" y="103.0" type="curve" smooth="yes"/>
      <point x="766.0" y="103.0"/>
      <point x="737.0" y="154.0"/>
      <point x="737.0" y="228.0" type="curve" smooth="yes"/>
      <point x="737.0" y="302.0"/>
      <point x="766.0" y="348.0"/>
      <point x="818.0" y="348.0" type="curve" smooth="yes"/>
      <point x="868.0" y="348.0"/>
      <point x="896.0" y="298.0"/>
      <point x="896.0" y="223.0" type="curve" smooth="yes"/>
      <point x="896.0" y="148.0"/>
      <point x="868.0" y="103.0"/>
    </contour>
  </outline>
</glyph>
<glyph name="ampersand" format="2">
  <advance width="753.0"/>
  <unicode hex="0026"/>
  <outline>
    <contour>
      <point x="474.0" y="134.0" type="curve"/>
      <point x="437.0" y="120.0"/>
      <point x="404.0" y="106.0"/>
      <point x="336.0" y="106.0" type="curve" smooth="yes"/>
      <point x="226.0" y="106.0"/>
      <point x="187.0" y="144.0"/>
      <point x="187.0" y="203.0" type="curve" smooth="yes"/>
      <point x="187.0" y="255.0"/>
      <point x="230.0" y="290.0"/>
      <point x="300.0" y="316.0" type="curve"/>
      <point x="305.0" y="318.0"/>
      <point x="344.0" y="329.0"/>
      <point x="349.0" y="331.0" type="curve"/>
      <point x="465.0" y="384.0"/>
      <point x="543.0" y="439.0"/>
      <point x="543.0" y="577.0" type="curve" smooth="yes"/>
      <point x="543.0" y="674.0"/>
      <point x="466.0" y="755.0"/>
      <point x="341.0" y="755.0" type="curve" smooth="yes"/>
      <point x="210.0" y="755.0"/>
      <point x="125.0" y="687.0"/>
      <point x="125.0" y="570.0" type="curve" smooth="yes"/>
      <point x="125.0" y="463.0"/>
      <point x="183.0" y="404.0"/>
      <point x="225.0" y="344.0" type="curve"/>
      <point x="233.0" y="331.0" type="line"/>
      <point x="283.0" y="262.0"/>
      <point x="390.0" y="135.0"/>
      <point x="452.0" y="72.0" type="curve" smooth="yes"/>
      <point x="504.0" y="26.0"/>
      <point x="553.0" y="-8.0"/>
      <point x="646.0" y="-8.0" type="curve" smooth="yes"/>
      <point x="676.0" y="-8.0"/>
      <point x="700.0" y="-4.0"/>
      <point x="716.0" y="0.0" type="curve"/>
      <point x="716.0" y="81.0" type="line"/>
      <point x="647.0" y="83.0"/>
      <point x="618.0" y="98.0"/>
      <point x="565.0" y="146.0" type="curve" smooth="yes"/>
      <point x="510.0" y="195.0"/>
      <point x="407.0" y="320.0"/>
      <point x="372.0" y="369.0" type="curve"/>
      <point x="356.0" y="389.0" type="line"/>
      <point x="290.0" y="485.0"/>
      <point x="261.0" y="507.0"/>
      <point x="261.0" y="573.0" type="curve" smooth="yes"/>
      <point x="261.0" y="622.0"/>
      <point x="293.0" y="653.0"/>
      <point x="342.0" y="653.0" type="curve" smooth="yes"/>
      <point x="397.0" y="653.0"/>
      <point x="417.0" y="607.0"/>
      <point x="417.0" y="576.0" type="curve" smooth="yes"/>
      <point x="417.0" y="490.0"/>
      <point x="363.0" y="448.0"/>
      <point x="280.0" y="416.0" type="curve"/>
      <point x="278.0" y="415.0"/>
      <point x="250.0" y="408.0"/>
      <point x="248.0" y="407.0" type="curve"/>
      <point x="137.0" y="368.0"/>
      <point x="43.0" y="300.0"/>
      <point x="43.0" y="195.0" type="curve" smooth="yes"/>
      <point x="43.0" y="65.0"/>
      <point x="149.0" y="-8.0"/>
      <point x="359.0" y="-8.0" type="curve" smooth="yes"/>
      <point x="435.0" y="-8.0"/>
      <point x="516.0" y="27.0"/>
      <point x="564.0" y="55.0" type="curve"/>
      <point x="568.0" y="57.0"/>
      <point x="580.0" y="73.0"/>
      <point x="583.0" y="76.0" type="curve"/>
      <point x="645.0" y="116.0"/>
      <point x="686.0" y="180.0"/>
      <point x="686.0" y="281.0" type="curve" smooth="yes"/>
      <point x="686.0" y="328.0"/>
      <point x="679.0" y="355.0"/>
      <point x="676.0" y="370.0" type="curve"/>
      <point x="550.0" y="370.0" type="line"/>
      <point x="552.0" y="356.0"/>
      <point x="562.0" y="327.0"/>
      <point x="562.0" y="282.0" type="curve" smooth="yes"/>
      <point x="562.0" y="229.0"/>
      <point x="537.0" y="182.0"/>
      <point x="495.0" y="159.0" type="curve"/>
      <point x="492.0" y="156.0"/>
      <point x="481.0" y="138.0"/>
    </contour>
  </outline>
</glyph>
<glyph name="parenleft" format="2">
  <advance width="408.0"/>
  <unicode hex="0028"/>
  <outline>
    <contour>
      <point x="292.0" y="-176.0" type="curve"/>
      <point x="381.0" y="-119.0" type="line"/>
      <point x="332.0" y="-84.0"/>
      <point x="199.0" y="60.0"/>
      <point x="199.0" y="345.0" type="curve" smooth="yes"/>
      <point x="199.0" y="618.0"/>
      <point x="344.0" y="779.0"/>
      <point x="381.0" y="806.0" type="curve"/>
      <point x="292.0" y="863.0" type="line"/>
      <point x="236.0" y="830.0"/>
      <point x="63.0" y="649.0"/>
      <point x="63.0" y="350.0" type="curve" smooth="yes"/>
      <point x="63.0" y="6.0"/>
      <point x="248.0" y="-149.0"/>
    </contour>
  </outline>
</glyph>
<glyph name="plus" format="2">
  <advance width="685.0"/>
  <unicode hex="002B"/>
  <outline>
    <contour>
      <point x="282.0" y="127.0" type="line"/>
      <point x="402.0" y="127.0" type="line"/>
      <point x="402.0" y="231.0" type="line"/>
      <point x="399.0" y="323.0" type="line"/>
      <point x="473.0" y="320.0" type="line"/>
      <point x="581.0" y="320.0" type="line"/>
      <point x="581.0" y="436.0" type="line"/>
      <point x="473.0" y="436.0" type="line"/>
      <point x="399.0" y="433.0" type="line"/>
      <point x="402.0" y="524.0" type="line"/>
      <point x="402.0" y="630.0" type="line"/>
      <point x="282.0" y="630.0" type="line"/>
      <point x="282.0" y="524.0" type="line"/>
      <point x="285.0" y="433.0" type="line"/>
      <point x="206.0" y="436.0" type="line"/>
      <point x="104.0" y="436.0" type="line"/>
      <point x="104.0" y="320.0" type="line"/>
      <point x="206.0" y="320.0" type="line"/>
      <point x="285.0" y="323.0" type="line"/>
      <point x="282.0" y="231.0" type="line"/>
    </contour>
  </outline>
</glyph>
<glyph name="comma" format="2">
  <advance width="338.0"/>
  <unicode hex="002C"/>
  <outline>
    <contour>
      <point x="86.0" y="-199.0" type="line"/>
      <point x="138.0" y="-247.0" type="line"/>
      <point x="215.0" y="-220.0"/>
      <point x="278.0" y="-122.0"/>
      <point x="278.0" y="-11.0" type="curve" smooth="yes"/>
      <point x="278.0" y="46.0"/>
      <point x="249.0" y="122.0"/>
      <point x="188.0" y="145.0" type="curve"/>
      <point x="80.0" y="78.0" type="line"/>
      <point x="80.0" y="36.0" type="line"/>
      <point x="104.0" y="34.0"/>
      <point x="137.0" y="-21.0"/>
      <point x="137.0" y="-66.0" type="curve" smooth="yes"/>
      <point x="137.0" y="-119.0"/>
      <point x="112.0" y="-171.0"/>
      <point x="86.0" y="-187.0" type="curve"/>
    </contour>
  </outline>
</glyph>
<glyph name="five" format="2">
  <advance width="631.0"/>
  <unicode hex="0035"/>
  <outline>
    <contour>
      <point x="160.0" y="-10.0" type="curve" smooth="yes"/>
      <point x="406.0" y="-10.0"/>
      <point x="562.0" y="101.0"/>
      <point x="562.0" y="264.0" type="curve" smooth="yes"/>
      <point x="562.0" y="394.0"/>
      <point x="483.0" y="478.0"/>
      <point x="347.0" y="478.0" type="curve" smooth="yes"/>
      <point x="309.0" y="478.0"/>
      <point x="271.0" y="472.0"/>
      <point x="224.0" y="461.0" type="curve"/>
      <point x="240.0" y="613.0" type="line"/>
      <point x="529.0" y="613.0" type="line"/>
      <point x="543.0" y="743.0" type="line"/>
      <point x="129.0" y="743.0" type="line"/>
      <point x="97.0" y="347.0" type="line"/>
      <point x="122.0" y="332.0" type="line"/>
      <point x="174.0" y="349.0"/>
      <point x="225.0" y="364.0"/>
      <point x="267.0" y="364.0" type="curve" smooth="yes"/>
      <point x="369.0" y="364.0"/>
      <point x="406.0" y="329.0"/>
      <point x="406.0" y="258.0" type="curve" smooth="yes"/>
      <point x="406.0" y="154.0"/>
      <point x="294.0" y="102.0"/>
      <point x="133.0" y="102.0" type="curve" smooth="yes"/>
      <point x="120.0" y="102.0"/>
      <point x="107.0" y="102.0"/>
      <point x="94.0" y="103.0" type="curve"/>
      <point x="94.0" y="-4.0" type="line"/>
      <point x="112.0" y="-9.0"/>
      <point x="142.0" y="-10.0"/>
    </contour>
  </outline>
</glyph>
<glyph name="nine" format="2">
  <advance width="697.0"/>
  <unicode hex="0039"/>
  <outline>
    <contour>
      <point x="66.0" y="475.0" type="curve" smooth="yes"/>
      <point x="66.0" y="351.0"/>
      <point x="142.0" y="243.0"/>
      <point x="278.0" y="243.0" type="curve" smooth="yes"/>
      <point x="356.0" y="243.0"/>
      <point x="404.0" y="270.0"/>
      <point x="421.0" y="289.0" type="curve"/>
      <point x="392.0" y="376.0" type="line"/>
      <point x="376.0" y="369.0"/>
      <point x="359.0" y="360.0"/>
      <point x="317.0" y="360.0" type="curve" smooth="yes"/>
      <point x="261.0" y="360.0"/>
      <point x="219.0" y="405.0"/>
      <point x="219.0" y="515.0" type="curve" smooth="yes"/>
      <point x="219.0" y="591.0"/>
      <point x="263.0" y="643.0"/>
      <point x="341.0" y="643.0" type="curve" smooth="yes"/>
      <point x="434.0" y="643.0"/>
      <point x="469.0" y="546.0"/>
      <point x="467.0" y="412.0" type="curve" smooth="yes"/>
      <point x="465.0" y="273.0"/>
      <point x="350.0" y="75.0"/>
      <point x="156.0" y="26.0" type="curve"/>
      <point x="197.0" y="-63.0" type="line"/>
      <point x="376.0" y="-34.0"/>
      <point x="629.0" y="161.0"/>
      <point x="629.0" y="456.0" type="curve"/>
      <point x="629.0" y="616.0"/>
      <point x="531.0" y="750.0"/>
      <point x="356.0" y="750.0" type="curve" smooth="yes"/>
      <point x="162.0" y="750.0"/>
      <point x="66.0" y="629.0"/>
    </contour>
  </outline>
</glyph>
<glyph name="less" format="2">
  <advance width="673.0"/>
  <unicode hex="003C"/>
  <outline>
    <contour>
      <point x="96.0" y="341.0" type="line"/>
      <point x="561.0" y="112.0" type="line"/>
      <point x="561.0" y="250.0" type="line"/>
      <point x="252.0" y="385.0" type="line"/>
      <point x="252.0" y="370.0" type="line"/>
      <point x="561.0" y="516.0" type="line"/>
      <point x="561.0" y="650.0" type="line"/>
      <point x="96.0" y="416.0" type="line"/>
    </contour>
  </outline>
</glyph>
<glyph name="A" format="2">
  <advance width="694.0"/>
  <unicode hex="0041"/>
  <anchor x="347.0" y="0.0" name="bottom"/>
  <anchor x="332.0" y="-83.0" name="btm"/>
  <anchor x="625.0" y="10.0" name="ogonek"/>
  <anchor x="347.0" y="830.0" name="top"/>
  <outline>
    <contour>
      <point x="160.0" y="0.0" type="line"/>
      <point x="323.0" y="524.0" type="line"/>
      <point x="345.0" y="601.0" type="line"/>
      <point x="366.0" y="524.0" type="line"/>
      <point x="532.0" y="0.0" type="line"/>
      <point x="701.0" y="0.0" type="line"/>
      <point x="424.0" y="751.0" type="line"/>
      <point x="267.0" y="751.0" type="line"/>
      <point x="-7.0" y="0.0" type="line"/>
    </contour>
    <contour>
      <point x="146.0" y="157.0" type="line"/>
      <point x="528.0" y="157.0" type="line"/>
      <point x="508.0" y="269.0" type="line"/>
      <point x="167.0" y="269.0" type="line"/>
    </contour>
  </outline>
</glyph>
<glyph name="E" format="2">
  <advance width="612.0"/>
  <unicode hex="0045"/>
  <anchor x="306.0" y="0.0" name="bottom"/>
  <anchor x="335.0" y="-83.0" name="btm"/>
  <anchor x="544.0" y="10.0" name="ogonek"/>
  <anchor x="322.0" y="830.0" name="top"/>
  <anchor x="20.0" y="743.0" name="topleft"/>
  <outline>
    <contour>
      <point x="92.0" y="0.0" type="line"/>
      <point x="577.0" y="0.0" type="line"/>
      <point x="577.0" y="123.0" type="line"/>
      <point x="247.0" y="123.0" type="line"/>
      <point x="247.0" y="322.0" type="line"/>
      <point x="476.0" y="322.0" type="line"/>
      <point x="476.0" y="439.0" type="line"/>
      <point x="247.0" y="439.0" type="line"/>
      <point x="247.0" y="624.0" type="line"/>
      <point x="545.0" y="624.0" type="line"/>
      <point x="545.0" y="743.0" type="line"/>
      <point x="92.0" y="743.0" type="line"/>
    </contour>
  </outline>
</glyph>
<glyph name="H" format="2">
  <advance width="782.0"/>
  <unicode hex="0048"/>
  <anchor x="391.0" y="0.0" name="bottom"/>
  <anchor x="380.0" y="-83.0" name="btm"/>
  <anchor x="391.0" y="372.0" name="center"/>
  <anchor x="391.0" y="830.0" name="top"/>
  <anchor x="20.0" y="743.0" name="topleft"/>
  <outline>
    <contour>
      <point x="92.0" y="0.0" type="line"/>
      <point x="247.0" y="0.0" type="line"/>
      <point x="247.0" y="318.0" type="line"/>
      <point x="537.0" y="318.0" type="line"/>
      <point x="537.0" y="0.0" type="line"/>
      <point x="690.0" y="0.0" type="line"/>
      <point x="690.0" y="743.0" type="line"/>
      <point x="537.0" y="743.0" type="line"/>
      <point x="537.0" y="435.0" type="line"/>
      <point x="247.0" y="435.0" type="line"/>
      <point x="247.0" y="743.0" type="line"/>
      <point x="92.0" y="743.0" type="line"/>
    </contour>
  </outline>
</glyph>
<glyph name="K" format="2">
  <advance width="705.0"/>
  <unicode hex="004B"/>
  <anchor x="353.0" y="0.0" name="bottom"/>
  <anchor x="364.0" y="-83.0" name="btm"/>
  <anchor x="364.0" y="831.0" name="top"/>
  <outline>
    <contour>
      <point x="92.0" y="0.0" type="line"/>
      <point x="247.0" y="0.0" type="line"/>
      <point x="247.0" y="321.0" type="line"/>
      <point x="225.0" y="204.0" type="line"/>
      <point x="354.0" y="349.0" type="line"/>
      <point x="380.0" y="368.0" type="line"/>
      <point x="679.0" y="743.0" type="line"/>
      <point x="508.0" y="743.0" type="line"/>
      <point x="247.0" y="414.0" type="line"/>
      <point x="247.0" y="743.0" type="line"/>
      <point x="92.0" y="743.0" type="line"/>
    </contour>
    <contour>
      <point x="485.0" y="55.0" type="curve" smooth="yes"/>
      <point x="502.0" y="25.0"/>
      <point x="507.0" y="13.0"/>
      <point x="516.0" y="0.0" type="curve"/>
      <point x="689.0" y="0.0" type="line"/>
      <point x="678.0" y="18.0"/>
      <point x="668.0" y="36.0"/>
      <point x="657.0" y="54.0" type="curve"/>
      <point x="591.0" y="168.0"/>
      <point x="449.0" y="402.0"/>
      <point x="417.0" y="444.0" type="curve"/>
      <point x="364.0" y="389.0" type="line"/>
      <point x="313.0" y="332.0" type="line"/>
      <point x="363.0" y="260.0"/>
      <point x="431.0" y="154.0"/>
    </contour>
  </outline>
</glyph>
<glyph name="M" format="2">
  <advance width="921.0"/>
  <unicode hex="004D"/>
  <anchor x="461.0" y="0.0" name="bottom"/>
  <anchor x="468.0" y="-83.0" name="btm"/>
  <anchor x="464.0" y="800.0" name="top"/>
  <outline>
    <contour>
      <point x="34.0" y="0.0" type="line"/>
      <point x="178.0" y="0.0" type="line"/>
      <point x="210.0" y="398.0" type="line"/>
      <point x="228.0" y="626.0" type="line"/>
      <point x="283.0" y="398.0" type="line"/>
      <point x="400.0" y="-7.0" type="line"/>
      <point x="523.0" y="-7.0" type="line"/>
      <point x="630.0" y="398.0" type="line"/>
      <point x="685.0" y="626.0" type="line"/>
      <point x="698.0" y="398.0" type="line"/>
      <point x="734.0" y="0.0" type="line"/>
      <point x="887.0" y="0.0" type="line"/>
      <point x="798.0" y="743.0" type="line"/>
      <point x="586.0" y="743.0" type="line"/>
      <point x="497.0" y="353.0" type="line"/>
      <point x="468.0" y="188.0" type="line"/>
      <point x="431.0" y="353.0" type="line"/>
      <point x="332.0" y="743.0" type="line"/>
      <point x="113.0" y="743.0" type="line"/>
    </contour>
  </outline>
</glyph>
<glyph name="P" format="2">
  <advance width="664.0"/>
  <unicode hex="0050"/>
  <anchor x="332.0" y="0.0" name="bottom"/>
  <anchor x="345.0" y="-83.0" name="btm"/>
  <anchor x="365.0" y="831.0" name="top"/>
  <outline>
    <contour>
      <point x="92.0" y="0.0" type="line"/>
      <point x="247.0" y="0.0" type="line"/>
      <point x="247.0" y="226.0" type="line"/>
      <point x="264.0" y="226.0"/>
      <point x="290.0" y="225.0"/>
      <point x="332.0" y="225.0" type="curve" smooth="yes"/>
      <point x="524.0" y="225.0"/>
      <point x="629.0" y="325.0"/>
      <point x="629.0" y="495.0" type="curve" smooth="yes"/>
      <point x="629.0" y="678.0"/>
      <point x="528.0" y="751.0"/>
      <point x="358.0" y="751.0" type="curve" smooth="yes"/>
      <point x="287.0" y="751.0"/>
      <point x="221.0" y="743.0"/>
      <point x="139.0" y="743.0" type="curve" smooth="yes"/>
      <point x="92.0" y="743.0" type="line"/>
    </contour>
    <contour>
      <point x="247.0" y="347.0" type="curve"/>
      <point x="247.0" y="631.0" type="line"/>
      <point x="271.0" y="636.0"/>
      <point x="301.0" y="637.0"/>
      <point x="327.0" y="638.0" type="curve" smooth="yes"/>
      <point x="423.0" y="642.0"/>
      <point x="475.0" y="591.0"/>
      <point x="475.0" y="497.0" type="curve" smooth="yes"/>
      <point x="475.0" y="374.0"/>
      <point x="404.0" y="343.0"/>
      <point x="328.0" y="343.0" type="curve" smooth="yes"/>
      <point x="304.0" y="343.0"/>
      <point x="271.0" y="344.0"/>
    </contour>
  </outline>
</glyph>
<glyph name="Q" format="2">
  <advance width="779.0"/>
  <unicode hex="0051"/>
  <anchor x="390.0" y="0.0" name="bottom"/>
  <anchor x="389.0" y="-83.0" name="btm"/>
  <anchor x="389.0" y="830.0" name="top"/>
  <anchor x="390.0" y="372.0" name="center"/>
  <anchor x="701.0" y="10.0" name="ogonek"/>
  <anchor x="20.0" y="743.0" name="topleft"/>
  <anchor x="759.0" y="743.0" name="topright"/>
  <outline>
    <contour>
      <point x="600.0" y="-159.0" type="curve" smooth="yes"/>
      <point x="646.0" y="-159.0"/>
      <point x="683.0" y="-145.0"/>
      <point x="697.0" y="-134.0" type="curve"/>
      <point x="697.0" y="-27.0" type="line"/>
      <point x="674.0" y="-35.0"/>
      <point x="645.0" y="-40.0"/>
      <point x="618.0" y="-40.0" type="curve" smooth="yes"/>
      <point x="521.0" y="-40.0"/>
      <point x="487.0" y="-35.0"/>
      <point x="468.0" y="33.0" type="curve"/>
      <point x="419.0" y="33.0" type="line"/>
      <point x="345.0" y="6.0" type="line"/>
      <point x="379.0" y="-122.0"/>
      <point x="450.0" y="-159.0"/>
    </contour>
    <component base="O"/>
  </outline>
</glyph>
<glyph name="R" format="2">
  <advance width="701.0"/>
  <unicode hex="0052"/>
  <anchor x="351.0" y="0.0" name="bottom"/>
  <anchor x="358.0" y="-83.0" name="btm"/>
  <anchor x="339.0" y="830.0" name="top"/>
  <outline>
    <contour>
      <point x="247.0" y="0.0" type="line"/>
      <point x="247.0" y="281.0" type="line"/>
      <point x="365.0" y="281.0"/>
      <point x="399.0" y="287.0"/>
      <point x="439.0" y="293.0" type="curve" smooth="yes"/>
      <point x="556.0" y="312.0"/>
      <point x="628.0" y="375.0"/>
      <point x="628.0" y="526.0" type="curve" smooth="yes"/>
      <point x="628.0" y="702.0"/>
      <point x="500.0" y="751.0"/>
      <point x="361.0" y="751.0" type="curve" smooth="yes"/>
      <point x="254.0" y="751.0"/>
      <point x="209.0" y="743.0"/>
      <point x="164.0" y="743.0" type="curve" smooth="yes"/>
      <point x="140.0" y="743.0"/>
      <point x="116.0" y="743.0"/>
      <point x="92.0" y="743.0" type="curve"/>
      <point x="92.0" y="0.0" type="line"/>
    </contour>
    <contour>
      <point x="247.0" y="393.0" type="curve"/>
      <point x="247.0" y="626.0" type="line"/>
      <point x="274.0" y="633.0"/>
      <point x="309.0" y="635.0"/>
      <point x="342.0" y="635.0" type="curve" smooth="yes"/>
      <point x="458.0" y="635.0"/>
      <point x="478.0" y="580.0"/>
      <point x="478.0" y="522.0" type="curve" smooth="yes"/>
      <point x="478.0" y="453.0"/>
      <point x="443.0" y="390.0"/>
      <point x="349.0" y="390.0" type="curve" smooth="yes"/>
      <point x="324.0" y="390.0"/>
      <point x="268.0" y="390.0"/>
    </contour>
    <contour>
      <point x="501.0" y="0.0" type="curve"/>
      <point x="674.0" y="0.0" type="line"/>
      <point x="664.0" y="18.0"/>
      <point x="654.0" y="36.0"/>
      <point x="644.0" y="54.0" type="curve" smooth="yes"/>
      <point x="588.0" y="150.0"/>
      <point x="558.0" y="293.0"/>
      <point x="478.0" y="327.0" type="curve"/>
      <point x="384.0" y="318.0" type="line"/>
      <point x="345.0" y="283.0" type="line"/>
      <point x="417.0" y="282.0"/>
      <point x="432.0" y="141.0"/>
      <point x="474.0" y="54.0" type="curve" smooth="yes"/>
      <point x="489.0" y="22.0"/>
      <point x="493.0" y="13.0"/>
    </contour>
  </outline>
</glyph>
<glyph name="T" format="2">
  <advance width="610.0"/>
  <unicode hex="0054"/>
  <anchor x="305.0" y="0.0" name="bottom"/>
  <anchor x="303.0" y="-83.0" name="btm"/>
  <anchor x="305.0" y="372.0" name="center"/>
  <anchor x="303.0" y="830.0" name="top"/>
  <outline>
    <contour>
      <point x="228.0" y="0.0" type="line"/>
      <point x="384.0" y="0.0" type="line"/>
      <point x="384.0" y="624.0" type="line"/>
      <point x="596.0" y="624.0" type="line"/>
      <point x="596.0" y="743.0" type="line"/>
      <point x="15.0" y="743.0" type="line"/>
      <point x="15.0" y="624.0" type="line"/>
      <point x="228.0" y="624.0" type="line"/>
    </contour>
  </outline>
</glyph>
<glyph name="U" format="2">
  <advance width="745.0"/>
  <unicode hex="0055"/>
  <anchor x="373.0" y="0.0" name="bottom"/>
  <anchor x="374.0" y="-83.0" name="btm"/>
  <anchor x="671.0" y="10.0" name="ogonek"/>
  <anchor x="375.0" y="830.0" name="top"/>
  <anchor x="725.0" y="743.0" name="topright"/>
  <outline>
    <contour>
      <point x="370.0" y="-8.0" type="curve" smooth="yes"/>
      <point x="570.0" y="-8.0"/>
      <point x="672.0" y="104.0"/>
      <point x="672.0" y="313.0" type="curve" smooth="yes"/>
      <point x="672.0" y="743.0" type="line"/>
      <point x="519.0" y="743.0" type="line"/>
      <point x="519.0" y="327.0" type="line" smooth="yes"/>
      <point x="519.0" y="162.0"/>
      <point x="468.0" y="116.0"/>
      <point x="375.0" y="116.0" type="curve" smooth="yes"/>
      <point x="279.0" y="116.0"/>
      <point x="227.0" y="154.0"/>
      <point x="227.0" y="327.0" type="curve" smooth="yes"/>
      <point x="228.0" y="743.0" type="line"/>
      <point x="74.0" y="743.0" type="line"/>
      <point x="73.0" y="319.0" type="line" smooth="yes"/>
      <point x="73.0" y="122.0"/>
      <point x="147.0" y="-8.0"/>
    </contour>
  </outline>
</glyph>
<glyph name="X" format="2">
  <advance width="672.0"/>
  <unicode hex="0058"/>
  <anchor x="336.0" y="0.0" name="bottom"/>
  <anchor x="329.0" y="-83.0" name="btm"/>
  <anchor x="329.0" y="830.0" name="top"/>
  <outline>
    <contour>
      <point x="16.0" y="0.0" type="line"/>
      <point x="178.0" y="0.0" type="line"/>
      <point x="293.0" y="208.0" type="line"/>
      <point x="344.0" y="300.0" type="line"/>
      <point x="313.0" y="299.0" type="line"/>
      <point x="365.0" y="208.0" type="line"/>
      <point x="484.0" y="0.0" type="line"/>
      <point x="656.0" y="0.0" type="line"/>
      <point x="413.0" y="395.0" type="line"/>
      <point x="419.0" y="349.0" type="line"/>
      <point x="651.0" y="743.0" type="line"/>
      <point x="487.0" y="743.0" type="line"/>
      <point x="380.0" y="547.0" type="line"/>
      <point x="332.0" y="458.0" type="line"/>
      <point x="356.0" y="458.0" type="line"/>
      <point x="305.0" y="547.0" type="line"/>
      <point x="191.0" y="744.0" type="line"/>
      <point x="21.0" y="743.0" type="line"/>
      <point x="256.0" y="356.0" type="line"/>
      <point x="252.0" y="405.0" type="line"/>
    </contour>
  </outline>
</glyph>
<glyph name="Z" format="2">
  <advance width="638.0"/>
  <unicode hex="005A"/>
  <anchor x="319.0" y="0.0" name="bottom"/>
  <anchor x="312.0" y="-83.0" name="btm"/>
  <anchor x="319.0" y="372.0" name="center"/>
  <anchor x="330.0" y="830.0" name="top"/>
  <outline>
    <contour>
      <point x="46.0" y="0.0" type="line"/>
      <point x="584.0" y="0.0" type="line"/>
      <point x="584.0" y="118.0" type="line"/>
      <point x="239.0" y="118.0" type="line"/>
      <point x="275.0" y="164.0" type="line"/>
      <point x="603.0" y="704.0" type="line"/>
      <point x="584.0" y="743.0" type="line"/>
      <point x="63.0" y="743.0" type="line"/>
      <point x="63.0" y="630.0" type="line"/>
      <point x="390.0" y="630.0" type="line"/>
      <point x="361.0" y="591.0" type="line"/>
      <point x="26.0" y="41.0" type="line"/>
    </contour>
  </outline>
</glyph>
<glyph name="bracketleft" format="2">
  <advance width="390.0"/>
  <unicode hex="005B"/>
  <outline>
    <contour>
      <point x="71.0" y="29.0" type="line"/>
      <point x="71.0" y="-67.0"/>
      <point x="88.0" y="-93.0"/>
      <point x="164.0" y="-93.0" type="curve" smooth="yes"/>
      <point x="244.0" y="-93.0"/>
      <point x="277.0" y="-88.0"/>
      <point x="340.0" y="-82.0" type="curve"/>
      <point x="340.0" y="-11.0" type="line"/>
      <point x="209.0" y="-10.0" type="line"/>
      <point x="209.0" y="757.0" type="line"/>
      <point x="340.0" y="757.0" type="line"/>
      <point x="340.0" y="836.0" type="line"/>
      <point x="277.0" y="842.0"/>
      <point x="244.0" y="848.0"/>
      <point x="164.0" y="848.0" type="curve" smooth="yes"/>
      <point x="89.0" y="848.0"/>
      <point x="71.0" y="822.0"/>
      <point x="71.0" y="726.0" type="curve" smooth="yes"/>
    </contour>
  </outline>
</glyph>
<glyph name="asciicircum" format="2">
  <advance width="670.0"/>
  <unicode hex="005E"/>
  <outline>
    <contour>
      <point x="212.0" y="239.0" type="line"/>
      <point x="340.0" y="581.0" type="line"/>
      <point x="331.0" y="581.0" type="line"/>
      <point x="458.0" y="239.0" type="line"/>
      <point x="596.0" y="239.0" type="line"/>
      <point x="391.0" y="748.0" type="line"/>
      <point x="280.0" y="748.0" type="line"/>
      <point x="75.0" y="239.0" type="line"/>
    </contour>
  </outline>
</glyph>
<glyph name="underscore" format="2">
  <advance width="831.0"/>
  <unicode hex="005F"/>
  <outline>
    <contour>
      <point x="-17.0" y="-200.0" type="line"/>
      <point x="848.0" y="-200.0" type="line"/>
      <point x="848.0" y="-118.0" type="line"/>
      <point x="-17.0" y="-118.0" type="line"/>
    </contour>
  </outline>
</glyph>
<glyph name="grave" format="2">
  <advance width="325.0"/>
  <unicode hex="0060"/>
  <anchor x="239.0" y="831.0" name="_top"/>
  <outline>
    <contour>
      <point x="298.0" y="678.0" type="line"/>
      <point x="241.0" y="731.0"/>
      <point x="172.0" y="813.0"/>
      <point x="132.0" y="883.0" type="curve"/>
      <point x="27.0" y="798.0" type="line"/>
      <point x="60.0" y="727.0"/>
      <point x="185.0" y="630.0"/>
      <point x="226.0" y="611.0" type="curve"/>
    </contour>
  </outline>
</glyph>
<glyph name="a" format="2">
  <advance width="592.0"/>
  <unicode hex="0061"/>
  <anchor x="296.0" y="0.0" name="bottom"/>
  <anchor x="290.0" y="-100.0" name="btm"/>
  <anchor x="507.0" y="25.0" name="ogonek"/>
  <anchor x="290.0" y="830.0" name="top"/>
  <outline>
    <contour>
      <point x="226.0" y="-8.0" type="curve" smooth="yes"/>
      <point x="292.0" y="-8.0"/>
      <point x="342.0" y="20.0"/>
      <point x="371.0" y="47.0" type="curve"/>
      <point x="388.0" y="90.0" type="line"/>
      <point x="365.0" y="126.0" type="line"/>
      <point x="355.0" y="113.0"/>
      <point x="313.0" y="95.0"/>
      <point x="279.0" y="95.0" type="curve" smooth="yes"/>
      <point x="235.0" y="95.0"/>
      <point x="202.0" y="120.0"/>
      <point x="202.0" y="174.0" type="curve" smooth="yes"/>
      <point x="202.0" y="216.0"/>
      <point x="227.0" y="230.0"/>
      <point x="250.0" y="239.0" type="curve" smooth="yes"/>
      <point x="273.0" y="250.0"/>
      <point x="328.0" y="259.0"/>
      <point x="365.0" y="259.0" type="curve"/>
      <point x="391.0" y="312.0" type="line"/>
      <point x="365.0" y="345.0" type="line"/>
      <point x="295.0" y="345.0"/>
      <point x="203.0" y="340.0"/>
      <point x="142.0" y="313.0" type="curve" smooth="yes"/>
      <point x="82.0" y="286.0"/>
      <point x="45.0" y="241.0"/>
      <point x="45.0" y="173.0" type="curve" smooth="yes"/>
      <point x="45.0" y="68.0"/>
      <point x="117.0" y="-8.0"/>
    </contour>
    <contour>
      <point x="517.0" y="0.0" type="line"/>
      <point x="517.0" y="364.0" type="line" smooth="yes"/>
      <point x="517.0" y="525.0"/>
      <point x="446.0" y="567.0"/>
      <point x="291.0" y="567.0" type="curve" smooth="yes"/>
      <point x="203.0" y="567.0"/>
      <point x="103.0" y="531.0"/>
      <point x="68.0" y="509.0" type="curve"/>
      <point x="101.0" y="412.0" type="line"/>
      <point x="149.0" y="433.0"/>
      <point x="225.0" y="451.0"/>
      <point x="285.0" y="451.0" type="curve" smooth="yes"/>
      <point x="342.0" y="451.0"/>
      <point x="365.0" y="439.0"/>
      <point x="365.0" y="380.0" type="curve" smooth="yes"/>
      <point x="365.0" y="83.0" type="line"/>
      <point x="371.0" y="83.0" type="line"/>
      <point x="371.0" y="0.0" type="line"/>
    </contour>
  </outline>
</glyph>
<glyph name="b" format="2">
  <advance width="650.0"/>
  <unicode hex="0062"/>
  <anchor x="325.0" y="0.0" name="bottom"/>
  <anchor x="362.0" y="-83.0" name="btm"/>
  <anchor x="409.0" y="831.0" name="top"/>
  <outline>
    <contour>
      <point x="82.0" y="811.0" type="line"/>
      <point x="82.0" y="31.0" type="line"/>
      <point x="234.0" y="85.0" type="line"/>
      <point x="234.0" y="483.0" type="line"/>
      <point x="229.0" y="486.0" type="line"/>
      <point x="234.0" y="598.0" type="line"/>
      <point x="234.0" y="811.0" type="line"/>
    </contour>
    <contour>
      <point x="317.0" y="-11.0" type="curve" smooth="yes"/>
      <point x="490.0" y="-11.0"/>
      <point x="608.0" y="114.0"/>
      <point x="608.0" y="299.0" type="curve" smooth="yes"/>
      <point x="608.0" y="479.0"/>
      <point x="504.0" y="564.0"/>
      <point x="386.0" y="564.0" type="curve" smooth="yes"/>
      <point x="286.0" y="564.0"/>
      <point x="239.0" y="516.0"/>
      <point x="216.0" y="491.0" type="curve"/>
      <point x="234.0" y="416.0" type="line"/>
      <point x="257.0" y="435.0"/>
      <point x="297.0" y="451.0"/>
      <point x="339.0" y="451.0" type="curve" smooth="yes"/>
      <point x="405.0" y="451.0"/>
      <point x="449.0" y="414.0"/>
      <point x="448.0" y="287.0" type="curve" smooth="yes"/>
      <point x="447.0" y="164.0"/>
      <point x="393.0" y="94.0"/>
      <point x="320.0" y="94.0" type="curve" smooth="yes"/>
      <point x="277.0" y="94.0"/>
      <point x="247.0" y="100.0"/>
      <point x="234.0" y="113.0" type="curve"/>
      <point x="82.0" y="31.0" type="line"/>
      <point x="99.0" y="19.0"/>
      <point x="215.0" y="-11.0"/>
    </contour>
  </outline>
</glyph>
<glyph name="c" format="2">
  <advance width="509.0"/>
  <unicode hex="0063"/>
  <anchor x="255.0" y="0.0" name="bottom"/>
  <anchor x="292.0" y="-83.0" name="btm"/>
  <anchor x="311.0" y="831.0" name="top"/>
  <outline>
    <contour>
      <point x="46.0" y="271.0" type="curve" smooth="yes"/>
      <point x="46.0" y="112.0"/>
      <point x="133.0" y="-8.0"/>
      <point x="306.0" y="-8.0" type="curve" smooth="yes"/>
      <point x="376.0" y="-8.0"/>
      <point x="443.0" y="14.0"/>
      <point x="477.0" y="47.0" type="curve"/>
      <point x="455.0" y="138.0" type="line"/>
      <point x="433.0" y="125.0"/>
      <point x="385.0" y="115.0"/>
      <point x="334.0" y="115.0" type="curve" smooth="yes"/>
      <point x="255.0" y="115.0"/>
      <point x="194.0" y="170.0"/>
      <point x="198.0" y="291.0" type="curve" smooth="yes"/>
      <point x="201.0" y="402.0"/>
      <point x="276.0" y="440.0"/>
      <point x="340.0" y="440.0" type="curve" smooth="yes"/>
      <point x="392.0" y="440.0"/>
      <point x="423.0" y="433.0"/>
      <point x="450.0" y="418.0" type="curve"/>
      <point x="469.0" y="536.0" type="line"/>
      <point x="450.0" y="550.0"/>
      <point x="394.0" y="564.0"/>
      <point x="324.0" y="564.0" type="curve" smooth="yes"/>
      <point x="135.0" y="564.0"/>
      <point x="46.0" y="436.0"/>
    </contour>
  </outline>
</glyph>
<glyph name="d" format="2">
  <advance width="650.0"/>
  <unicode hex="0064"/>
  <anchor x="325.0" y="0.0" name="bottom"/>
  <anchor x="315.0" y="-83.0" name="btm"/>
  <anchor x="325.0" y="279.0" name="center"/>
  <anchor x="202.0" y="831.0" name="top"/>
  <anchor x="630.0" y="557.0" name="topright"/>
  <outline>
    <contour>
      <point x="428.0" y="0.0" type="line"/>
      <point x="568.0" y="0.0" type="line"/>
      <point x="568.0" y="812.0" type="line"/>
      <point x="415.0" y="812.0" type="line"/>
      <point x="415.0" y="598.0" type="line"/>
      <point x="420.0" y="455.0" type="line"/>
      <point x="415.0" y="452.0" type="line"/>
      <point x="415.0" y="77.0" type="line"/>
      <point x="428.0" y="70.0" type="line"/>
    </contour>
    <contour>
      <point x="264.0" y="-8.0" type="curve" smooth="yes"/>
      <point x="364.0" y="-8.0"/>
      <point x="412.0" y="41.0"/>
      <point x="434.0" y="65.0" type="curve"/>
      <point x="416.0" y="141.0" type="line"/>
      <point x="393.0" y="125.0"/>
      <point x="353.0" y="111.0"/>
      <point x="311.0" y="111.0" type="curve" smooth="yes"/>
      <point x="245.0" y="111.0"/>
      <point x="201.0" y="149.0"/>
      <point x="202.0" y="273.0" type="curve" smooth="yes"/>
      <point x="203.0" y="396.0"/>
      <point x="258.0" y="456.0"/>
      <point x="330.0" y="456.0" type="curve" smooth="yes"/>
      <point x="364.0" y="456.0"/>
      <point x="396.0" y="454.0"/>
      <point x="416.0" y="440.0" type="curve"/>
      <point x="451.0" y="531.0" type="line"/>
      <point x="439.0" y="542.0"/>
      <point x="393.0" y="564.0"/>
      <point x="326.0" y="564.0" type="curve" smooth="yes"/>
      <point x="156.0" y="564.0"/>
      <point x="42.0" y="445.0"/>
      <point x="42.0" y="260.0" type="curve" smooth="yes"/>
      <point x="42.0" y="80.0"/>
      <point x="146.0" y="-8.0"/>
    </contour>
  </outline>
</glyph>
<glyph name="g" format="2">
  <advance width="637.0"/>
  <unicode hex="0067"/>
  <anchor x="319.0" y="-273.0" name="bottom"/>
  <anchor x="307.0" y="831.0" name="top"/>
  <outline>
    <contour>
      <point x="309.0" y="-252.0" type="curve" smooth="yes"/>
      <point x="460.0" y="-254.0"/>
      <point x="603.0" y="-182.0"/>
      <point x="603.0" y="-50.0" type="curve" smooth="yes"/>
      <point x="603.0" y="30.0"/>
      <point x="570.0" y="119.0"/>
      <point x="388.0" y="119.0" type="curve" smooth="yes"/>
      <point x="295.0" y="119.0" type="line" smooth="yes"/>
      <point x="249.0" y="119.0"/>
      <point x="229.0" y="125.0"/>
      <point x="229.0" y="158.0" type="curve" smooth="yes"/>
      <point x="229.0" y="180.0"/>
      <point x="242.0" y="204.0"/>
      <point x="267.0" y="212.0" type="curve"/>
      <point x="180.0" y="226.0" type="line"/>
      <point x="106.0" y="198.0"/>
      <point x="85.0" y="150.0"/>
      <point x="85.0" y="111.0" type="curve" smooth="yes"/>
      <point x="84.0" y="74.0"/>
      <point x="101.0" y="32.0"/>
      <point x="149.0" y="20.0" type="curve" smooth="yes"/>
      <point x="161.0" y="17.0"/>
      <point x="167.0" y="9.0"/>
      <point x="179.0" y="6.0" type="curve" smooth="yes"/>
      <point x="197.0" y="2.0"/>
      <point x="221.0" y="0.0"/>
      <point x="247.0" y="0.0" type="curve" smooth="yes"/>
      <point x="326.0" y="0.0" type="line" smooth="yes"/>
      <point x="438.0" y="0.0"/>
      <point x="452.0" y="-28.0"/>
      <point x="452.0" y="-80.0" type="curve" smooth="yes"/>
      <point x="452.0" y="-139.0"/>
      <point x="397.0" y="-162.0"/>
      <point x="315.0" y="-162.0" type="curve" smooth="yes"/>
      <point x="226.0" y="-162.0"/>
      <point x="196.0" y="-110.0"/>
      <point x="196.0" y="-56.0" type="curve" smooth="yes"/>
      <point x="196.0" y="-2.0"/>
      <point x="225.0" y="6.0"/>
      <point x="242.0" y="21.0" type="curve"/>
      <point x="154.0" y="35.0" type="line"/>
      <point x="93.0" y="17.0"/>
      <point x="44.0" y="-28.0"/>
      <point x="44.0" y="-89.0" type="curve" smooth="yes"/>
      <point x="44.0" y="-194.0"/>
      <point x="141.0" y="-250.0"/>
    </contour>
    <contour>
      <point x="299.0" y="200.0" type="curve" smooth="yes"/>
      <point x="455.0" y="200.0"/>
      <point x="546.0" y="263.0"/>
      <point x="546.0" y="383.0" type="curve" smooth="yes"/>
      <point x="546.0" y="512.0"/>
      <point x="448.0" y="566.0"/>
      <point x="301.0" y="564.0" type="curve" smooth="yes"/>
      <point x="155.0" y="563.0"/>
      <point x="60.0" y="508.0"/>
      <point x="60.0" y="378.0" type="curve" smooth="yes"/>
      <point x="60.0" y="276.0"/>
      <point x="160.0" y="200.0"/>
    </contour>
    <contour>
      <point x="301.0" y="293.0" type="curve" smooth="yes"/>
      <point x="239.0" y="293.0"/>
      <point x="207.0" y="327.0"/>
      <point x="207.0" y="380.0" type="curve" smooth="yes"/>
      <point x="207.0" y="451.0"/>
      <point x="251.0" y="470.0"/>
      <point x="308.0" y="470.0" type="curve" smooth="yes"/>
      <point x="371.0" y="470.0"/>
      <point x="402.0" y="438.0"/>
      <point x="402.0" y="378.0" type="curve" smooth="yes"/>
      <point x="402.0" y="309.0"/>
      <point x="357.0" y="293.0"/>
    </contour>
    <contour>
      <point x="478.0" y="446.0" type="line"/>
      <point x="629.0" y="446.0" type="line"/>
      <point x="629.0" y="557.0" type="line"/>
      <point x="567.0" y="557.0" type="line" smooth="yes"/>
      <point x="510.0" y="557.0"/>
      <point x="475.0" y="525.0"/>
      <point x="463.0" y="509.0" type="curve"/>
    </contour>
  </outline>
</glyph>
<glyph name="l" format="2">
  <advance width="312.0"/>
  <unicode hex="006C"/>
  <anchor x="156.0" y="0.0" name="bottom"/>
  <anchor x="155.0" y="-83.0" name="btm"/>
  <anchor x="156.0" y="492.0" name="center"/>
  <anchor x="156.0" y="891.0" name="top"/>
  <anchor x="292.0" y="983.0" name="topright"/>
  <outline>
    <contour>
      <point x="80.0" y="0.0" type="line"/>
      <point x="232.0" y="0.0" type="line"/>
      <point x="232.0" y="812.0" type="line"/>
      <point x="80.0" y="812.0" type="line"/>
    </contour>
  </outline>
</glyph>
<glyph name="m" format="2">
  <advance width="999.0"/>
  <unicode hex="006D"/>
  <anchor x="500.0" y="0.0" name="bottom"/>
  <anchor x="501.0" y="-83.0" name="btm"/>
  <anchor x="500.0" y="830.0" name="top"/>
  <outline>
    <contour>
      <point x="85.0" y="0.0" type="line"/>
      <point x="237.0" y="0.0" type="line"/>
      <point x="237.0" y="395.0" type="line"/>
      <point x="271.0" y="425.0"/>
      <point x="320.0" y="437.0"/>
      <point x="348.0" y="438.0" type="curve" smooth="yes"/>
      <point x="411.0" y="439.0"/>
      <point x="428.0" y="407.0"/>
      <point x="428.0" y="316.0" type="curve" smooth="yes"/>
      <point x="428.0" y="0.0" type="line"/>
      <point x="580.0" y="0.0" type="line"/>
      <point x="580.0" y="345.0" type="line" smooth="yes"/>
      <point x="580.0" y="508.0"/>
      <point x="525.0" y="570.0"/>
      <point x="407.0" y="566.0" type="curve" smooth="yes"/>
      <point x="339.0" y="564.0"/>
      <point x="264.0" y="525.0"/>
      <point x="226.0" y="497.0" type="curve"/>
      <point x="223.0" y="557.0" type="line"/>
      <point x="85.0" y="557.0" type="line"/>
    </contour>
    <contour>
      <point x="575.0" y="394.0" type="line"/>
      <point x="603.0" y="417.0"/>
      <point x="648.0" y="437.0"/>
      <point x="687.0" y="438.0" type="curve" smooth="yes"/>
      <point x="753.0" y="439.0"/>
      <point x="768.0" y="408.0"/>
      <point x="768.0" y="317.0" type="curve" smooth="yes"/>
      <point x="768.0" y="0.0" type="line"/>
      <point x="920.0" y="0.0" type="line"/>
      <point x="920.0" y="350.0" type="line" smooth="yes"/>
      <point x="920.0" y="513.0"/>
      <point x="854.0" y="567.0"/>
      <point x="739.0" y="566.0" type="curve" smooth="yes"/>
      <point x="653.0" y="566.0"/>
      <point x="573.0" y="519.0"/>
      <point x="543.0" y="493.0" type="curve"/>
    </contour>
  </outline>
</glyph>
<glyph name="o" format="2">
  <advance width="632.0"/>
  <unicode hex="006F"/>
  <anchor x="316.0" y="0.0" name="bottom"/>
  <anchor x="313.0" y="-83.0" name="btm"/>
  <anchor x="316.0" y="279.0" name="center"/>
  <anchor x="338.0" y="25.0" name="ogonek"/>
  <anchor x="320.0" y="830.0" name="top"/>
  <anchor x="612.0" y="557.0" name="topright"/>
  <outline>
    <contour>
      <point x="311.0" y="-8.0" type="curve" smooth="yes"/>
      <point x="469.0" y="-8.0"/>
      <point x="584.0" y="88.0"/>
      <point x="587.0" y="267.0" type="curve" smooth="yes"/>
      <point x="589.0" y="425.0"/>
      <point x="518.0" y="564.0"/>
      <point x="321.0" y="564.0" type="curve" smooth="yes"/>
      <point x="163.0" y="564.0"/>
      <point x="48.0" y="469.0"/>
      <point x="45.0" y="290.0" type="curve" smooth="yes"/>
      <point x="43.0" y="131.0"/>
      <point x="115.0" y="-8.0"/>
    </contour>
    <contour>
      <point x="314.0" y="100.0" type="curve" smooth="yes"/>
      <point x="235.0" y="101.0"/>
      <point x="203.0" y="189.0"/>
      <point x="203.0" y="286.0" type="curve" smooth="yes"/>
      <point x="203.0" y="394.0"/>
      <point x="237.0" y="457.0"/>
      <point x="318.0" y="456.0" type="curve" smooth="yes"/>
      <point x="398.0" y="455.0"/>
      <point x="429.0" y="369.0"/>
      <point x="429.0" y="274.0" type="curve" smooth="yes"/>
      <point x="429.0" y="162.0"/>
      <point x="395.0" y="99.0"/>
    </contour>
  </outline>
</glyph>
<glyph name="t" format="2">
  <advance width="446.0"/>
  <unicode hex="0074"/>
  <anchor x="223.0" y="0.0" name="bottom"/>
  <anchor x="253.0" y="-83.0" name="btm"/>
  <anchor x="223.0" y="279.0" name="center"/>
  <anchor x="211.0" y="913.0" name="top"/>
  <anchor x="426.0" y="557.0" name="topright"/>
  <outline>
    <contour>
      <point x="257.0" y="-8.0" type="curve" smooth="yes"/>
      <point x="333.0" y="-8.0"/>
      <point x="397.0" y="21.0"/>
      <point x="424.0" y="45.0" type="curve"/>
      <point x="405.0" y="130.0" type="line"/>
      <point x="388.0" y="118.0"/>
      <point x="345.0" y="107.0"/>
      <point x="319.0" y="107.0" type="curve" smooth="yes"/>
      <point x="272.0" y="107.0"/>
      <point x="255.0" y="115.0"/>
      <point x="255.0" y="228.0" type="curve" smooth="yes"/>
      <point x="255.0" y="451.0" type="line"/>
      <point x="406.0" y="451.0" type="line"/>
      <point x="406.0" y="557.0" type="line"/>
      <point x="255.0" y="557.0" type="line"/>
      <point x="255.0" y="684.0" type="line"/>
      <point x="163.0" y="684.0" type="line"/>
      <point x="149.0" y="647.0"/>
      <point x="135.0" y="609.0"/>
      <point x="126.0" y="586.0" type="curve" smooth="yes"/>
      <point x="113.0" y="555.0"/>
      <point x="85.0" y="548.0"/>
      <point x="36.0" y="534.0" type="curve"/>
      <point x="36.0" y="451.0" type="line"/>
      <point x="103.0" y="451.0" type="line"/>
      <point x="103.0" y="166.0" type="line" smooth="yes"/>
      <point x="103.0" y="41.0"/>
      <point x="146.0" y="-8.0"/>
    </contour>
  </outline>
</glyph>
<glyph name="u" format="2">
  <advance width="647.0"/>
  <unicode hex="0075"/>
  <anchor x="324.0" y="0.0" name="bottom"/>
  <anchor x="315.0" y="-83.0" name="btm"/>
  <anchor x="582.0" y="10.0" name="ogonek"/>
  <anchor x="329.0" y="830.0" name="top"/>
  <anchor x="627.0" y="557.0" name="topright"/>
  <outline>
    <contour>
      <point x="262.0" y="-8.0" type="curve" smooth="yes"/>
      <point x="318.0" y="-8.0"/>
      <point x="387.0" y="18.0"/>
      <point x="428.0" y="48.0" type="curve"/>
      <point x="425.0" y="63.0" type="line"/>
      <point x="425.0" y="21.0" type="line" smooth="yes"/>
      <point x="425.0" y="-3.0"/>
      <point x="438.0" y="-8.0"/>
      <point x="462.0" y="-8.0" type="curve" smooth="yes"/>
      <point x="563.0" y="-8.0" type="line"/>
      <point x="563.0" y="557.0" type="line"/>
      <point x="410.0" y="557.0" type="line"/>
      <point x="410.0" y="141.0" type="line"/>
      <point x="394.0" y="127.0"/>
      <point x="353.0" y="109.0"/>
      <point x="317.0" y="109.0" type="curve" smooth="yes"/>
      <point x="258.0" y="109.0"/>
      <point x="231.0" y="126.0"/>
      <point x="231.0" y="233.0" type="curve" smooth="yes"/>
      <point x="231.0" y="557.0" type="line"/>
      <point x="79.0" y="557.0" type="line"/>
      <point x="79.0" y="231.0" type="line" smooth="yes"/>
      <point x="79.0" y="88.0"/>
      <point x="103.0" y="-8.0"/>
    </contour>
  </outline>
</glyph>
<glyph name="v" format="2">
  <advance width="582.0"/>
  <unicode hex="0076"/>
  <anchor x="291.0" y="0.0" name="bottom"/>
  <anchor x="291.0" y="557.0" name="top"/>
  <outline>
    <contour>
      <point x="220.0" y="-8.0" type="line"/>
      <point x="361.0" y="-8.0" type="line"/>
      <point x="573.0" y="557.0" type="line"/>
      <point x="412.0" y="557.0" type="line"/>
      <point x="327.0" y="283.0" type="line"/>
      <point x="278.0" y="87.0" type="line"/>
      <point x="309.0" y="87.0" type="line"/>
      <point x="258.0" y="283.0" type="line"/>
      <point x="173.0" y="557.0" type="line"/>
      <point x="8.0" y="557.0" type="line"/>
    </contour>
  </outline>
</glyph>
<glyph name="y" format="2">
  <advance width="580.0"/>
  <unicode hex="0079"/>
  <anchor x="290.0" y="0.0" name="bottom"/>
  <anchor x="478.0" y="-103.0" name="btm"/>
  <anchor x="299.0" y="830.0" name="top"/>
  <outline>
    <contour>
      <point x="59.0" y="-238.0" type="line"/>
      <point x="64.0" y="-242.0"/>
      <point x="118.0" y="-248.0"/>
      <point x="133.0" y="-248.0" type="curve" smooth="yes"/>
      <point x="148.0" y="-248.0"/>
      <point x="189.0" y="-243.0"/>
      <point x="207.0" y="-237.0" type="curve" smooth="yes"/>
      <point x="281.0" y="-215.0"/>
      <point x="353.0" y="-149.0"/>
      <point x="394.0" y="-15.0" type="curve" smooth="yes"/>
      <point x="567.0" y="557.0" type="line"/>
      <point x="404.0" y="557.0" type="line"/>
      <point x="336.0" y="259.0" type="line"/>
      <point x="292.0" y="68.0" type="line"/>
      <point x="306.0" y="68.0" type="line"/>
      <point x="258.0" y="259.0" type="line"/>
      <point x="173.0" y="557.0" type="line"/>
      <point x="8.0" y="557.0" type="line"/>
      <point x="197.0" y="0.0" type="line"/>
      <point x="273.0" y="0.0" type="line"/>
      <point x="266.0" y="14.0" type="line"/>
      <point x="236.0" y="-125.0"/>
      <point x="164.0" y="-125.0"/>
      <point x="114.0" y="-125.0" type="curve" smooth="yes"/>
      <point x="103.0" y="-125.0"/>
      <point x="69.0" y="-118.0"/>
      <point x="59.0" y="-115.0" type="curve"/>
    </contour>
  </outline>
</glyph>
<glyph name="z" format="2">
  <advance width="541.0"/>
  <unicode hex="007A"/>
  <anchor x="271.0" y="0.0" name="bottom"/>
  <anchor x="271.0" y="-83.0" name="btm"/>
  <anchor x="271.0" y="279.0" name="center"/>
  <anchor x="279.0" y="830.0" name="top"/>
  <outline>
    <contour>
      <point x="58.0" y="0.0" type="line"/>
      <point x="502.0" y="0.0" type="line"/>
      <point x="502.0" y="105.0" type="line"/>
      <point x="244.0" y="105.0" type="line"/>
      <point x="274.0" y="146.0" type="line"/>
      <point x="510.0" y="510.0" type="line"/>
      <point x="493.0" y="557.0" type="line"/>
      <point x="70.0" y="557.0" type="line"/>
      <point x="69.0" y="451.0" type="line"/>
      <point x="308.0" y="451.0" type="line"/>
      <point x="279.0" y="410.0" type="line"/>
      <point x="37.0" y="41.0" type="line"/>
    </contour>
  </outline>
</glyph>
<glyph name="cent" format="2">
  <advance width="580.0"/>
  <unicode hex="00A2"/>
  <anchor x="279.0" y="0.0" name="bottom"/>
  <anchor x="316.0" y="-83.0" name="btm"/>
  <anchor x="335.0" y="831.0" name="top"/>
  <outline>
    <contour>
      <point x="291.0" y="521.0" type="line"/>
      <point x="375.0" y="521.0" type="line"/>
      <point x="378.0" y="672.0" type="line"/>
      <point x="294.0" y="672.0" type="line"/>
    </contour>
    <contour>
      <point x="275.0" y="-105.0" type="line"/>
      <point x="359.0" y="-105.0" type="line"/>
      <point x="362.0" y="45.0" type="line"/>
      <point x="278.0" y="45.0" type="line"/>
    </contour>
    <component base="c" xOffset="24.0"/>
  </outline>
</glyph>
<glyph name="sterling" format="2">
  <advance width="770.0"/>
  <unicode hex="00A3"/>
  <outline>
    <contour>
      <point x="56.0" y="57.0" type="curve" smooth="yes"/>
      <point x="56.0" y="13.0"/>
      <point x="95.0" y="-4.0"/>
      <point x="125.0" y="-4.0" type="curve" smooth="yes"/>
      <point x="164.0" y="-4.0"/>
      <point x="206.0" y="21.0"/>
      <point x="226.0" y="44.0" type="curve"/>
      <point x="286.0" y="45.0"/>
      <point x="343.0" y="-9.0"/>
      <point x="485.0" y="-9.0" type="curve" smooth="yes"/>
      <point x="636.0" y="-9.0"/>
      <point x="709.0" y="61.0"/>
      <point x="709.0" y="170.0" type="curve" smooth="yes"/>
      <point x="709.0" y="252.0"/>
      <point x="665.0" y="282.0"/>
      <point x="641.0" y="296.0" type="curve"/>
      <point x="538.0" y="242.0" type="line"/>
      <point x="553.0" y="231.0"/>
      <point x="568.0" y="204.0"/>
      <point x="568.0" y="170.0" type="curve" smooth="yes"/>
      <point x="568.0" y="125.0"/>
      <point x="536.0" y="94.0"/>
      <point x="458.0" y="94.0" type="curve" smooth="yes"/>
      <point x="391.0" y="94.0"/>
      <point x="357.0" y="109.0"/>
      <point x="306.0" y="120.0" type="curve"/>
      <point x="337.0" y="147.0"/>
      <point x="359.0" y="186.0"/>
      <point x="359.0" y="271.0" type="curve" smooth="yes"/>
      <point x="359.0" y="470.0" type="line" smooth="yes"/>
      <point x="359.0" y="623.0"/>
      <point x="419.0" y="632.0"/>
      <point x="470.0" y="632.0" type="curve" smooth="yes"/>
      <point x="516.0" y="632.0"/>
      <point x="552.0" y="608.0"/>
      <point x="574.0" y="592.0" type="curve"/>
      <point x="635.0" y="704.0" type="line"/>
      <point x="598.0" y="728.0"/>
      <point x="537.0" y="751.0"/>
      <point x="456.0" y="751.0" type="curve" smooth="yes"/>
      <point x="286.0" y="751.0"/>
      <point x="203.0" y="646.0"/>
      <point x="203.0" y="500.0" type="curve" smooth="yes"/>
      <point x="203.0" y="261.0" type="line" smooth="yes"/>
      <point x="203.0" y="230.0"/>
      <point x="200.0" y="164.0"/>
      <point x="186.0" y="145.0" type="curve"/>
      <point x="114.0" y="143.0"/>
      <point x="56.0" y="110.0"/>
    </contour>
    <contour>
      <point x="117.0" y="350.0" type="line"/>
      <point x="511.0" y="350.0" type="line"/>
      <point x="511.0" y="438.0" type="line"/>
      <point x="117.0" y="438.0" type="line"/>
    </contour>
  </outline>
</glyph>
<glyph name="yen" format="2">
  <advance width="770.0"/>
  <unicode hex="00A5"/>
  <outline>
    <contour>
      <point x="314.0" y="0.0" type="line"/>
      <point x="456.0" y="0.0" type="line"/>
      <point x="456.0" y="413.0" type="line"/>
      <point x="425.0" y="303.0" type="line"/>
      <point x="702.0" y="743.0" type="line"/>
      <point x="543.0" y="743.0" type="line"/>
      <point x="418.0" y="539.0" type="line"/>
      <point x="370.0" y="436.0" type="line"/>
      <point x="381.0" y="436.0"/>
      <point x="391.0" y="436.0"/>
      <point x="402.0" y="436.0" type="curve"/>
      <point x="352.0" y="538.0" type="line"/>
      <point x="235.0" y="743.0" type="line"/>
      <point x="77.0" y="743.0" type="line"/>
      <point x="352.0" y="303.0" type="line"/>
      <point x="314.0" y="413.0" type="line"/>
    </contour>
    <contour>
      <point x="140.0" y="322.0" type="line"/>
      <point x="625.0" y="322.0" type="line"/>
      <point x="625.0" y="416.0" type="line"/>
      <point x="140.0" y="416.0" type="line"/>
    </contour>
    <contour>
      <point x="140.0" y="131.0" type="line"/>
      <point x="625.0" y="131.0" type="line"/>
      <point x="625.0" y="225.0" type="line"/>
      <point x="140.0" y="225.0" type="line"/>
    </contour>
  </outline>
</glyph>
<glyph name="dieresis" format="2">
  <advance width="476.0"/>
  <unicode hex="00A8"/>
  <anchor x="238.0" y="831.0" name="_top"/>
  <outline>
    <contour>
      <point x="115.0" y="640.0" type="curve" smooth="yes"/>
      <point x="166.0" y="640.0"/>
      <point x="205.0" y="680.0"/>
      <point x="205.0" y="730.0" type="curve" smooth="yes"/>
      <point x="205.0" y="777.0"/>
      <point x="178.0" y="812.0"/>
      <point x="125.0" y="812.0" type="curve" smooth="yes"/>
      <point x="75.0" y="812.0"/>
      <point x="34.0" y="771.0"/>
      <point x="34.0" y="722.0" type="curve" smooth="yes"/>
      <point x="34.0" y="674.0"/>
      <point x="66.0" y="640.0"/>
    </contour>
    <contour>
      <point x="352.0" y="640.0" type="curve" smooth="yes"/>
      <point x="403.0" y="640.0"/>
      <point x="441.0" y="680.0"/>
      <point x="441.0" y="730.0" type="curve" smooth="yes"/>
      <point x="441.0" y="777.0"/>
      <point x="415.0" y="812.0"/>
      <point x="361.0" y="812.0" type="curve" smooth="yes"/>
      <point x="312.0" y="812.0"/>
      <point x="271.0" y="771.0"/>
      <point x="271.0" y="722.0" type="curve" smooth="yes"/>
      <point x="271.0" y="674.0"/>
      <point x="303.0" y="640.0"/>
    </contour>
  </outline>
</glyph>
<glyph name="copyright" format="2">
  <advance width="1022.0"/>
  <unicode hex="00A9"/>
  <outline>
    <contour>
      <point x="86.0" y="470.0" type="curve" smooth="yes"/>
      <point x="86.0" y="232.0"/>
      <point x="273.0" y="40.0"/>
      <point x="511.0" y="40.0" type="curve" smooth="yes"/>
      <point x="748.0" y="40.0"/>
      <point x="936.0" y="232.0"/>
      <point x="936.0" y="470.0" type="curve" smooth="yes"/>
      <point x="936.0" y="708.0"/>
      <point x="748.0" y="898.0"/>
      <point x="511.0" y="898.0" type="curve" smooth="yes"/>
      <point x="273.0" y="898.0"/>
      <point x="86.0" y="708.0"/>
    </contour>
    <contour>
      <point x="155.0" y="470.0" type="curve" smooth="yes"/>
      <point x="155.0" y="672.0"/>
      <point x="306.0" y="837.0"/>
      <point x="511.0" y="837.0" type="curve" smooth="yes"/>
      <point x="715.0" y="837.0"/>
      <point x="866.0" y="672.0"/>
      <point x="866.0" y="470.0" type="curve" smooth="yes"/>
      <point x="866.0" y="268.0"/>
      <point x="715.0" y="103.0"/>
      <point x="511.0" y="103.0" type="curve" smooth="yes"/>
      <point x="306.0" y="103.0"/>
      <point x="155.0" y="268.0"/>
    </contour>
    <contour>
      <point x="295.0" y="464.0" type="curve" smooth="yes"/>
      <point x="295.0" y="337.0"/>
      <point x="379.0" y="232.0"/>
      <point x="512.0" y="232.0" type="curve" smooth="yes"/>
      <point x="577.0" y="232.0"/>
      <point x="641.0" y="257.0"/>
      <point x="672.0" y="283.0" type="curve"/>
      <point x="649.0" y="360.0" type="line"/>
      <point x="626.0" y="347.0"/>
      <point x="587.0" y="329.0"/>
      <point x="539.0" y="329.0" type="curve" smooth="yes"/>
      <point x="463.0" y="329.0"/>
      <point x="409.0" y="373.0"/>
      <point x="409.0" y="485.0" type="curve" smooth="yes"/>
      <point x="410.0" y="565.0"/>
      <point x="461.0" y="612.0"/>
      <point x="533.0" y="612.0" type="curve" smooth="yes"/>
      <point x="573.0" y="612.0"/>
      <point x="616.0" y="599.0"/>
      <point x="637.0" y="584.0" type="curve"/>
      <point x="659.0" y="685.0" type="line"/>
      <point x="639.0" y="696.0"/>
      <point x="592.0" y="708.0"/>
      <point x="537.0" y="708.0" type="curve" smooth="yes"/>
      <point x="379.0" y="708.0"/>
      <point x="294.0" y="603.0"/>
    </contour>
  </outline>
</glyph>
<glyph name="registered" format="2">
  <advance width="1022.0"/>
  <unicode hex="00AE"/>
  <outline>
    <contour>
      <point x="84.0" y="470.0" type="curve" smooth="yes"/>
      <point x="84.0" y="232.0"/>
      <point x="273.0" y="40.0"/>
      <point x="511.0" y="40.0" type="curve" smooth="yes"/>
      <point x="748.0" y="40.0"/>
      <point x="938.0" y="232.0"/>
      <point x="938.0" y="470.0" type="curve" smooth="yes"/>
      <point x="938.0" y="707.0"/>
      <point x="748.0" y="898.0"/>
      <point x="511.0" y="898.0" type="curve" smooth="yes"/>
      <point x="273.0" y="898.0"/>
      <point x="84.0" y="707.0"/>
    </contour>
    <contour>
      <point x="153.0" y="470.0" type="curve" smooth="yes"/>
      <point x="153.0" y="671.0"/>
      <point x="308.0" y="836.0"/>
      <point x="511.0" y="836.0" type="curve" smooth="yes"/>
      <point x="713.0" y="836.0"/>
      <point x="868.0" y="671.0"/>
      <point x="868.0" y="470.0" type="curve" smooth="yes"/>
      <point x="868.0" y="268.0"/>
      <point x="713.0" y="103.0"/>
      <point x="511.0" y="103.0" type="curve" smooth="yes"/>
      <point x="308.0" y="103.0"/>
      <point x="153.0" y="268.0"/>
    </contour>
    <contour>
      <point x="346.0" y="235.0" type="line"/>
      <point x="450.0" y="235.0" type="line"/>
      <point x="450.0" y="406.0" type="line"/>
      <point x="461.0" y="406.0"/>
      <point x="487.0" y="406.0"/>
      <point x="493.0" y="406.0" type="curve"/>
      <point x="543.0" y="388.0"/>
      <point x="559.0" y="317.0"/>
      <point x="579.0" y="277.0" type="curve" smooth="yes"/>
      <point x="588.0" y="260.0"/>
      <point x="593.0" y="246.0"/>
      <point x="604.0" y="235.0" type="curve"/>
      <point x="724.0" y="235.0" type="line"/>
      <point x="706.0" y="257.0"/>
      <point x="700.0" y="269.0"/>
      <point x="691.0" y="284.0" type="curve" smooth="yes"/>
      <point x="665.0" y="331.0"/>
      <point x="646.0" y="394.0"/>
      <point x="598.0" y="418.0" type="curve"/>
      <point x="669.0" y="440.0"/>
      <point x="690.0" y="503.0"/>
      <point x="690.0" y="573.0" type="curve" smooth="yes"/>
      <point x="690.0" y="651.0"/>
      <point x="634.0" y="708.0"/>
      <point x="517.0" y="708.0" type="curve" smooth="yes"/>
      <point x="453.0" y="708.0"/>
      <point x="426.0" y="705.0"/>
      <point x="390.0" y="705.0" type="curve" smooth="yes"/>
      <point x="375.0" y="705.0"/>
      <point x="361.0" y="705.0"/>
      <point x="346.0" y="705.0" type="curve"/>
    </contour>
    <contour>
      <point x="450.0" y="482.0" type="curve"/>
      <point x="450.0" y="624.0" type="line"/>
      <point x="467.0" y="630.0"/>
      <point x="480.0" y="629.0"/>
      <point x="498.0" y="629.0" type="curve" smooth="yes"/>
      <point x="562.0" y="630.0"/>
      <point x="583.0" y="604.0"/>
      <point x="583.0" y="559.0" type="curve" smooth="yes"/>
      <point x="583.0" y="506.0"/>
      <point x="558.0" y="479.0"/>
      <point x="507.0" y="479.0" type="curve" smooth="yes"/>
      <point x="489.0" y="479.0"/>
      <point x="464.0" y="479.0"/>
    </contour>
  </outline>
</glyph>
<glyph name="degree" format="2">
  <advance width="467.0"/>
  <unicode hex="00B0"/>
  <outline>
    <contour>
      <point x="58.0" y="624.0" type="curve" smooth="yes"/>
      <point x="58.0" y="526.0"/>
      <point x="136.0" y="450.0"/>
      <point x="233.0" y="450.0" type="curve" smooth="yes"/>
      <point x="334.0" y="450.0"/>
      <point x="409.0" y="523.0"/>
      <point x="409.0" y="624.0" type="curve" smooth="yes"/>
      <point x="409.0" y="722.0"/>
      <point x="332.0" y="798.0"/>
      <point x="233.0" y="798.0" type="curve" smooth="yes"/>
      <point x="133.0" y="798.0"/>
      <point x="58.0" y="724.0"/>
    </contour>
    <contour>
      <point x="149.0" y="624.0" type="curve" smooth="yes"/>
      <point x="149.0" y="675.0"/>
      <point x="186.0" y="712.0"/>
      <point x="233.0" y="712.0" type="curve" smooth="yes"/>
      <point x="280.0" y="712.0"/>
      <point x="318.0" y="674.0"/>
      <point x="318.0" y="624.0" type="curve" smooth="yes"/>
      <point x="318.0" y="573.0"/>
      <point x="281.0" y="536.0"/>
      <point x="233.0" y="536.0" type="curve" smooth="yes"/>
      <point x="187.0" y="536.0"/>
      <point x="149.0" y="574.0"/>
    </contour>
  </outline>
</glyph>
<glyph name="plusminus" format="2">
  <advance width="685.0"/>
  <unicode hex="00B1"/>
  <outline>
    <contour>
      <point x="119.0" y="0.0" type="line"/>
      <point x="563.0" y="0.0" type="line"/>
      <point x="563.0" y="97.0" type="line"/>
      <point x="119.0" y="97.0" type="line"/>
    </contour>
    <component base="plus"/>
  </outline>
</glyph>
<glyph name="micro" format="2">
  <advance width="686.0"/>
  <unicode hex="00B5"/>
  <outline>
    <contour>
      <point x="88.0" y="-181.0" type="line"/>
      <point x="226.0" y="-181.0" type="line"/>
      <point x="208.0" y="79.0" type="line"/>
      <point x="179.0" y="74.0" type="line"/>
      <point x="205.0" y="11.0"/>
      <point x="254.0" y="-8.0"/>
      <point x="326.0" y="-8.0" type="curve" smooth="yes"/>
      <point x="397.0" y="-8.0"/>
      <point x="436.0" y="31.0"/>
      <point x="455.0" y="59.0" type="curve"/>
      <point x="457.0" y="11.0"/>
      <point x="485.0" y="-9.0"/>
      <point x="529.0" y="-9.0" type="curve" smooth="yes"/>
      <point x="598.0" y="-9.0"/>
      <point x="646.0" y="32.0"/>
      <point x="653.0" y="42.0" type="curve"/>
      <point x="638.0" y="113.0" type="line"/>
      <point x="620.0" y="103.0"/>
      <point x="604.0" y="100.0"/>
      <point x="598.0" y="100.0" type="curve" smooth="yes"/>
      <point x="587.0" y="100.0"/>
      <point x="577.0" y="107.0"/>
      <point x="577.0" y="137.0" type="curve" smooth="yes"/>
      <point x="577.0" y="557.0" type="line"/>
      <point x="424.0" y="557.0" type="line"/>
      <point x="424.0" y="146.0" type="line"/>
      <point x="403.0" y="128.0"/>
      <point x="369.0" y="113.0"/>
      <point x="340.0" y="113.0" type="curve" smooth="yes"/>
      <point x="268.0" y="113.0"/>
      <point x="241.0" y="147.0"/>
      <point x="241.0" y="236.0" type="curve" smooth="yes"/>
      <point x="241.0" y="557.0" type="line"/>
      <point x="88.0" y="557.0" type="line"/>
    </contour>
  </outline>
</glyph>
<glyph name="paragraph" format="2">
  <advance width="688.0"/>
  <unicode hex="00B6"/>
  <outline>
    <contour>
      <point x="242.0" y="0.0" type="line"/>
      <point x="365.0" y="0.0" type="line"/>
      <point x="365.0" y="743.0" type="line"/>
      <point x="464.0" y="743.0" type="line"/>
      <point x="464.0" y="0.0" type="line"/>
      <point x="587.0" y="0.0" type="line"/>
      <point x="587.0" y="826.0" type="line"/>
      <point x="524.0" y="827.0"/>
      <point x="373.0" y="835.0"/>
      <point x="321.0" y="835.0" type="curve" smooth="yes"/>
      <point x="126.0" y="835.0"/>
      <point x="30.0" y="755.0"/>
      <point x="30.0" y="609.0" type="curve" smooth="yes"/>
      <point x="30.0" y="447.0"/>
      <point x="108.0" y="379.0"/>
      <point x="242.0" y="379.0" type="curve"/>
    </contour>
  </outline>
</glyph>
<glyph name="guillemetright" format="2">
  <advance width="976.0"/>
  <unicode hex="00BB"/>
  <outline>
    <contour>
      <point x="473.0" y="240.0" type="line"/>
      <point x="473.0" y="359.0" type="line"/>
      <point x="153.0" y="565.0" type="line"/>
      <point x="116.0" y="459.0" type="line"/>
      <point x="362.0" y="273.0" type="line"/>
      <point x="362.0" y="327.0" type="line"/>
      <point x="116.0" y="142.0" type="line"/>
      <point x="153.0" y="37.0" type="line"/>
    </contour>
    <contour>
      <point x="856.0" y="240.0" type="line"/>
      <point x="856.0" y="359.0" type="line"/>
      <point x="546.0" y="565.0" type="line"/>
      <point x="509.0" y="459.0" type="line"/>
      <point x="745.0" y="273.0" type="line"/>
      <point x="745.0" y="327.0" type="line"/>
      <point x="509.0" y="142.0" type="line"/>
      <point x="546.0" y="37.0" type="line"/>
    </contour>
  </outline>
</glyph>
<glyph name="questiondown" format="2">
  <advance width="516.0"/>
  <unicode hex="00BF"/>
  <outline>
    <contour>
      <point x="346.0" y="497.0" type="curve"/>
      <point x="230.0" y="497.0" type="line"/>
      <point x="242.0" y="454.0"/>
      <point x="251.0" y="433.0"/>
      <point x="248.0" y="397.0" type="curve" smooth="yes"/>
      <point x="238.0" y="267.0"/>
      <point x="30.0" y="244.0"/>
      <point x="30.0" y="63.0" type="curve" smooth="yes"/>
      <point x="27.0" y="-49.0"/>
      <point x="99.0" y="-157.0"/>
      <point x="318.0" y="-157.0" type="curve" smooth="yes"/>
      <point x="380.0" y="-157.0"/>
      <point x="430.0" y="-145.0"/>
      <point x="449.0" y="-133.0" type="curve"/>
      <point x="449.0" y="-20.0" type="line"/>
      <point x="434.0" y="-24.0"/>
      <point x="409.0" y="-33.0"/>
      <point x="349.0" y="-33.0" type="curve" smooth="yes"/>
      <point x="240.0" y="-33.0"/>
      <point x="190.0" y="1.0"/>
      <point x="190.0" y="70.0" type="curve" smooth="yes"/>
      <point x="190.0" y="199.0"/>
      <point x="386.0" y="214.0"/>
      <point x="385.0" y="366.0" type="curve" smooth="yes"/>
      <point x="384.0" y="430.0"/>
      <point x="365.0" y="470.0"/>
    </contour>
    <contour>
      <point x="276.0" y="755.0" type="curve" smooth="yes"/>
      <point x="225.0" y="755.0"/>
      <point x="182.0" y="711.0"/>
      <point x="182.0" y="660.0" type="curve" smooth="yes"/>
      <point x="183.0" y="612.0"/>
      <point x="216.0" y="575.0"/>
      <point x="268.0" y="575.0" type="curve" smooth="yes"/>
      <point x="318.0" y="575.0"/>
      <point x="363.0" y="618.0"/>
      <point x="362.0" y="669.0" type="curve" smooth="yes"/>
      <point x="361.0" y="718.0"/>
      <point x="323.0" y="755.0"/>
    </contour>
  </outline>
</glyph>
<glyph name="AE" format="2">
  <advance width="947.0"/>
  <unicode hex="00C6"/>
  <anchor x="474.0" y="0.0" name="bottom"/>
  <anchor x="686.0" y="-83.0" name="btm"/>
  <anchor x="511.0" y="830.0" name="top"/>
  <outline>
    <contour>
      <point x="-54.0" y="0.0" type="line"/>
      <point x="114.0" y="0.0" type="line"/>
      <point x="440.0" y="689.0" type="line"/>
      <point x="320.0" y="743.0" type="line"/>
    </contour>
    <contour>
      <point x="420.0" y="743.0" type="line"/>
      <point x="320.0" y="743.0" type="line"/>
      <point x="335.0" y="672.0" type="line"/>
      <point x="448.0" y="672.0" type="line"/>
    </contour>
    <contour>
      <point x="124.0" y="184.0" type="line"/>
      <point x="485.0" y="184.0" type="line"/>
      <point x="485.0" y="292.0" type="line"/>
      <point x="149.0" y="292.0" type="line"/>
    </contour>
    <contour>
      <point x="420.0" y="0.0" type="line"/>
      <point x="905.0" y="0.0" type="line"/>
      <point x="905.0" y="123.0" type="line"/>
      <point x="575.0" y="123.0" type="line"/>
      <point x="575.0" y="324.0" type="line"/>
      <point x="804.0" y="324.0" type="line"/>
      <point x="804.0" y="441.0" type="line"/>
      <point x="575.0" y="441.0" type="line"/>
      <point x="575.0" y="624.0" type="line"/>
      <point x="873.0" y="624.0" type="line"/>
      <point x="873.0" y="743.0" type="line"/>
      <point x="420.0" y="743.0" type="line"/>
    </contour>
  </outline>
</glyph>
<glyph name="multiply" format="2">
  <advance width="674.0"/>
  <unicode hex="00D7"/>
  <outline>
    <contour>
      <point x="82.0" y="199.0" type="line"/>
      <point x="166.0" y="116.0" type="line"/>
      <point x="337.0" y="295.0" type="line"/>
      <point x="508.0" y="116.0" type="line"/>
      <point x="592.0" y="199.0" type="line"/>
      <point x="418.0" y="379.0" type="line"/>
      <point x="593.0" y="566.0" type="line"/>
      <point x="510.0" y="645.0" type="line"/>
      <point x="338.0" y="460.0" type="line"/>
      <point x="166.0" y="645.0" type="line"/>
      <point x="82.0" y="566.0" type="line"/>
      <point x="257.0" y="379.0" type="line"/>
    </contour>
  </outline>
</glyph>
<glyph name="Oslash" format="2">
  <advance width="779.0"/>
  <unicode hex="00D8"/>
  <anchor x="390.0" y="0.0" name="bottom"/>
  <anchor x="382.0" y="830.0" name="top"/>
  <outline>
    <contour>
      <point x="176.0" y="-107.0" type="line"/>
      <point x="661.0" y="854.0" type="line"/>
      <point x="603.0" y="870.0" type="line"/>
      <point x="117.0" y="-92.0" type="line"/>
    </contour>
    <contour>
      <point x="386.0" y="-8.0" type="curve" smooth="yes"/>
      <point x="584.0" y="-4.0"/>
      <point x="726.0" y="116.0"/>
      <point x="731.0" y="373.0" type="curve" smooth="yes"/>
      <point x="735.0" y="602.0"/>
      <point x="606.0" y="757.0"/>
      <point x="401.0" y="751.0" type="curve" smooth="yes"/>
      <point x="200.0" y="745.0"/>
      <point x="53.0" y="633.0"/>
      <point x="48.0" y="375.0" type="curve" smooth="yes"/>
      <point x="43.0" y="147.0"/>
      <point x="172.0" y="-12.0"/>
    </contour>
    <contour>
      <point x="390.0" y="108.0" type="curve" smooth="yes"/>
      <point x="268.0" y="108.0"/>
      <point x="208.0" y="224.0"/>
      <point x="208.0" y="370.0" type="curve" smooth="yes"/>
      <point x="208.0" y="561.0"/>
      <point x="294.0" y="633.0"/>
      <point x="397.0" y="633.0" type="curve" smooth="yes"/>
      <point x="514.0" y="633.0"/>
      <point x="570.0" y="523.0"/>
      <point x="570.0" y="377.0" type="curve" smooth="yes"/>
      <point x="570.0" y="191.0"/>
      <point x="500.0" y="108.0"/>
    </contour>
  </outline>
</glyph>
<glyph name="Thorn" format="2">
  <advance width="664.0"/>
  <unicode hex="00DE"/>
  <anchor x="332.0" y="0.0" name="bottom"/>
  <anchor x="332.0" y="743.0" name="top"/>
  <outline>
    <contour>
      <point x="343.0" y="125.0" type="curve" smooth="yes"/>
      <point x="526.0" y="125.0"/>
      <point x="626.0" y="225.0"/>
      <point x="626.0" y="393.0" type="curve" smooth="yes"/>
      <point x="626.0" y="555.0"/>
      <point x="525.0" y="628.0"/>
      <point x="366.0" y="628.0" type="curve" smooth="yes"/>
      <point x="313.0" y="628.0"/>
      <point x="263.0" y="623.0"/>
      <point x="222.0" y="621.0" type="curve"/>
      <point x="240.0" y="500.0" type="line"/>
      <point x="264.0" y="507.0"/>
      <point x="296.0" y="510.0"/>
      <point x="322.0" y="511.0" type="curve" smooth="yes"/>
      <point x="419.0" y="515.0"/>
      <point x="472.0" y="473.0"/>
      <point x="472.0" y="392.0" type="curve" smooth="yes"/>
      <point x="472.0" y="266.0"/>
      <point x="403.0" y="244.0"/>
      <point x="323.0" y="244.0" type="curve" smooth="yes"/>
      <point x="299.0" y="244.0"/>
      <point x="269.0" y="244.0"/>
      <point x="241.0" y="250.0" type="curve"/>
      <point x="241.0" y="130.0" type="line"/>
      <point x="260.0" y="129.0"/>
      <point x="292.0" y="125.0"/>
    </contour>
    <contour>
      <point x="92.0" y="0.0" type="line"/>
      <point x="247.0" y="0.0" type="line"/>
      <point x="247.0" y="743.0" type="line"/>
      <point x="92.0" y="743.0" type="line"/>
    </contour>
  </outline>
</glyph>
<glyph name="germandbls" format="2">
  <advance width="681.0"/>
  <unicode hex="00DF"/>
  <anchor x="341.0" y="0.0" name="bottom"/>
  <anchor x="341.0" y="557.0" name="top"/>
  <outline>
    <contour>
      <point x="94.0" y="0.0" type="line"/>
      <point x="249.0" y="0.0" type="line"/>
      <point x="249.0" y="464.0" type="line" smooth="yes"/>
      <point x="249.0" y="620.0"/>
      <point x="297.0" y="670.0"/>
      <point x="371.0" y="670.0" type="curve" smooth="yes"/>
      <point x="421.0" y="670.0"/>
      <point x="450.0" y="644.0"/>
      <point x="450.0" y="597.0" type="curve" smooth="yes"/>
      <point x="450.0" y="517.0"/>
      <point x="356.0" y="500.0"/>
      <point x="356.0" y="409.0" type="curve" smooth="yes"/>
      <point x="356.0" y="277.0"/>
      <point x="500.0" y="258.0"/>
      <point x="500.0" y="158.0" type="curve" smooth="yes"/>
      <point x="500.0" y="110.0"/>
      <point x="453.0" y="96.0"/>
      <point x="420.0" y="96.0" type="curve" smooth="yes"/>
      <point x="378.0" y="96.0"/>
      <point x="345.0" y="109.0"/>
      <point x="332.0" y="117.0" type="curve"/>
      <point x="332.0" y="8.0" type="line"/>
      <point x="348.0" y="0.0"/>
      <point x="393.0" y="-8.0"/>
      <point x="447.0" y="-8.0" type="curve" smooth="yes"/>
      <point x="551.0" y="-8.0"/>
      <point x="655.0" y="31.0"/>
      <point x="655.0" y="166.0" type="curve" smooth="yes"/>
      <point x="655.0" y="332.0"/>
      <point x="487.0" y="358.0"/>
      <point x="487.0" y="434.0" type="curve" smooth="yes"/>
      <point x="487.0" y="494.0"/>
      <point x="608.0" y="506.0"/>
      <point x="608.0" y="619.0" type="curve" smooth="yes"/>
      <point x="608.0" y="711.0"/>
      <point x="524.0" y="771.0"/>
      <point x="393.0" y="771.0" type="curve" smooth="yes"/>
      <point x="228.0" y="771.0"/>
      <point x="94.0" y="687.0"/>
      <point x="94.0" y="477.0" type="curve" smooth="yes"/>
    </contour>
    <contour>
      <point x="26.0" y="451.0" type="line"/>
      <point x="97.0" y="451.0" type="line"/>
      <point x="122.0" y="507.0" type="line"/>
      <point x="108.0" y="562.0" type="line"/>
      <point x="26.0" y="546.0" type="line"/>
    </contour>
  </outline>
</glyph>
<glyph name="ae" format="2">
  <advance width="904.0"/>
  <unicode hex="00E6"/>
  <anchor x="452.0" y="0.0" name="bottom"/>
  <anchor x="459.0" y="830.0" name="top"/>
  <outline>
    <contour>
      <point x="632.0" y="-8.0" type="curve" smooth="yes"/>
      <point x="718.0" y="-8.0"/>
      <point x="802.0" y="18.0"/>
      <point x="838.0" y="48.0" type="curve"/>
      <point x="813.0" y="134.0" type="line"/>
      <point x="784.0" y="118.0"/>
      <point x="710.0" y="105.0"/>
      <point x="670.0" y="105.0" type="curve" smooth="yes"/>
      <point x="582.0" y="105.0"/>
      <point x="524.0" y="150.0"/>
      <point x="521.0" y="251.0" type="curve"/>
      <point x="519.0" y="410.0"/>
      <point x="562.0" y="456.0"/>
      <point x="630.0" y="456.0" type="curve" smooth="yes"/>
      <point x="699.0" y="456.0"/>
      <point x="720.0" y="408.0"/>
      <point x="715.0" y="326.0" type="curve"/>
      <point x="460.0" y="326.0" type="line"/>
      <point x="451.0" y="242.0" type="line"/>
      <point x="851.0" y="242.0" type="line"/>
      <point x="855.0" y="267.0"/>
      <point x="856.0" y="304.0"/>
      <point x="856.0" y="346.0" type="curve"/>
      <point x="854.0" y="508.0"/>
      <point x="750.0" y="565.0"/>
      <point x="635.0" y="564.0" type="curve" smooth="yes"/>
      <point x="464.0" y="563.0"/>
      <point x="369.0" y="442.0"/>
      <point x="369.0" y="280.0" type="curve" smooth="yes"/>
      <point x="369.0" y="100.0"/>
      <point x="462.0" y="-8.0"/>
    </contour>
    <contour>
      <point x="50.0" y="161.0" type="curve" smooth="yes"/>
      <point x="50.0" y="49.0"/>
      <point x="132.0" y="-8.0"/>
      <point x="232.0" y="-8.0" type="curve" smooth="yes"/>
      <point x="307.0" y="-8.0"/>
      <point x="379.0" y="15.0"/>
      <point x="438.0" y="88.0" type="curve"/>
      <point x="427.0" y="125.0" type="line"/>
      <point x="395.0" y="150.0" type="line"/>
      <point x="378.0" y="125.0"/>
      <point x="330.0" y="95.0"/>
      <point x="284.0" y="95.0" type="curve" smooth="yes"/>
      <point x="240.0" y="95.0"/>
      <point x="206.0" y="119.0"/>
      <point x="206.0" y="169.0" type="curve" smooth="yes"/>
      <point x="206.0" y="217.0"/>
      <point x="234.0" y="229.0"/>
      <point x="258.0" y="239.0" type="curve" smooth="yes"/>
      <point x="282.0" y="250.0"/>
      <point x="323.0" y="259.0"/>
      <point x="371.0" y="259.0" type="curve"/>
      <point x="392.0" y="312.0" type="line"/>
      <point x="367.0" y="345.0" type="line"/>
      <point x="302.0" y="345.0"/>
      <point x="211.0" y="336.0"/>
      <point x="154.0" y="311.0" type="curve" smooth="yes"/>
      <point x="91.0" y="283.0"/>
      <point x="50.0" y="231.0"/>
    </contour>
    <contour>
      <point x="111.0" y="412.0" type="line"/>
      <point x="138.0" y="427.0"/>
      <point x="214.0" y="451.0"/>
      <point x="271.0" y="451.0" type="curve" smooth="yes"/>
      <point x="341.0" y="451.0"/>
      <point x="367.0" y="432.0"/>
      <point x="367.0" y="375.0" type="curve" smooth="yes"/>
      <point x="367.0" y="291.0" type="line"/>
      <point x="503.0" y="291.0" type="line"/>
      <point x="503.0" y="364.0" type="line" smooth="yes"/>
      <point x="503.0" y="525.0"/>
      <point x="442.0" y="567.0"/>
      <point x="306.0" y="567.0" type="curve" smooth="yes"/>
      <point x="193.0" y="567.0"/>
      <point x="99.0" y="521.0"/>
      <point x="78.0" y="509.0" type="curve"/>
    </contour>
  </outline>
</glyph>
<glyph name="oslash" format="2">
  <advance width="636.0"/>
  <unicode hex="00F8"/>
  <anchor x="322.0" y="830.0" name="top"/>
  <outline>
    <contour>
      <point x="152.0" y="-92.0" type="line"/>
      <point x="213.0" y="-107.0" type="line"/>
      <point x="482.0" y="652.0" type="line"/>
      <point x="421.0" y="667.0" type="line"/>
    </contour>
    <contour>
      <point x="313.0" y="-8.0" type="curve" smooth="yes"/>
      <point x="471.0" y="-8.0"/>
      <point x="586.0" y="88.0"/>
      <point x="589.0" y="267.0" type="curve" smooth="yes"/>
      <point x="591.0" y="425.0"/>
      <point x="520.0" y="564.0"/>
      <point x="323.0" y="564.0" type="curve" smooth="yes"/>
      <point x="165.0" y="564.0"/>
      <point x="50.0" y="469.0"/>
      <point x="47.0" y="290.0" type="curve"/>
      <point x="45.0" y="131.0"/>
      <point x="117.0" y="-8.0"/>
    </contour>
    <contour>
      <point x="316.0" y="100.0" type="curve" smooth="yes"/>
      <point x="237.0" y="101.0"/>
      <point x="205.0" y="189.0"/>
      <point x="205.0" y="286.0" type="curve" smooth="yes"/>
      <point x="205.0" y="394.0"/>
      <point x="239.0" y="457.0"/>
      <point x="320.0" y="456.0" type="curve"/>
      <point x="400.0" y="455.0"/>
      <point x="431.0" y="369.0"/>
      <point x="431.0" y="274.0" type="curve" smooth="yes"/>
      <point x="431.0" y="162.0"/>
      <point x="397.0" y="99.0"/>
    </contour>
  </outline>
</glyph>
<glyph name="kgreenlandic" format="2">
  <advance width="606.0"/>
  <unicode hex="0138"/>
  <anchor x="303.0" y="0.0" name="bottom"/>
  <anchor x="303.0" y="557.0" name="top"/>
  <outline>
    <contour>
      <point x="598.0" y="557.0" type="line"/>
      <point x="427.0" y="557.0" type="line"/>
      <point x="209.0" y="273.0" type="line"/>
      <point x="232.0" y="259.0" type="line"/>
      <point x="237.0" y="380.0" type="line"/>
      <point x="237.0" y="557.0" type="line"/>
      <point x="85.0" y="557.0" type="line"/>
      <point x="85.0" y="0.0" type="line"/>
      <point x="237.0" y="0.0" type="line"/>
      <point x="237.0" y="78.0" type="line"/>
      <point x="236.0" y="162.0" type="line"/>
      <point x="228.0" y="129.0" type="line"/>
    </contour>
    <contour>
      <point x="286.0" y="236.0" type="line"/>
      <point x="440.0" y="0.0" type="line"/>
      <point x="614.0" y="0.0" type="line"/>
      <point x="387.0" y="341.0" type="line"/>
    </contour>
  </outline>
</glyph>
<glyph name="lslash" format="2">
  <advance width="328.0"/>
  <unicode hex="0142"/>
  <anchor x="156.0" y="0.0" name="bottom"/>
  <anchor x="155.0" y="-83.0" name="btm"/>
  <anchor x="156.0" y="492.0" name="center"/>
  <anchor x="156.0" y="891.0" name="top"/>
  <anchor x="292.0" y="983.0" name="topright"/>
  <outline>
    <contour>
      <point x="9.0" y="347.0" type="line"/>
      <point x="328.0" y="464.0" type="line"/>
      <point x="328.0" y="565.0" type="line"/>
      <point x="9.0" y="442.0" type="line"/>
    </contour>
    <component base="l"/>
  </outline>
</glyph>
<glyph name="eng" format="2">
  <advance width="660.0"/>
  <unicode hex="014B"/>
  <outline>
    <contour>
      <point x="85.0" y="0.0" type="line"/>
      <point x="237.0" y="0.0" type="line"/>
      <point x="237.0" y="397.0" type="line"/>
      <point x="271.0" y="427.0"/>
      <point x="320.0" y="441.0"/>
      <point x="348.0" y="442.0" type="curve" smooth="yes"/>
      <point x="411.0" y="444.0"/>
      <point x="429.0" y="412.0"/>
      <point x="429.0" y="321.0" type="curve" smooth="yes"/>
      <point x="429.0" y="-22.0" type="line" smooth="yes"/>
      <point x="429.0" y="-134.0"/>
      <point x="410.0" y="-150.0"/>
      <point x="366.0" y="-150.0" type="curve" smooth="yes"/>
      <point x="354.0" y="-150.0"/>
      <point x="323.0" y="-148.0"/>
      <point x="313.0" y="-145.0" type="curve"/>
      <point x="313.0" y="-241.0" type="line"/>
      <point x="332.0" y="-245.0"/>
      <point x="377.0" y="-248.0"/>
      <point x="410.0" y="-248.0" type="curve" smooth="yes"/>
      <point x="505.0" y="-248.0"/>
      <point x="581.0" y="-184.0"/>
      <point x="581.0" y="-15.0" type="curve" smooth="yes"/>
      <point x="581.0" y="350.0" type="line" smooth="yes"/>
      <point x="581.0" y="513.0"/>
      <point x="525.0" y="570.0"/>
      <point x="407.0" y="566.0" type="curve"/>
      <point x="339.0" y="564.0"/>
      <point x="264.0" y="525.0"/>
      <point x="226.0" y="497.0" type="curve"/>
      <point x="223.0" y="556.0" type="line"/>
      <point x="85.0" y="556.0" type="line"/>
    </contour>
  </outline>
</glyph>
<glyph name="florin" format="2">
  <advance width="576.0"/>
  <unicode hex="0192"/>
  <outline>
    <contour>
      <point x="133.0" y="-174.0" type="line"/>
      <point x="287.0" y="-174.0" type="line"/>
      <point x="340.0" y="451.0" type="line"/>
      <point x="475.0" y="451.0" type="line"/>
      <point x="483.0" y="557.0" type="line"/>
      <point x="349.0" y="557.0" type="line"/>
      <point x="354.0" y="600.0" type="line" smooth="yes"/>
      <point x="362.0" y="680.0"/>
      <point x="400.0" y="711.0"/>
      <point x="450.0" y="711.0" type="curve" smooth="yes"/>
      <point x="490.0" y="711.0"/>
      <point x="516.0" y="707.0"/>
      <point x="527.0" y="700.0" type="curve"/>
      <point x="536.0" y="812.0" type="line"/>
      <point x="526.0" y="816.0"/>
      <point x="490.0" y="822.0"/>
      <point x="446.0" y="822.0" type="curve" smooth="yes"/>
      <point x="331.0" y="822.0"/>
      <point x="218.0" y="767.0"/>
      <point x="200.0" y="597.0" type="curve" smooth="yes"/>
      <point x="196.0" y="557.0" type="line"/>
      <point x="108.0" y="538.0" type="line"/>
      <point x="102.0" y="451.0" type="line"/>
      <point x="188.0" y="451.0" type="line"/>
    </contour>
  </outline>
</glyph>
<glyph name="Ezh" format="2">
  <advance width="557.0"/>
  <unicode hex="01B7"/>
  <anchor x="279.0" y="0.0" name="bottom"/>
  <anchor x="271.0" y="830.0" name="top"/>
  <outline>
    <contour>
      <point x="167.0" y="-7.0" type="curve" smooth="yes"/>
      <point x="396.0" y="-7.0"/>
      <point x="486.0" y="107.0"/>
      <point x="486.0" y="245.0" type="curve" smooth="yes"/>
      <point x="486.0" y="331.0"/>
      <point x="432.0" y="414.0"/>
      <point x="283.0" y="424.0" type="curve"/>
      <point x="476.0" y="633.0" type="line"/>
      <point x="478.0" y="743.0" type="line"/>
      <point x="55.0" y="743.0" type="line"/>
      <point x="55.0" y="624.0" type="line"/>
      <point x="339.0" y="624.0" type="line"/>
      <point x="298.0" y="589.0" type="line"/>
      <point x="160.0" y="442.0" type="line"/>
      <point x="165.0" y="338.0" type="line"/>
      <point x="200.0" y="361.0" type="line"/>
      <point x="267.0" y="363.0"/>
      <point x="334.0" y="322.0"/>
      <point x="334.0" y="240.0" type="curve" smooth="yes"/>
      <point x="334.0" y="155.0"/>
      <point x="293.0" y="99.0"/>
      <point x="148.0" y="99.0" type="curve" smooth="yes"/>
      <point x="127.0" y="99.0"/>
      <point x="101.0" y="101.0"/>
      <point x="73.0" y="104.0" type="curve"/>
      <point x="74.0" y="-1.0" type="line"/>
      <point x="110.0" y="-4.0"/>
      <point x="140.0" y="-7.0"/>
    </contour>
  </outline>
</glyph>
<glyph name="schwa" format="2">
  <advance width="581.0"/>
  <unicode hex="0259"/>
  <anchor x="271.43" y="-273.566" name="bottom"/>
  <anchor x="272.0" y="-83.0" name="btm"/>
  <anchor x="273.0" y="831.0" name="top"/>
  <outline>
    <contour>
      <point x="272.0" y="565.0" type="curve" smooth="yes"/>
      <point x="185.0" y="565.0"/>
      <point x="102.0" y="539.0"/>
      <point x="65.0" y="509.0" type="curve"/>
      <point x="90.0" y="423.0" type="line"/>
      <point x="120.0" y="439.0"/>
      <point x="194.0" y="452.0"/>
      <point x="233.0" y="452.0" type="curve" smooth="yes"/>
      <point x="322.0" y="452.0"/>
      <point x="379.0" y="407.0"/>
      <point x="382.0" y="306.0" type="curve" smooth="yes"/>
      <point x="385.0" y="147.0"/>
      <point x="342.0" y="101.0"/>
      <point x="273.0" y="101.0" type="curve" smooth="yes"/>
      <point x="205.0" y="101.0"/>
      <point x="184.0" y="149.0"/>
      <point x="189.0" y="231.0" type="curve"/>
      <point x="443.0" y="231.0" type="line"/>
      <point x="453.0" y="315.0" type="line"/>
      <point x="53.0" y="315.0" type="line"/>
      <point x="49.0" y="290.0"/>
      <point x="47.0" y="253.0"/>
      <point x="47.0" y="211.0" type="curve" smooth="yes"/>
      <point x="49.0" y="49.0"/>
      <point x="153.0" y="-8.0"/>
      <point x="268.0" y="-7.0" type="curve" smooth="yes"/>
      <point x="439.0" y="-6.0"/>
      <point x="535.0" y="115.0"/>
      <point x="535.0" y="277.0" type="curve" smooth="yes"/>
      <point x="535.0" y="457.0"/>
      <point x="442.0" y="565.0"/>
    </contour>
  </outline>
</glyph>
<glyph name="ezh" format="2">
  <advance width="479.0"/>
  <unicode hex="0292"/>
  <anchor x="240.0" y="0.0" name="bottom"/>
  <anchor x="226.0" y="831.0" name="top"/>
  <outline>
    <contour>
      <point x="144.0" y="-147.0" type="curve" smooth="yes"/>
      <point x="366.0" y="-147.0"/>
      <point x="439.0" y="-29.0"/>
      <point x="439.0" y="96.0" type="curve" smooth="yes"/>
      <point x="439.0" y="180.0"/>
      <point x="345.0" y="251.0"/>
      <point x="240.0" y="251.0" type="curve"/>
      <point x="422.0" y="518.0" type="line"/>
      <point x="397.0" y="557.0" type="line"/>
      <point x="40.0" y="557.0" type="line"/>
      <point x="40.0" y="454.0" type="line"/>
      <point x="258.0" y="454.0" type="line"/>
      <point x="211.0" y="403.0" type="line"/>
      <point x="107.0" y="233.0" type="line"/>
      <point x="160.0" y="180.0" type="line"/>
      <point x="243.0" y="180.0"/>
      <point x="288.0" y="144.0"/>
      <point x="288.0" y="90.0" type="curve" smooth="yes"/>
      <point x="288.0" y="14.0"/>
      <point x="259.0" y="-47.0"/>
      <point x="123.0" y="-47.0" type="curve" smooth="yes"/>
      <point x="90.0" y="-47.0"/>
      <point x="69.0" y="-43.0"/>
      <point x="40.0" y="-38.0" type="curve"/>
      <point x="40.0" y="-141.0" type="line"/>
      <point x="73.0" y="-142.0"/>
      <point x="109.0" y="-147.0"/>
    </contour>
  </outline>
</glyph>
<glyph name="apostrophemod" format="2">
  <advance width="293.0"/>
  <unicode hex="02BC"/>
  <outline>
    <contour>
      <point x="119.0" y="459.0" type="line"/>
      <point x="151.0" y="483.0"/>
      <point x="219.0" y="561.0"/>
      <point x="219.0" y="679.0" type="curve" smooth="yes"/>
      <point x="219.0" y="769.0"/>
      <point x="176.0" y="831.0"/>
      <point x="128.0" y="848.0" type="curve"/>
      <point x="46.0" y="787.0" type="line"/>
      <point x="46.0" y="752.0" type="line"/>
      <point x="65.0" y="742.0"/>
      <point x="89.0" y="699.0"/>
      <point x="89.0" y="644.0" type="curve" smooth="yes"/>
      <point x="89.0" y="599.0"/>
      <point x="77.0" y="538.0"/>
      <point x="56.0" y="513.0" type="curve"/>
      <point x="56.0" y="500.0" type="line"/>
    </contour>
  </outline>
</glyph>
<glyph name="ringhalfleft" format="2">
  <unicode hex="02BF"/>
  <anchor x="0.0" y="830.0" name="_top"/>
  <outline>
    <contour>
      <point x="0.0" y="642.0" type="curve"/>
      <point x="0.0" y="716.0" type="line"/>
      <point x="-46.0" y="717.0"/>
      <point x="-78.0" y="744.0"/>
      <point x="-78.0" y="785.0" type="curve" smooth="yes"/>
      <point x="-78.0" y="835.0"/>
      <point x="-41.0" y="851.0"/>
      <point x="0.0" y="851.0" type="curve"/>
      <point x="0.0" y="922.0" type="line"/>
      <point x="-81.0" y="922.0"/>
      <point x="-166.0" y="884.0"/>
      <point x="-167.0" y="785.0" type="curve" smooth="yes"/>
      <point x="-168.0" y="693.0"/>
      <point x="-103.0" y="642.0"/>
    </contour>
  </outline>
</glyph>
<glyph name="caron" format="2">
  <advance width="407.0"/>
  <unicode hex="02C7"/>
  <anchor x="216.0" y="824.0" name="_top"/>
  <outline>
    <contour>
      <point x="21.0" y="786.0" type="line"/>
      <point x="161.0" y="604.0" type="line"/>
      <point x="270.0" y="604.0" type="line"/>
      <point x="408.0" y="786.0" type="line"/>
      <point x="329.0" y="830.0" type="line"/>
      <point x="215.0" y="709.0" type="line"/>
      <point x="97.0" y="830.0" type="line"/>
    </contour>
  </outline>
</glyph>
<glyph name="verticallinemod" format="2">
  <unicode hex="02C8"/>
  <outline>
    <contour>
      <point x="56.0" y="1040.0" type="line"/>
      <point x="-56.0" y="1040.0" type="line"/>
      <point x="-34.0" y="646.0" type="line"/>
      <point x="32.0" y="646.0" type="line"/>
    </contour>
  </outline>
</glyph>
<glyph name="secondtonechinese" format="2">
  <unicode hex="02CA"/>
  <anchor x="1.0" y="831.0" name="_top"/>
  <anchor x="0.0" y="983.0" name="top"/>
  <outline>
    <contour>
      <point x="9.0" y="611.0" type="line"/>
      <point x="48.0" y="628.0"/>
      <point x="178.0" y="731.0"/>
      <point x="207.0" y="798.0" type="curve"/>
      <point x="102.0" y="883.0" type="line"/>
      <point x="53.0" y="802.0"/>
      <point x="-9.0" y="730.0"/>
      <point x="-64.0" y="678.0" type="curve"/>
    </contour>
  </outline>
</glyph>
<glyph name="verticallinelowmod" format="2">
  <unicode hex="02CC"/>
  <outline>
    <contour>
      <point x="56.0" y="95.0" type="line"/>
      <point x="-56.0" y="95.0" type="line"/>
      <point x="-34.0" y="-299.0" type="line"/>
      <point x="32.0" y="-299.0" type="line"/>
    </contour>
  </outline>
</glyph>
<glyph name="dotaccent" format="2">
  <advance width="239.0"/>
  <unicode hex="02D9"/>
  <anchor x="122.0" y="831.0" name="_top"/>
  <outline>
    <contour>
      <point x="115.0" y="638.0" type="curve" smooth="yes"/>
      <point x="167.0" y="638.0"/>
      <point x="212.0" y="680.0"/>
      <point x="212.0" y="730.0" type="curve" smooth="yes"/>
      <point x="212.0" y="778.0"/>
      <point x="178.0" y="813.0"/>
      <point x="124.0" y="813.0" type="curve" smooth="yes"/>
      <point x="73.0" y="813.0"/>
      <point x="27.0" y="771.0"/>
      <point x="27.0" y="722.0" type="curve" smooth="yes"/>
      <point x="27.0" y="673.0"/>
      <point x="65.0" y="638.0"/>
    </contour>
  </outline>
</glyph>
<glyph name="gravecomb" format="2">
  <unicode hex="0300"/>
  <anchor x="0.0" y="831.0" name="_top"/>
  <anchor x="-77.0" y="883.0" name="top"/>
  <outline>
    <contour>
      <point x="59.0" y="678.0" type="line"/>
      <point x="2.0" y="731.0"/>
      <point x="-68.0" y="813.0"/>
      <point x="-108.0" y="883.0" type="curve"/>
      <point x="-213.0" y="798.0" type="line"/>
      <point x="-180.0" y="727.0"/>
      <point x="-55.0" y="630.0"/>
      <point x="-14.0" y="611.0" type="curve"/>
    </contour>
  </outline>
</glyph>
<glyph name="acutecomb" format="2">
  <unicode hex="0301"/>
  <anchor x="1.0" y="831.0" name="_top"/>
  <anchor x="-67.0" y="1001.0" name="top"/>
  <outline>
    <contour>
      <point x="-19.0" y="626.0" type="line"/>
      <point x="20.0" y="643.0"/>
      <point x="146.0" y="746.0"/>
      <point x="175.0" y="813.0" type="curve"/>
      <point x="70.0" y="898.0" type="line"/>
      <point x="21.0" y="817.0"/>
      <point x="-37.0" y="745.0"/>
      <point x="-92.0" y="693.0" type="curve"/>
    </contour>
  </outline>
</glyph>
<glyph name="macroncomb" format="2">
  <unicode hex="0304"/>
  <anchor x="0.0" y="831.0" name="_top"/>
  <anchor x="0.0" y="1006.0" name="top"/>
  <outline>
    <contour>
      <point x="-144.0" y="660.0" type="line"/>
      <point x="144.0" y="660.0" type="line"/>
      <point x="144.0" y="761.0" type="line"/>
      <point x="-144.0" y="761.0" type="line"/>
    </contour>
  </outline>
</glyph>
<glyph name="hookabovecomb" format="2">
  <unicode hex="0309"/>
  <anchor x="0.0" y="831.0" name="_top"/>
  <anchor x="0.0" y="1009.0" name="top"/>
  <outline>
    <contour>
      <point x="-33.0" y="643.0" type="curve"/>
      <point x="34.0" y="643.0" type="line"/>
      <point x="26.0" y="672.0"/>
      <point x="34.0" y="698.0"/>
      <point x="53.0" y="713.0" type="curve" smooth="yes"/>
      <point x="76.0" y="731.0"/>
      <point x="107.0" y="763.0"/>
      <point x="107.0" y="806.0" type="curve" smooth="yes"/>
      <point x="107.0" y="859.0"/>
      <point x="58.0" y="899.0"/>
      <point x="-35.0" y="899.0" type="curve" smooth="yes"/>
      <point x="-68.0" y="899.0"/>
      <point x="-102.0" y="890.0"/>
      <point x="-123.0" y="881.0" type="curve"/>
      <point x="-121.0" y="806.0" type="line"/>
      <point x="-110.0" y="814.0"/>
      <point x="-80.0" y="822.0"/>
      <point x="-61.0" y="822.0" type="curve" smooth="yes"/>
      <point x="-20.0" y="822.0"/>
      <point x="2.0" y="806.0"/>
      <point x="2.0" y="779.0" type="curve" smooth="yes"/>
      <point x="2.0" y="741.0"/>
      <point x="-46.0" y="745.0"/>
      <point x="-46.0" y="687.0" type="curve"/>
      <point x="-46.0" y="667.0"/>
      <point x="-41.0" y="657.0"/>
    </contour>
  </outline>
</glyph>
<glyph name="breveinvertedcomb" format="2">
  <unicode hex="0311"/>
  <anchor x="0.0" y="831.0" name="_top"/>
  <anchor x="0.0" y="983.0" name="top"/>
  <outline>
    <contour>
      <point x="0.0" y="823.0" type="curve" smooth="yes"/>
      <point x="-115.0" y="823.0"/>
      <point x="-181.0" y="737.0"/>
      <point x="-178.0" y="634.0" type="curve"/>
      <point x="-82.0" y="634.0" type="line"/>
      <point x="-80.0" y="656.0"/>
      <point x="-76.0" y="717.0"/>
      <point x="1.0" y="717.0" type="curve" smooth="yes"/>
      <point x="75.0" y="717.0"/>
      <point x="81.0" y="656.0"/>
      <point x="84.0" y="634.0" type="curve"/>
      <point x="178.0" y="634.0" type="line"/>
      <point x="182.0" y="737.0"/>
      <point x="110.0" y="823.0"/>
    </contour>
  </outline>
</glyph>
<glyph name="dieresisbelowcomb" format="2">
  <unicode hex="0324"/>
  <anchor x="-1.0" y="0.0" name="_bottom"/>
  <anchor x="0.0" y="-83.0" name="_btm"/>
  <anchor x="0.0" y="831.0" name="_top"/>
  <anchor x="-1.0" y="-226.0" name="bottom"/>
  <outline>
    <contour>
      <point x="-123.0" y="-226.0" type="curve" smooth="yes"/>
      <point x="-72.0" y="-226.0"/>
      <point x="-33.0" y="-186.0"/>
      <point x="-33.0" y="-136.0" type="curve" smooth="yes"/>
      <point x="-33.0" y="-89.0"/>
      <point x="-60.0" y="-54.0"/>
      <point x="-113.0" y="-54.0" type="curve" smooth="yes"/>
      <point x="-163.0" y="-54.0"/>
      <point x="-204.0" y="-95.0"/>
      <point x="-204.0" y="-144.0" type="curve" smooth="yes"/>
      <point x="-204.0" y="-192.0"/>
      <point x="-172.0" y="-226.0"/>
    </contour>
    <contour>
      <point x="114.0" y="-226.0" type="curve" smooth="yes"/>
      <point x="165.0" y="-226.0"/>
      <point x="203.0" y="-186.0"/>
      <point x="203.0" y="-136.0" type="curve" smooth="yes"/>
      <point x="203.0" y="-89.0"/>
      <point x="177.0" y="-54.0"/>
      <point x="123.0" y="-54.0" type="curve" smooth="yes"/>
      <point x="74.0" y="-54.0"/>
      <point x="33.0" y="-95.0"/>
      <point x="33.0" y="-144.0" type="curve" smooth="yes"/>
      <point x="33.0" y="-192.0"/>
      <point x="65.0" y="-226.0"/>
    </contour>
  </outline>
</glyph>
<glyph name="macronbelowcomb" format="2">
  <unicode hex="0331"/>
  <anchor x="0.0" y="0.0" name="_bottom"/>
  <anchor x="0.0" y="-83.0" name="_btm"/>
  <anchor x="0.0" y="-178.0" name="bottom"/>
  <outline>
    <contour>
      <point x="-144.0" y="-178.0" type="line"/>
      <point x="144.0" y="-178.0" type="line"/>
      <point x="144.0" y="-77.0" type="line"/>
      <point x="-144.0" y="-77.0" type="line"/>
    </contour>
  </outline>
</glyph>
<glyph name="pi" format="2">
  <advance width="781.0"/>
  <unicode hex="03C0"/>
  <outline>
    <contour>
      <point x="33.0" y="430.0" type="curve"/>
      <point x="91.0" y="393.0" type="line"/>
      <point x="110.0" y="409.0"/>
      <point x="133.0" y="433.0"/>
      <point x="183.0" y="433.0" type="curve" smooth="yes"/>
      <point x="597.0" y="433.0" type="line" smooth="yes"/>
      <point x="699.0" y="433.0"/>
      <point x="746.0" y="478.0"/>
      <point x="751.0" y="593.0" type="curve"/>
      <point x="657.0" y="593.0" type="line"/>
      <point x="648.0" y="567.0"/>
      <point x="635.0" y="557.0"/>
      <point x="595.0" y="557.0" type="curve" smooth="yes"/>
      <point x="200.0" y="557.0" type="line" smooth="yes"/>
      <point x="121.0" y="557.0"/>
      <point x="84.0" y="535.0"/>
      <point x="58.0" y="500.0" type="curve" smooth="yes"/>
      <point x="42.0" y="478.0"/>
      <point x="34.0" y="445.0"/>
    </contour>
    <contour>
      <point x="445.0" y="136.0" type="line"/>
      <point x="438.0" y="53.0"/>
      <point x="467.0" y="-12.0"/>
      <point x="553.0" y="-12.0" type="curve" smooth="yes"/>
      <point x="657.0" y="-12.0"/>
      <point x="727.0" y="49.0"/>
      <point x="748.0" y="107.0" type="curve"/>
      <point x="692.0" y="167.0" type="line"/>
      <point x="674.0" y="143.0"/>
      <point x="644.0" y="99.0"/>
      <point x="605.0" y="99.0" type="curve" smooth="yes"/>
      <point x="587.0" y="99.0"/>
      <point x="575.0" y="119.0"/>
      <point x="577.0" y="161.0" type="curve" smooth="yes"/>
      <point x="593.0" y="529.0" type="line"/>
      <point x="479.0" y="528.0" type="line"/>
    </contour>
    <contour>
      <point x="77.0" y="56.0" type="curve"/>
      <point x="163.0" y="-12.0" type="line"/>
      <point x="202.0" y="-8.0"/>
      <point x="232.0" y="8.0"/>
      <point x="252.0" y="25.0" type="curve" smooth="yes"/>
      <point x="296.0" y="66.0"/>
      <point x="320.0" y="98.0"/>
      <point x="326.0" y="209.0" type="curve" smooth="yes"/>
      <point x="343.0" y="528.0" type="line"/>
      <point x="224.0" y="528.0" type="line"/>
      <point x="194.0" y="238.0" type="line" smooth="yes"/>
      <point x="187.0" y="169.0"/>
      <point x="174.0" y="119.0"/>
      <point x="125.0" y="81.0" type="curve" smooth="yes"/>
      <point x="106.0" y="67.0"/>
      <point x="85.0" y="58.0"/>
    </contour>
  </outline>
</glyph>
<glyph name="dram-arm" format="2">
  <advance width="848.0"/>
  <unicode hex="058F"/>
  <anchor x="374.0" y="-83.0" name="btm"/>
  <anchor x="375.0" y="830.0" name="top"/>
  <outline>
    <contour>
      <point x="370.0" y="743.0" type="curve" smooth="yes"/>
      <point x="198.0" y="743.0"/>
      <point x="69.0" y="613.0"/>
      <point x="73.0" y="416.0" type="curve" smooth="yes"/>
      <point x="74.0" y="367.0" type="line"/>
      <point x="228.0" y="367.0" type="line"/>
      <point x="227.0" y="408.0" type="line" smooth="yes"/>
      <point x="223.0" y="581.0"/>
      <point x="279.0" y="619.0"/>
      <point x="375.0" y="619.0" type="curve" smooth="yes"/>
      <point x="468.0" y="619.0"/>
      <point x="519.0" y="573.0"/>
      <point x="519.0" y="408.0" type="curve" smooth="yes"/>
      <point x="519.0" y="-8.0" type="line"/>
      <point x="672.0" y="-8.0" type="line"/>
      <point x="672.0" y="422.0" type="line" smooth="yes"/>
      <point x="672.0" y="631.0"/>
      <point x="570.0" y="743.0"/>
    </contour>
    <contour>
      <point x="351.0" y="297.0" type="line"/>
      <point x="818.0" y="297.0" type="line"/>
      <point x="818.0" y="391.0" type="line"/>
      <point x="351.0" y="391.0" type="line"/>
    </contour>
    <contour>
      <point x="333.0" y="109.0" type="line"/>
      <point x="794.0" y="109.0" type="line"/>
      <point x="794.0" y="203.0" type="line"/>
      <point x="333.0" y="203.0" type="line"/>
    </contour>
  </outline>
</glyph>
<glyph name="Germandbls" format="2">
  <advance width="741.0"/>
  <unicode hex="1E9E"/>
  <anchor x="371.0" y="0.0" name="bottom"/>
  <anchor x="371.0" y="743.0" name="top"/>
  <outline>
    <contour>
      <point x="50.0" y="0.0" type="line"/>
      <point x="216.0" y="0.0" type="line"/>
      <point x="216.0" y="424.0" type="line" smooth="yes"/>
      <point x="216.0" y="567.0"/>
      <point x="289.0" y="638.0"/>
      <point x="414.0" y="638.0" type="curve" smooth="yes"/>
      <point x="455.0" y="638.0"/>
      <point x="488.0" y="629.0"/>
      <point x="509.0" y="617.0" type="curve"/>
      <point x="371.0" y="437.0" type="line"/>
      <point x="368.0" y="355.0" type="line"/>
      <point x="510.0" y="355.0"/>
      <point x="565.0" y="316.0"/>
      <point x="565.0" y="223.0" type="curve" smooth="yes"/>
      <point x="565.0" y="138.0"/>
      <point x="503.0" y="103.0"/>
      <point x="448.0" y="103.0" type="curve" smooth="yes"/>
      <point x="397.0" y="103.0"/>
      <point x="352.0" y="124.0"/>
      <point x="330.0" y="140.0" type="curve"/>
      <point x="288.0" y="28.0" type="line"/>
      <point x="324.0" y="8.0"/>
      <point x="373.0" y="-11.0"/>
      <point x="478.0" y="-11.0" type="curve" smooth="yes"/>
      <point x="633.0" y="-11.0"/>
      <point x="731.0" y="89.0"/>
      <point x="731.0" y="234.0" type="curve" smooth="yes"/>
      <point x="731.0" y="373.0"/>
      <point x="623.0" y="438.0"/>
      <point x="552.0" y="438.0" type="curve"/>
      <point x="675.0" y="584.0" type="line"/>
      <point x="676.0" y="704.0" type="line"/>
      <point x="626.0" y="704.0"/>
      <point x="544.0" y="751.0"/>
      <point x="411.0" y="751.0" type="curve" smooth="yes"/>
      <point x="175.0" y="751.0"/>
      <point x="50.0" y="605.0"/>
      <point x="50.0" y="368.0" type="curve" smooth="yes"/>
    </contour>
  </outline>
</glyph>
<glyph name="endash" format="2">
  <advance width="771.0"/>
  <unicode hex="2013"/>
  <outline>
    <contour>
      <point x="90.0" y="267.0" type="line"/>
      <point x="681.0" y="267.0" type="line"/>
      <point x="681.0" y="387.0" type="line"/>
      <point x="90.0" y="387.0" type="line"/>
    </contour>
  </outline>
</glyph>
<glyph name="emdash" format="2">
  <advance width="1119.0"/>
  <unicode hex="2014"/>
  <outline>
    <contour>
      <point x="90.0" y="284.0" type="line"/>
      <point x="1029.0" y="284.0" type="line"/>
      <point x="1029.0" y="404.0" type="line"/>
      <point x="90.0" y="404.0" type="line"/>
    </contour>
  </outline>
</glyph>
<glyph name="quotereversed" format="2">
  <advance width="273.0"/>
  <unicode hex="201B"/>
  <outline>
    <contour>
      <point x="136.0" y="848.0" type="line"/>
      <point x="88.0" y="831.0"/>
      <point x="46.0" y="769.0"/>
      <point x="46.0" y="679.0" type="curve" smooth="yes"/>
      <point x="46.0" y="561.0"/>
      <point x="114.0" y="483.0"/>
      <point x="146.0" y="459.0" type="curve"/>
      <point x="209.0" y="500.0" type="line"/>
      <point x="209.0" y="513.0" type="line"/>
      <point x="188.0" y="538.0"/>
      <point x="175.0" y="599.0"/>
      <point x="175.0" y="644.0" type="curve" smooth="yes"/>
      <point x="175.0" y="699.0"/>
      <point x="199.0" y="742.0"/>
      <point x="219.0" y="752.0" type="curve"/>
      <point x="219.0" y="787.0" type="line"/>
    </contour>
  </outline>
</glyph>
<glyph name="daggerdbl" format="2">
  <advance width="506.0"/>
  <unicode hex="2021"/>
  <outline>
    <contour>
      <point x="198.0" y="-174.0" type="line"/>
      <point x="305.0" y="-174.0" type="line"/>
      <point x="315.0" y="209.0" type="line"/>
      <point x="453.0" y="208.0" type="line"/>
      <point x="453.0" y="312.0" type="line"/>
      <point x="315.0" y="312.0" type="line"/>
      <point x="315.0" y="526.0" type="line"/>
      <point x="454.0" y="525.0" type="line"/>
      <point x="454.0" y="629.0" type="line"/>
      <point x="315.0" y="628.0" type="line"/>
      <point x="315.0" y="810.0" type="line"/>
      <point x="190.0" y="810.0" type="line"/>
      <point x="190.0" y="628.0" type="line"/>
      <point x="53.0" y="629.0" type="line"/>
      <point x="52.0" y="525.0" type="line"/>
      <point x="190.0" y="526.0" type="line"/>
      <point x="190.0" y="312.0" type="line"/>
      <point x="52.0" y="312.0" type="line"/>
      <point x="52.0" y="208.0" type="line"/>
      <point x="190.0" y="209.0" type="line"/>
    </contour>
  </outline>
</glyph>
<glyph name="ellipsis" format="2">
  <advance width="929.0"/>
  <unicode hex="2026"/>
  <outline>
    <contour>
      <point x="153.0" y="-11.0" type="curve" smooth="yes"/>
      <point x="208.0" y="-11.0"/>
      <point x="252.0" y="37.0"/>
      <point x="251.0" y="93.0" type="curve" smooth="yes"/>
      <point x="251.0" y="146.0"/>
      <point x="218.0" y="187.0"/>
      <point x="161.0" y="187.0" type="curve" smooth="yes"/>
      <point x="106.0" y="187.0"/>
      <point x="61.0" y="139.0"/>
      <point x="62.0" y="83.0" type="curve" smooth="yes"/>
      <point x="62.0" y="30.0"/>
      <point x="101.0" y="-11.0"/>
    </contour>
    <contour>
      <point x="461.0" y="-11.0" type="curve" smooth="yes"/>
      <point x="516.0" y="-11.0"/>
      <point x="561.0" y="37.0"/>
      <point x="560.0" y="93.0" type="curve" smooth="yes"/>
      <point x="559.0" y="146.0"/>
      <point x="526.0" y="187.0"/>
      <point x="469.0" y="187.0" type="curve" smooth="yes"/>
      <point x="415.0" y="187.0"/>
      <point x="369.0" y="139.0"/>
      <point x="370.0" y="83.0" type="curve" smooth="yes"/>
      <point x="370.0" y="30.0"/>
      <point x="409.0" y="-11.0"/>
    </contour>
    <contour>
      <point x="769.0" y="-11.0" type="curve" smooth="yes"/>
      <point x="824.0" y="-11.0"/>
      <point x="869.0" y="37.0"/>
      <point x="868.0" y="93.0" type="curve" smooth="yes"/>
      <point x="867.0" y="146.0"/>
      <point x="834.0" y="187.0"/>
      <point x="777.0" y="187.0" type="curve" smooth="yes"/>
      <point x="723.0" y="187.0"/>
      <point x="677.0" y="139.0"/>
      <point x="678.0" y="83.0" type="curve" smooth="yes"/>
      <point x="678.0" y="30.0"/>
      <point x="717.0" y="-11.0"/>
    </contour>
  </outline>
</glyph>
<glyph name="perthousand" format="2">
  <advance width="1519.0"/>
  <unicode hex="2030"/>
  <outline>
    <contour>
      <point x="1259.0" y="6.0" type="curve" smooth="yes"/>
      <point x="1369.0" y="7.0"/>
      <point x="1469.0" y="85.0"/>
      <point x="1469.0" y="227.0" type="curve" smooth="yes"/>
      <point x="1469.0" y="348.0"/>
      <point x="1410.0" y="445.0"/>
      <point x="1276.0" y="444.0" type="curve" smooth="yes"/>
      <point x="1167.0" y="443.0"/>
      <point x="1066.0" y="364.0"/>
      <point x="1066.0" y="223.0" type="curve" smooth="yes"/>
      <point x="1066.0" y="104.0"/>
      <point x="1130.0" y="5.0"/>
    </contour>
    <contour>
      <point x="1267.0" y="103.0" type="curve" smooth="yes"/>
      <point x="1217.0" y="103.0"/>
      <point x="1188.0" y="154.0"/>
      <point x="1188.0" y="228.0" type="curve" smooth="yes"/>
      <point x="1188.0" y="302.0"/>
      <point x="1217.0" y="348.0"/>
      <point x="1269.0" y="348.0" type="curve" smooth="yes"/>
      <point x="1318.0" y="348.0"/>
      <point x="1347.0" y="298.0"/>
      <point x="1347.0" y="223.0" type="curve" smooth="yes"/>
      <point x="1347.0" y="148.0"/>
      <point x="1318.0" y="103.0"/>
    </contour>
    <component base="percent"/>
  </outline>
</glyph>
<glyph name="minute" format="2">
  <advance width="338.0"/>
  <unicode hex="2032"/>
  <outline>
    <contour>
      <point x="79.0" y="581.0" type="line"/>
      <point x="193.0" y="581.0" type="line"/>
      <point x="279.0" y="892.0" type="line"/>
      <point x="132.0" y="892.0" type="line"/>
    </contour>
  </outline>
</glyph>
<glyph name="guilsinglleft" format="2">
  <advance width="593.0"/>
  <unicode hex="2039"/>
  <outline>
    <contour>
      <point x="115.0" y="240.0" type="line"/>
      <point x="435.0" y="37.0" type="line"/>
      <point x="472.0" y="142.0" type="line"/>
      <point x="226.0" y="327.0" type="line"/>
      <point x="226.0" y="273.0" type="line"/>
      <point x="472.0" y="459.0" type="line"/>
      <point x="435.0" y="565.0" type="line"/>
      <point x="115.0" y="359.0" type="line"/>
    </contour>
  </outline>
</glyph>
<glyph name="peseta" format="2">
  <advance width="742.0"/>
  <unicode hex="20A7"/>
  <outline>
    <contour>
      <point x="96.0" y="0.0" type="line"/>
      <point x="275.0" y="0.0" type="line"/>
      <point x="275.0" y="225.0" type="line"/>
      <point x="294.0" y="225.0"/>
      <point x="317.0" y="224.0"/>
      <point x="365.0" y="224.0" type="curve" smooth="yes"/>
      <point x="546.0" y="224.0"/>
      <point x="649.0" y="302.0"/>
      <point x="667.0" y="448.0" type="curve"/>
      <point x="738.0" y="448.0" type="line"/>
      <point x="738.0" y="520.0" type="line"/>
      <point x="668.0" y="520.0" type="line"/>
      <point x="658.0" y="690.0"/>
      <point x="552.0" y="751.0"/>
      <point x="381.0" y="751.0" type="curve" smooth="yes"/>
      <point x="303.0" y="751.0"/>
      <point x="235.0" y="743.0"/>
      <point x="181.0" y="743.0" type="curve" smooth="yes"/>
      <point x="96.0" y="743.0" type="line"/>
      <point x="96.0" y="520.0" type="line"/>
      <point x="16.0" y="520.0" type="line"/>
      <point x="16.0" y="448.0" type="line"/>
      <point x="96.0" y="448.0" type="line"/>
    </contour>
    <contour>
      <point x="275.0" y="520.0" type="line"/>
      <point x="275.0" y="624.0" type="line"/>
      <point x="301.0" y="627.0"/>
      <point x="333.0" y="629.0"/>
      <point x="361.0" y="630.0" type="curve" smooth="yes"/>
      <point x="444.0" y="631.0"/>
      <point x="486.0" y="590.0"/>
      <point x="494.0" y="520.0" type="curve"/>
    </contour>
    <contour>
      <point x="275.0" y="351.0" type="curve"/>
      <point x="275.0" y="448.0" type="line"/>
      <point x="493.0" y="448.0" type="line"/>
      <point x="479.0" y="375.0"/>
      <point x="431.0" y="347.0"/>
      <point x="366.0" y="347.0" type="curve" smooth="yes"/>
      <point x="324.0" y="347.0"/>
      <point x="301.0" y="348.0"/>
    </contour>
  </outline>
</glyph>
<glyph name="sheqel" format="2">
  <advance width="944.0"/>
  <unicode hex="20AA"/>
  <outline>
    <contour>
      <point x="481.0" y="0.0" type="curve" smooth="yes"/>
      <point x="848.0" y="0.0" type="line"/>
      <point x="848.0" y="743.0" type="line"/>
      <point x="712.0" y="743.0" type="line"/>
      <point x="712.0" y="120.0" type="line"/>
      <point x="546.0" y="120.0" type="line" smooth="yes"/>
      <point x="451.0" y="120.0"/>
      <point x="435.0" y="139.0"/>
      <point x="435.0" y="208.0" type="curve" smooth="yes"/>
      <point x="435.0" y="536.0" type="line"/>
      <point x="295.0" y="536.0" type="line"/>
      <point x="295.0" y="207.0" type="line" smooth="yes"/>
      <point x="295.0" y="56.0"/>
      <point x="362.0" y="0.0"/>
    </contour>
    <contour>
      <point x="96.0" y="0.0" type="line"/>
      <point x="231.0" y="0.0" type="line"/>
      <point x="231.0" y="614.0" type="line"/>
      <point x="446.0" y="614.0" type="line" smooth="yes"/>
      <point x="521.0" y="614.0"/>
      <point x="518.0" y="576.0"/>
      <point x="518.0" y="507.0" type="curve" smooth="yes"/>
      <point x="518.0" y="193.0" type="line"/>
      <point x="653.0" y="193.0" type="line"/>
      <point x="653.0" y="537.0" type="line" smooth="yes"/>
      <point x="653.0" y="689.0"/>
      <point x="617.0" y="743.0"/>
      <point x="506.0" y="743.0" type="curve" smooth="yes"/>
      <point x="96.0" y="743.0" type="line"/>
    </contour>
  </outline>
</glyph>
<glyph name="kip" format="2">
  <advance width="705.0"/>
  <unicode hex="20AD"/>
  <outline>
    <contour>
      <point x="30.0" y="334.0" type="line"/>
      <point x="620.0" y="334.0" type="line"/>
      <point x="620.0" y="434.0" type="line"/>
      <point x="30.0" y="434.0" type="line"/>
    </contour>
    <contour>
      <point x="92.0" y="0.0" type="line"/>
      <point x="247.0" y="0.0" type="line"/>
      <point x="247.0" y="360.0" type="line"/>
      <point x="225.0" y="204.0" type="line"/>
      <point x="311.0" y="297.0" type="line"/>
      <point x="343.0" y="324.0" type="line"/>
      <point x="679.0" y="743.0" type="line"/>
      <point x="508.0" y="743.0" type="line"/>
      <point x="247.0" y="416.0" type="line"/>
      <point x="247.0" y="743.0" type="line"/>
      <point x="92.0" y="743.0" type="line"/>
    </contour>
    <contour>
      <point x="510.0" y="0.0" type="line"/>
      <point x="689.0" y="0.0" type="line"/>
      <point x="343.0" y="468.0" type="line"/>
      <point x="233.0" y="375.0" type="line"/>
      <point x="247.0" y="360.0" type="line"/>
    </contour>
  </outline>
</glyph>
<glyph name="peso" format="2">
  <advance width="753.0"/>
  <unicode hex="20B1"/>
  <outline>
    <contour>
      <point x="102.0" y="0.0" type="line"/>
      <point x="281.0" y="0.0" type="line"/>
      <point x="281.0" y="206.0" type="line"/>
      <point x="299.0" y="206.0"/>
      <point x="323.0" y="204.0"/>
      <point x="371.0" y="204.0" type="curve" smooth="yes"/>
      <point x="535.0" y="204.0"/>
      <point x="635.0" y="271.0"/>
      <point x="665.0" y="396.0" type="curve"/>
      <point x="743.0" y="396.0" type="line"/>
      <point x="743.0" y="448.0" type="line"/>
      <point x="673.0" y="448.0" type="line"/>
      <point x="674.0" y="459.0"/>
      <point x="674.0" y="470.0"/>
      <point x="674.0" y="482.0" type="curve" smooth="yes"/>
      <point x="674.0" y="489.0"/>
      <point x="674.0" y="496.0"/>
      <point x="674.0" y="503.0" type="curve"/>
      <point x="743.0" y="503.0" type="line"/>
      <point x="743.0" y="556.0" type="line"/>
      <point x="668.0" y="556.0" type="line"/>
      <point x="644.0" y="699.0"/>
      <point x="542.0" y="751.0"/>
      <point x="387.0" y="751.0" type="curve" smooth="yes"/>
      <point x="308.0" y="751.0"/>
      <point x="241.0" y="743.0"/>
      <point x="186.0" y="743.0" type="curve" smooth="yes"/>
      <point x="102.0" y="743.0" type="line"/>
      <point x="102.0" y="556.0" type="line"/>
      <point x="30.0" y="556.0" type="line"/>
      <point x="30.0" y="503.0" type="line"/>
      <point x="102.0" y="503.0" type="line"/>
      <point x="102.0" y="448.0" type="line"/>
      <point x="30.0" y="448.0" type="line"/>
      <point x="30.0" y="396.0" type="line"/>
      <point x="102.0" y="396.0" type="line"/>
    </contour>
    <contour>
      <point x="372.0" y="327.0" type="curve" smooth="yes"/>
      <point x="330.0" y="327.0"/>
      <point x="307.0" y="329.0"/>
      <point x="281.0" y="332.0" type="curve"/>
      <point x="281.0" y="396.0" type="line"/>
      <point x="486.0" y="396.0" type="line"/>
      <point x="465.0" y="347.0"/>
      <point x="424.0" y="327.0"/>
    </contour>
    <contour>
      <point x="281.0" y="448.0" type="line"/>
      <point x="281.0" y="503.0" type="line"/>
      <point x="500.0" y="503.0" type="line"/>
      <point x="501.0" y="496.0"/>
      <point x="501.0" y="489.0"/>
      <point x="501.0" y="481.0" type="curve" smooth="yes"/>
      <point x="501.0" y="470.0"/>
      <point x="501.0" y="458.0"/>
      <point x="500.0" y="448.0" type="curve"/>
    </contour>
    <contour>
      <point x="281.0" y="556.0" type="line"/>
      <point x="281.0" y="624.0" type="line"/>
      <point x="307.0" y="627.0"/>
      <point x="339.0" y="629.0"/>
      <point x="367.0" y="630.0" type="curve" smooth="yes"/>
      <point x="432.0" y="631.0"/>
      <point x="471.0" y="603.0"/>
      <point x="489.0" y="556.0" type="curve"/>
    </contour>
  </outline>
</glyph>
<glyph name="cedi" format="2">
  <advance width="717.0"/>
  <unicode hex="20B5"/>
  <outline>
    <contour>
      <point x="319.0" y="-173.0" type="line"/>
      <point x="391.0" y="-173.0" type="line"/>
      <point x="406.0" y="-7.0" type="line"/>
      <point x="414.0" y="-7.0"/>
      <point x="421.0" y="-8.0"/>
      <point x="430.0" y="-8.0" type="curve" smooth="yes"/>
      <point x="516.0" y="-8.0"/>
      <point x="573.0" y="15.0"/>
      <point x="610.0" y="31.0" type="curve"/>
      <point x="610.0" y="178.0" type="line"/>
      <point x="585.0" y="155.0"/>
      <point x="515.0" y="130.0"/>
      <point x="449.0" y="130.0" type="curve" smooth="yes"/>
      <point x="438.0" y="130.0"/>
      <point x="428.0" y="130.0"/>
      <point x="418.0" y="131.0" type="curve"/>
      <point x="461.0" y="608.0" type="line"/>
      <point x="542.0" y="606.0"/>
      <point x="584.0" y="579.0"/>
      <point x="597.0" y="569.0" type="curve"/>
      <point x="620.0" y="721.0" type="line"/>
      <point x="589.0" y="729.0"/>
      <point x="549.0" y="745.0"/>
      <point x="474.0" y="750.0" type="curve"/>
      <point x="486.0" y="886.0" type="line"/>
      <point x="414.0" y="886.0" type="line"/>
      <point x="402.0" y="750.0" type="line"/>
      <point x="208.0" y="738.0"/>
      <point x="54.0" y="611.0"/>
      <point x="54.0" y="370.0" type="curve" smooth="yes"/>
      <point x="54.0" y="169.0"/>
      <point x="152.0" y="34.0"/>
      <point x="334.0" y="0.0" type="curve"/>
    </contour>
    <contour>
      <point x="348.0" y="151.0" type="line"/>
      <point x="273.0" y="187.0"/>
      <point x="237.0" y="269.0"/>
      <point x="237.0" y="380.0" type="curve" smooth="yes"/>
      <point x="237.0" y="502.0"/>
      <point x="297.0" y="580.0"/>
      <point x="389.0" y="602.0" type="curve"/>
    </contour>
  </outline>
</glyph>
<glyph name="tenge" format="2">
  <advance width="610.0"/>
  <unicode hex="20B8"/>
  <anchor x="303.0" y="-83.0" name="btm"/>
  <anchor x="303.0" y="830.0" name="top"/>
  <outline>
    <contour>
      <point x="228.0" y="0.0" type="line"/>
      <point x="384.0" y="0.0" type="line"/>
      <point x="384.0" y="438.0" type="line"/>
      <point x="596.0" y="438.0" type="line"/>
      <point x="596.0" y="557.0" type="line"/>
      <point x="15.0" y="557.0" type="line"/>
      <point x="15.0" y="438.0" type="line"/>
      <point x="228.0" y="438.0" type="line"/>
    </contour>
    <contour>
      <point x="15.0" y="624.0" type="line"/>
      <point x="596.0" y="624.0" type="line"/>
      <point x="596.0" y="743.0" type="line"/>
      <point x="15.0" y="743.0" type="line"/>
    </contour>
  </outline>
</glyph>
<glyph name="ruble" format="2">
  <advance width="664.0"/>
  <unicode hex="20BD"/>
  <anchor x="345.0" y="-83.0" name="btm"/>
  <anchor x="365.0" y="831.0" name="top"/>
  <outline>
    <contour>
      <point x="92.0" y="0.0" type="line"/>
      <point x="247.0" y="0.0" type="line"/>
      <point x="247.0" y="274.0" type="line"/>
      <point x="264.0" y="274.0"/>
      <point x="290.0" y="273.0"/>
      <point x="332.0" y="273.0" type="curve" smooth="yes"/>
      <point x="524.0" y="273.0"/>
      <point x="629.0" y="373.0"/>
      <point x="629.0" y="515.0" type="curve" smooth="yes"/>
      <point x="629.0" y="698.0"/>
      <point x="528.0" y="751.0"/>
      <point x="358.0" y="751.0" type="curve" smooth="yes"/>
      <point x="287.0" y="751.0"/>
      <point x="221.0" y="743.0"/>
      <point x="139.0" y="743.0" type="curve" smooth="yes"/>
      <point x="92.0" y="743.0" type="line"/>
    </contour>
    <contour>
      <point x="247.0" y="395.0" type="curve"/>
      <point x="247.0" y="631.0" type="line"/>
      <point x="271.0" y="636.0"/>
      <point x="301.0" y="637.0"/>
      <point x="327.0" y="638.0" type="curve" smooth="yes"/>
      <point x="423.0" y="642.0"/>
      <point x="475.0" y="611.0"/>
      <point x="475.0" y="517.0" type="curve" smooth="yes"/>
      <point x="475.0" y="422.0"/>
      <point x="404.0" y="391.0"/>
      <point x="328.0" y="391.0" type="curve" smooth="yes"/>
      <point x="304.0" y="391.0"/>
      <point x="271.0" y="392.0"/>
    </contour>
    <contour>
      <point x="21.0" y="93.0" type="line"/>
      <point x="475.0" y="93.0" type="line"/>
      <point x="475.0" y="213.0" type="line"/>
      <point x="21.0" y="213.0" type="line"/>
    </contour>
  </outline>
</glyph>
<glyph name="bitcoin" format="2">
  <advance width="694.0"/>
  <unicode hex="20BF"/>
  <anchor x="347.0" y="0.0" name="bottom"/>
  <anchor x="392.0" y="-83.0" name="btm"/>
  <anchor x="345.0" y="831.0" name="top"/>
  <outline>
    <contour>
      <point x="229.0" y="713.0" type="line"/>
      <point x="285.0" y="713.0" type="line"/>
      <point x="288.0" y="852.0" type="line"/>
      <point x="232.0" y="852.0" type="line"/>
    </contour>
    <contour>
      <point x="373.0" y="713.0" type="line"/>
      <point x="429.0" y="713.0" type="line"/>
      <point x="432.0" y="852.0" type="line"/>
      <point x="376.0" y="852.0" type="line"/>
    </contour>
    <contour>
      <point x="207.0" y="-92.0" type="line"/>
      <point x="263.0" y="-92.0" type="line"/>
      <point x="266.0" y="47.0" type="line"/>
      <point x="210.0" y="47.0" type="line"/>
    </contour>
    <contour>
      <point x="351.0" y="-92.0" type="line"/>
      <point x="407.0" y="-92.0" type="line"/>
      <point x="410.0" y="47.0" type="line"/>
      <point x="354.0" y="47.0" type="line"/>
    </contour>
    <component base="B"/>
  </outline>
</glyph>
<glyph name="estimated" format="2">
  <advance width="675.0"/>
  <unicode hex="212E"/>
  <outline>
    <contour>
      <point x="357.0" y="-8.0" type="curve" smooth="yes"/>
      <point x="452.0" y="-8.0"/>
      <point x="543.0" y="26.0"/>
      <point x="585.0" y="56.0" type="curve"/>
      <point x="551.0" y="130.0" type="line"/>
      <point x="515.0" y="103.0"/>
      <point x="447.0" y="72.0"/>
      <point x="366.0" y="72.0" type="curve" smooth="yes"/>
      <point x="304.0" y="72.0"/>
      <point x="250.0" y="87.0"/>
      <point x="212.0" y="127.0" type="curve"/>
      <point x="212.0" y="299.0" type="line"/>
      <point x="617.0" y="299.0" type="line"/>
      <point x="622.0" y="324.0"/>
      <point x="622.0" y="364.0"/>
      <point x="622.0" y="406.0" type="curve"/>
      <point x="617.0" y="567.0"/>
      <point x="503.0" y="665.0"/>
      <point x="359.0" y="662.0" type="curve" smooth="yes"/>
      <point x="151.0" y="659.0"/>
      <point x="53.0" y="519.0"/>
      <point x="53.0" y="328.0" type="curve" smooth="yes"/>
      <point x="53.0" y="118.0"/>
      <point x="163.0" y="-8.0"/>
    </contour>
    <contour>
      <point x="212.0" y="375.0" type="line"/>
      <point x="212.0" y="526.0" type="line"/>
      <point x="248.0" y="566.0"/>
      <point x="298.0" y="583.0"/>
      <point x="353.0" y="583.0" type="curve" smooth="yes"/>
      <point x="410.0" y="583.0"/>
      <point x="449.0" y="569.0"/>
      <point x="474.0" y="547.0" type="curve"/>
      <point x="474.0" y="375.0" type="line"/>
    </contour>
  </outline>
</glyph>
<glyph name="increment" format="2">
  <advance width="792.0"/>
  <unicode hex="2206"/>
  <outline>
    <contour>
      <point x="45.0" y="0.0" type="line"/>
      <point x="746.0" y="0.0" type="line"/>
      <point x="754.0" y="13.0" type="line"/>
      <point x="389.0" y="736.0" type="line"/>
      <point x="374.0" y="736.0" type="line"/>
      <point x="38.0" y="11.0" type="line"/>
    </contour>
    <contour>
      <point x="221.0" y="123.0" type="line"/>
      <point x="383.0" y="481.0" type="line"/>
      <point x="555.0" y="123.0" type="line"/>
    </contour>
  </outline>
</glyph>
<glyph name="product" format="2">
  <advance width="834.0"/>
  <unicode hex="220F"/>
  <outline>
    <contour>
      <point x="312.0" y="-83.0" type="line"/>
      <point x="312.0" y="645.0" type="line"/>
      <point x="299.0" y="630.0" type="line"/>
      <point x="530.0" y="630.0" type="line"/>
      <point x="517.0" y="644.0" type="line"/>
      <point x="517.0" y="-83.0" type="line"/>
      <point x="672.0" y="-83.0" type="line"/>
      <point x="672.0" y="644.0" type="line"/>
      <point x="658.0" y="630.0" type="line"/>
      <point x="783.0" y="631.0" type="line"/>
      <point x="783.0" y="743.0" type="line"/>
      <point x="51.0" y="743.0" type="line"/>
      <point x="51.0" y="631.0" type="line"/>
      <point x="170.0" y="630.0" type="line"/>
      <point x="157.0" y="646.0" type="line"/>
      <point x="157.0" y="-83.0" type="line"/>
    </contour>
  </outline>
</glyph>
<glyph name="summation" format="2">
  <advance width="714.0"/>
  <unicode hex="2211"/>
  <outline>
    <contour>
      <point x="87.0" y="-83.0" type="line"/>
      <point x="633.0" y="-83.0" type="line"/>
      <point x="633.0" y="23.0" type="line"/>
      <point x="239.0" y="23.0" type="line"/>
      <point x="239.0" y="-45.0" type="line"/>
      <point x="493.0" y="335.0" type="line"/>
      <point x="227.0" y="708.0" type="line"/>
      <point x="227.0" y="631.0" type="line"/>
      <point x="613.0" y="631.0" type="line"/>
      <point x="613.0" y="743.0" type="line"/>
      <point x="89.0" y="743.0" type="line"/>
      <point x="74.0" y="704.0" type="line"/>
      <point x="343.0" y="332.0" type="line"/>
      <point x="74.0" y="-52.0" type="line"/>
    </contour>
  </outline>
</glyph>
<glyph name="divisionslash" format="2">
  <advance width="417.0"/>
  <unicode hex="2215"/>
  <outline>
    <contour>
      <point x="-47.0" y="-177.0" type="line"/>
      <point x="86.0" y="-177.0" type="line"/>
      <point x="464.0" y="781.0" type="line"/>
      <point x="332.0" y="781.0" type="line"/>
    </contour>
  </outline>
</glyph>
<glyph name="radical" format="2">
  <advance width="802.0"/>
  <unicode hex="221A"/>
  <outline>
    <contour>
      <point x="346.0" y="-173.0" type="line"/>
      <point x="474.0" y="-173.0" type="line"/>
      <point x="824.0" y="913.0" type="line"/>
      <point x="673.0" y="913.0" type="line"/>
      <point x="393.0" y="-44.0" type="line"/>
      <point x="428.0" y="-44.0" type="line"/>
      <point x="287.0" y="350.0" type="line"/>
      <point x="188.0" y="350.0" type="line"/>
      <point x="53.0" y="280.0" type="line"/>
      <point x="105.0" y="172.0" type="line"/>
      <point x="183.0" y="212.0" type="line"/>
    </contour>
  </outline>
</glyph>
<glyph name="integral" format="2">
  <advance width="528.0"/>
  <unicode hex="222B"/>
  <outline>
    <contour>
      <point x="208.0" y="-253.0" type="curve" smooth="yes"/>
      <point x="375.0" y="-253.0"/>
      <point x="434.0" y="-122.0"/>
      <point x="431.0" y="-10.0" type="curve" smooth="yes"/>
      <point x="425.0" y="184.0"/>
      <point x="239.0" y="393.0"/>
      <point x="234.0" y="587.0" type="curve" smooth="yes"/>
      <point x="232.0" y="669.0"/>
      <point x="260.0" y="719.0"/>
      <point x="333.0" y="719.0" type="curve" smooth="yes"/>
      <point x="379.0" y="719.0"/>
      <point x="412.0" y="693.0"/>
      <point x="419.0" y="676.0" type="curve"/>
      <point x="480.0" y="756.0" type="line"/>
      <point x="463.0" y="791.0"/>
      <point x="415.0" y="823.0"/>
      <point x="327.0" y="823.0" type="curve" smooth="yes"/>
      <point x="162.0" y="823.0"/>
      <point x="97.0" y="713.0"/>
      <point x="100.0" y="582.0" type="curve" smooth="yes"/>
      <point x="105.0" y="388.0"/>
      <point x="292.0" y="178.0"/>
      <point x="297.0" y="-17.0" type="curve" smooth="yes"/>
      <point x="299.0" y="-99.0"/>
      <point x="277.0" y="-149.0"/>
      <point x="204.0" y="-149.0" type="curve" smooth="yes"/>
      <point x="163.0" y="-149.0"/>
      <point x="110.0" y="-115.0"/>
      <point x="96.0" y="-94.0" type="curve"/>
      <point x="51.0" y="-188.0" type="line"/>
      <point x="69.0" y="-225.0"/>
      <point x="157.0" y="-253.0"/>
    </contour>
  </outline>
</glyph>
<glyph name="notequal" format="2">
  <advance width="695.0"/>
  <unicode hex="2260"/>
  <outline>
    <contour>
      <point x="198.0" y="99.0" type="line"/>
      <point x="292.0" y="99.0" type="line"/>
      <point x="350.0" y="261.0" type="line"/>
      <point x="353.0" y="269.0" type="line"/>
      <point x="435.0" y="503.0" type="line"/>
      <point x="438.0" y="510.0" type="line"/>
      <point x="487.0" y="644.0" type="line"/>
      <point x="392.0" y="644.0" type="line"/>
      <point x="344.0" y="510.0" type="line"/>
      <point x="341.0" y="503.0" type="line"/>
      <point x="259.0" y="269.0" type="line"/>
      <point x="256.0" y="262.0" type="line"/>
    </contour>
    <component base="equal"/>
  </outline>
</glyph>
<glyph name="whiteDiamond" format="2">
  <advance width="656.0"/>
  <unicode hex="25C7"/>
  <outline>
    <contour>
      <point x="328.0" y="-12.0" type="line"/>
      <point x="616.0" y="276.0" type="line"/>
      <point x="328.0" y="564.0" type="line"/>
      <point x="40.0" y="276.0" type="line"/>
    </contour>
    <contour>
      <point x="328.0" y="69.0" type="line"/>
      <point x="116.0" y="276.0" type="line"/>
      <point x="328.0" y="483.0" type="line"/>
      <point x="540.0" y="276.0" type="line"/>
    </contour>
  </outline>
</glyph>
<glyph name="lozenge" format="2">
  <advance width="642.0"/>
  <unicode hex="25CA"/>
  <outline>
    <contour>
      <point x="34.0" y="378.0" type="line"/>
      <point x="34.0" y="372.0" type="line"/>
      <point x="320.0" y="0.0" type="line"/>
      <point x="322.0" y="0.0" type="line"/>
      <point x="608.0" y="372.0" type="line"/>
      <point x="608.0" y="378.0" type="line"/>
      <point x="322.0" y="750.0" type="line"/>
      <point x="320.0" y="750.0" type="line"/>
    </contour>
    <contour>
      <point x="320.0" y="564.0" type="line"/>
      <point x="322.0" y="564.0" type="line"/>
      <point x="468.0" y="377.0" type="line"/>
      <point x="468.0" y="375.0" type="line"/>
      <point x="322.0" y="177.0" type="line"/>
      <point x="320.0" y="177.0" type="line"/>
      <point x="174.0" y="374.0" type="line"/>
      <point x="174.0" y="377.0" type="line"/>
    </contour>
  </outline>
</glyph>
<glyph name=".notdef" format="2">
  <advance width="919.0"/>
  <outline>
    <contour>
      <point x="114.0" y="0.0" type="line"/>
      <point x="805.0" y="0.0" type="line"/>
      <point x="805.0" y="691.0" type="line"/>
      <point x="114.0" y="691.0" type="line"/>
    </contour>
    <contour>
      <point x="289.0" y="107.0" type="line"/>
      <point x="226.0" y="177.0" type="line"/>
      <point x="401.0" y="344.0" type="line"/>
      <point x="226.0" y="521.0" type="line"/>
      <point x="286.0" y="583.0" type="line"/>
      <point x="460.0" y="403.0" type="line"/>
      <point x="632.0" y="582.0" type="line"/>
      <point x="694.0" y="521.0" type="line"/>
      <point x="517.0" y="346.0" type="line"/>
      <point x="694.0" y="167.0" type="line"/>
      <point x="635.0" y="107.0" type="line"/>
      <point x="458.0" y="287.0" type="line"/>
    </contour>
  </outline>
</glyph>
<glyph name="a.sc" format="2">
  <advance width="675.0"/>
  <anchor x="338.0" y="0.0" name="bottom"/>
  <anchor x="332.0" y="-109.0" name="btm"/>
  <anchor x="608.0" y="10.0" name="ogonek"/>
  <anchor x="337.0" y="896.0" name="top"/>
  <outline>
    <contour>
      <point x="162.0" y="0.0" type="line"/>
      <point x="313.0" y="439.0" type="line"/>
      <point x="335.0" y="521.0" type="line"/>
      <point x="356.0" y="439.0" type="line"/>
      <point x="511.0" y="0.0" type="line"/>
      <point x="680.0" y="0.0" type="line"/>
      <point x="419.0" y="651.0" type="line"/>
      <point x="254.0" y="651.0" type="line"/>
      <point x="-5.0" y="0.0" type="line"/>
    </contour>
    <contour>
      <point x="144.0" y="123.0" type="line"/>
      <point x="511.0" y="123.0" type="line"/>
      <point x="492.0" y="234.0" type="line"/>
      <point x="164.0" y="234.0" type="line"/>
    </contour>
  </outline>
</glyph>
<glyph name="braceleft.case" format="2">
  <advance width="465.0"/>
  <outline>
    <contour>
      <point x="158.0" y="29.0" type="line"/>
      <point x="158.0" y="-67.0"/>
      <point x="190.0" y="-103.0"/>
      <point x="266.0" y="-103.0" type="curve" smooth="yes"/>
      <point x="319.0" y="-103.0"/>
      <point x="376.0" y="-98.0"/>
      <point x="418.0" y="-86.0" type="curve"/>
      <point x="418.0" y="-10.0" type="line"/>
      <point x="290.0" y="-10.0" type="line"/>
      <point x="290.0" y="274.0" type="line" smooth="yes"/>
      <point x="290.0" y="294.0"/>
      <point x="283.0" y="311.0"/>
      <point x="271.0" y="324.0" type="curve" smooth="yes"/>
      <point x="247.0" y="352.0"/>
      <point x="196.0" y="371.0"/>
      <point x="155.0" y="384.0" type="curve"/>
      <point x="155.0" y="374.0" type="line"/>
      <point x="196.0" y="388.0"/>
      <point x="248.0" y="406.0"/>
      <point x="271.0" y="433.0" type="curve" smooth="yes"/>
      <point x="283.0" y="446.0"/>
      <point x="290.0" y="463.0"/>
      <point x="290.0" y="484.0" type="curve" smooth="yes"/>
      <point x="290.0" y="763.0" type="line"/>
      <point x="418.0" y="763.0" type="line"/>
      <point x="418.0" y="846.0" type="line"/>
      <point x="376.0" y="852.0"/>
      <point x="319.0" y="858.0"/>
      <point x="266.0" y="858.0" type="curve" smooth="yes"/>
      <point x="190.0" y="858.0"/>
      <point x="158.0" y="822.0"/>
      <point x="158.0" y="726.0" type="curve" smooth="yes"/>
      <point x="158.0" y="488.0" type="line" smooth="yes"/>
      <point x="158.0" y="452.0"/>
      <point x="83.0" y="431.0"/>
      <point x="33.0" y="426.0" type="curve"/>
      <point x="33.0" y="333.0" type="line"/>
      <point x="83.0" y="328.0"/>
      <point x="158.0" y="302.0"/>
      <point x="158.0" y="267.0" type="curve" smooth="yes"/>
    </contour>
  </outline>
</glyph>
<glyph name="brevebelowcomb.case" format="2">
  <anchor x="0.0" y="0.0" name="_bottom"/>
  <anchor x="1.0" y="-83.0" name="_btm"/>
  <anchor x="0.0" y="-236.0" name="bottom"/>
  <outline>
    <contour>
      <point x="0.0" y="-236.0" type="curve" smooth="yes"/>
      <point x="110.0" y="-236.0"/>
      <point x="182.0" y="-150.0"/>
      <point x="178.0" y="-47.0" type="curve"/>
      <point x="84.0" y="-47.0" type="line"/>
      <point x="81.0" y="-69.0"/>
      <point x="75.0" y="-130.0"/>
      <point x="1.0" y="-130.0" type="curve" smooth="yes"/>
      <point x="-76.0" y="-130.0"/>
      <point x="-80.0" y="-69.0"/>
      <point x="-82.0" y="-47.0" type="curve"/>
      <point x="-178.0" y="-47.0" type="line"/>
      <point x="-181.0" y="-150.0"/>
      <point x="-115.0" y="-236.0"/>
    </contour>
  </outline>
</glyph>
<glyph name="brevecomb_acutecomb.case" format="2">
  <anchor x="0.0" y="830.0" name="_top"/>
  <anchor x="10.0" y="1149.0" name="top"/>
  <outline>
    <contour>
      <point x="10.0" y="788.0" type="curve" smooth="yes"/>
      <point x="125.0" y="788.0"/>
      <point x="191.0" y="858.0"/>
      <point x="187.0" y="957.0" type="curve"/>
      <point x="96.0" y="957.0" type="line"/>
      <point x="94.0" y="934.0"/>
      <point x="85.0" y="887.0"/>
      <point x="10.0" y="887.0" type="curve" smooth="yes"/>
      <point x="-66.0" y="887.0"/>
      <point x="-72.0" y="934.0"/>
      <point x="-74.0" y="957.0" type="curve"/>
      <point x="-168.0" y="957.0" type="line"/>
      <point x="-171.0" y="858.0"/>
      <point x="-111.0" y="788.0"/>
    </contour>
    <contour>
      <point x="-2.0" y="935.0" type="line"/>
      <point x="46.0" y="952.0"/>
      <point x="134.0" y="1030.0"/>
      <point x="177.0" y="1085.0" type="curve"/>
      <point x="71.0" y="1149.0" type="line"/>
      <point x="62.0" y="1124.0"/>
      <point x="-60.0" y="1009.0"/>
      <point x="-73.0" y="996.0" type="curve"/>
    </contour>
  </outline>
</glyph>
<glyph name="brevecomb_gravecomb.case" format="2">
  <anchor x="0.0" y="830.0" name="_top"/>
  <anchor x="1.0" y="1169.0" name="top"/>
  <outline>
    <contour>
      <point x="1.0" y="788.0" type="curve" smooth="yes"/>
      <point x="116.0" y="788.0"/>
      <point x="182.0" y="858.0"/>
      <point x="178.0" y="957.0" type="curve"/>
      <point x="87.0" y="957.0" type="line"/>
      <point x="85.0" y="934.0"/>
      <point x="76.0" y="887.0"/>
      <point x="1.0" y="887.0" type="curve" smooth="yes"/>
      <point x="-75.0" y="887.0"/>
      <point x="-81.0" y="934.0"/>
      <point x="-83.0" y="957.0" type="curve"/>
      <point x="-177.0" y="957.0" type="line"/>
      <point x="-180.0" y="858.0"/>
      <point x="-120.0" y="788.0"/>
    </contour>
    <contour>
      <point x="83.0" y="1016.0" type="line"/>
      <point x="70.0" y="1029.0"/>
      <point x="-52.0" y="1144.0"/>
      <point x="-61.0" y="1169.0" type="curve"/>
      <point x="-167.0" y="1105.0" type="line"/>
      <point x="-129.0" y="1052.0"/>
      <point x="-32.0" y="970.0"/>
      <point x="12.0" y="955.0" type="curve"/>
    </contour>
  </outline>
</glyph>
<glyph name="brevecomb_tildecomb" format="2">
  <anchor x="0.0" y="830.0" name="_top"/>
  <anchor x="9.0" y="1014.0" name="top"/>
  <outline>
    <contour>
      <point x="10.0" y="633.0" type="curve" smooth="yes"/>
      <point x="125.0" y="633.0"/>
      <point x="191.0" y="710.0"/>
      <point x="187.0" y="809.0" type="curve"/>
      <point x="96.0" y="809.0" type="line"/>
      <point x="94.0" y="786.0"/>
      <point x="85.0" y="732.0"/>
      <point x="10.0" y="732.0" type="curve" smooth="yes"/>
      <point x="-66.0" y="732.0"/>
      <point x="-72.0" y="786.0"/>
      <point x="-74.0" y="809.0" type="curve"/>
      <point x="-168.0" y="809.0" type="line"/>
      <point x="-171.0" y="710.0"/>
      <point x="-111.0" y="633.0"/>
    </contour>
    <contour>
      <point x="69.0" y="865.0" type="curve" smooth="yes"/>
      <point x="132.0" y="865.0"/>
      <point x="169.0" y="913.0"/>
      <point x="188.0" y="974.0" type="curve"/>
      <point x="129.0" y="996.0" type="line"/>
      <point x="123.0" y="968.0"/>
      <point x="103.0" y="949.0"/>
      <point x="75.0" y="949.0" type="curve" smooth="yes"/>
      <point x="34.0" y="949.0"/>
      <point x="19.0" y="1014.0"/>
      <point x="-51.0" y="1014.0" type="curve" smooth="yes"/>
      <point x="-113.0" y="1014.0"/>
      <point x="-153.0" y="959.0"/>
      <point x="-170.0" y="907.0" type="curve"/>
      <point x="-111.0" y="881.0" type="line"/>
      <point x="-105.0" y="908.0"/>
      <point x="-84.0" y="931.0"/>
      <point x="-56.0" y="931.0" type="curve" smooth="yes"/>
      <point x="-14.0" y="931.0"/>
      <point x="3.0" y="865.0"/>
    </contour>
  </outline>
</glyph>
<glyph name="caroncomb.case" format="2">
  <anchor x="0.0" y="830.0" name="_top"/>
  <anchor x="0.0" y="1053.0" name="top"/>
  <outline>
    <contour>
      <point x="-53.0" y="808.0" type="line"/>
      <point x="54.0" y="808.0" type="line"/>
      <point x="184.0" y="951.0" type="line"/>
      <point x="109.0" y="995.0" type="line"/>
      <point x="0.0" y="907.0" type="line"/>
      <point x="-107.0" y="995.0" type="line"/>
      <point x="-184.0" y="950.0" type="line"/>
    </contour>
  </outline>
</glyph>
<glyph name="circumflexcomb_acutecomb.case" format="2">
  <anchor x="14.0" y="831.0" name="_top"/>
  <anchor x="104.0" y="1091.0" name="top"/>
  <outline>
    <contour>
      <point x="-94.0" y="762.0" type="line"/>
      <point x="14.0" y="859.0" type="line"/>
      <point x="122.0" y="762.0" type="line"/>
      <point x="203.0" y="807.0" type="line"/>
      <point x="68.0" y="957.0" type="line"/>
      <point x="-39.0" y="957.0" type="line"/>
      <point x="-173.0" y="806.0" type="line"/>
    </contour>
    <contour>
      <point x="202.0" y="877.0" type="line"/>
      <point x="250.0" y="894.0"/>
      <point x="338.0" y="972.0"/>
      <point x="381.0" y="1027.0" type="curve"/>
      <point x="275.0" y="1091.0" type="line"/>
      <point x="266.0" y="1066.0"/>
      <point x="144.0" y="951.0"/>
      <point x="131.0" y="938.0" type="curve"/>
    </contour>
  </outline>
</glyph>
<glyph name="circumflexcomb_gravecomb.case" format="2">
  <anchor x="-1.0" y="831.0" name="_top"/>
  <anchor x="41.0" y="1117.0" name="top"/>
  <outline>
    <contour>
      <point x="-109.0" y="762.0" type="line"/>
      <point x="-1.0" y="859.0" type="line"/>
      <point x="107.0" y="762.0" type="line"/>
      <point x="188.0" y="807.0" type="line"/>
      <point x="53.0" y="957.0" type="line"/>
      <point x="-54.0" y="957.0" type="line"/>
      <point x="-188.0" y="806.0" type="line"/>
    </contour>
    <contour>
      <point x="269.0" y="964.0" type="line"/>
      <point x="256.0" y="977.0"/>
      <point x="134.0" y="1092.0"/>
      <point x="125.0" y="1117.0" type="curve"/>
      <point x="19.0" y="1053.0" type="line"/>
      <point x="57.0" y="1000.0"/>
      <point x="154.0" y="918.0"/>
      <point x="198.0" y="903.0" type="curve"/>
    </contour>
  </outline>
</glyph>
<glyph name="circumflexcomb_hookabovecomb.case" format="2">
  <anchor x="-1.0" y="831.0" name="_top"/>
  <anchor x="165.0" y="1141.0" name="top"/>
  <outline>
    <contour>
      <point x="-109.0" y="762.0" type="line"/>
      <point x="-1.0" y="859.0" type="line"/>
      <point x="107.0" y="762.0" type="line"/>
      <point x="188.0" y="807.0" type="line"/>
      <point x="53.0" y="957.0" type="line"/>
      <point x="-54.0" y="957.0" type="line"/>
      <point x="-188.0" y="806.0" type="line"/>
    </contour>
    <contour>
      <point x="132.0" y="926.0" type="curve"/>
      <point x="199.0" y="926.0" type="line"/>
      <point x="191.0" y="955.0"/>
      <point x="199.0" y="981.0"/>
      <point x="218.0" y="996.0" type="curve" smooth="yes"/>
      <point x="241.0" y="1014.0"/>
      <point x="272.0" y="1046.0"/>
      <point x="272.0" y="1089.0" type="curve" smooth="yes"/>
      <point x="272.0" y="1142.0"/>
      <point x="223.0" y="1182.0"/>
      <point x="130.0" y="1182.0" type="curve" smooth="yes"/>
      <point x="97.0" y="1182.0"/>
      <point x="63.0" y="1173.0"/>
      <point x="42.0" y="1164.0" type="curve"/>
      <point x="44.0" y="1089.0" type="line"/>
      <point x="55.0" y="1097.0"/>
      <point x="85.0" y="1105.0"/>
      <point x="104.0" y="1105.0" type="curve" smooth="yes"/>
      <point x="145.0" y="1105.0"/>
      <point x="167.0" y="1089.0"/>
      <point x="167.0" y="1062.0" type="curve" smooth="yes"/>
      <point x="167.0" y="1024.0"/>
      <point x="119.0" y="1028.0"/>
      <point x="119.0" y="970.0" type="curve"/>
      <point x="119.0" y="950.0"/>
      <point x="124.0" y="940.0"/>
    </contour>
  </outline>
</glyph>
<glyph name="circumflexcomb_tildecomb" format="2">
  <anchor x="0.0" y="830.0" name="_top"/>
  <anchor x="-1.0" y="1035.0" name="top"/>
  <outline>
    <contour>
      <point x="-118.0" y="617.0" type="line"/>
      <point x="0.0" y="712.0" type="line"/>
      <point x="114.0" y="617.0" type="line"/>
      <point x="191.0" y="658.0" type="line"/>
      <point x="50.0" y="823.0" type="line"/>
      <point x="-49.0" y="823.0" type="line"/>
      <point x="-192.0" y="657.0" type="line"/>
    </contour>
    <contour>
      <point x="69.0" y="886.0" type="curve" smooth="yes"/>
      <point x="132.0" y="886.0"/>
      <point x="169.0" y="934.0"/>
      <point x="188.0" y="995.0" type="curve"/>
      <point x="129.0" y="1017.0" type="line"/>
      <point x="123.0" y="989.0"/>
      <point x="103.0" y="970.0"/>
      <point x="75.0" y="970.0" type="curve" smooth="yes"/>
      <point x="34.0" y="970.0"/>
      <point x="19.0" y="1035.0"/>
      <point x="-51.0" y="1035.0" type="curve" smooth="yes"/>
      <point x="-113.0" y="1035.0"/>
      <point x="-153.0" y="980.0"/>
      <point x="-170.0" y="928.0" type="curve"/>
      <point x="-111.0" y="902.0" type="line"/>
      <point x="-105.0" y="929.0"/>
      <point x="-84.0" y="952.0"/>
      <point x="-56.0" y="952.0" type="curve" smooth="yes"/>
      <point x="-14.0" y="952.0"/>
      <point x="3.0" y="886.0"/>
    </contour>
  </outline>
</glyph>
<glyph name="commaaccentcomb.case" format="2">
  <anchor x="99.0" y="0.0" name="_bottom"/>
  <anchor x="87.0" y="-83.0" name="_btm"/>
  <anchor x="99.0" y="-273.0" name="bottom"/>
  <outline>
    <contour>
      <point x="97.0" y="-273.0" type="line"/>
      <point x="117.0" y="-266.0"/>
      <point x="170.0" y="-216.0"/>
      <point x="170.0" y="-137.0" type="curve" smooth="yes"/>
      <point x="170.0" y="-81.0"/>
      <point x="137.0" y="-47.0"/>
      <point x="117.0" y="-42.0" type="curve"/>
      <point x="27.0" y="-90.0" type="line"/>
      <point x="27.0" y="-114.0" type="line"/>
      <point x="41.0" y="-121.0"/>
      <point x="57.0" y="-147.0"/>
      <point x="57.0" y="-173.0" type="curve" smooth="yes"/>
      <point x="57.0" y="-209.0"/>
      <point x="51.0" y="-229.0"/>
      <point x="42.0" y="-239.0" type="curve"/>
      <point x="42.0" y="-252.0" type="line"/>
    </contour>
  </outline>
</glyph>
<glyph name="d.sc" format="2">
  <advance width="733.0"/>
  <anchor x="367.0" y="0.0" name="bottom"/>
  <anchor x="359.0" y="-109.0" name="btm"/>
  <anchor x="367.0" y="323.0" name="center"/>
  <anchor x="368.0" y="909.0" name="top"/>
  <outline>
    <contour>
      <point x="88.0" y="0.0" type="line"/>
      <point x="111.0" y="0.0"/>
      <point x="134.0" y="0.0"/>
      <point x="158.0" y="0.0" type="curve" smooth="yes"/>
      <point x="204.0" y="0.0"/>
      <point x="252.0" y="-7.0"/>
      <point x="325.0" y="-7.0" type="curve" smooth="yes"/>
      <point x="547.0" y="-8.0"/>
      <point x="686.0" y="119.0"/>
      <point x="686.0" y="339.0" type="curve" smooth="yes"/>
      <point x="686.0" y="538.0"/>
      <point x="576.0" y="653.0"/>
      <point x="336.0" y="653.0" type="curve" smooth="yes"/>
      <point x="262.0" y="653.0"/>
      <point x="198.0" y="646.0"/>
      <point x="158.0" y="646.0" type="curve" smooth="yes"/>
      <point x="134.0" y="646.0"/>
      <point x="111.0" y="646.0"/>
      <point x="88.0" y="646.0" type="curve"/>
    </contour>
    <contour>
      <point x="246.0" y="117.0" type="curve"/>
      <point x="246.0" y="533.0" type="line"/>
      <point x="262.0" y="535.0"/>
      <point x="296.0" y="539.0"/>
      <point x="324.0" y="539.0" type="curve" smooth="yes"/>
      <point x="457.0" y="539.0"/>
      <point x="521.0" y="483.0"/>
      <point x="521.0" y="326.0" type="curve" smooth="yes"/>
      <point x="521.0" y="176.0"/>
      <point x="447.0" y="110.0"/>
      <point x="338.0" y="110.0" type="curve" smooth="yes"/>
      <point x="302.0" y="110.0"/>
      <point x="267.0" y="112.0"/>
    </contour>
  </outline>
</glyph>
<glyph name="dieresiscomb.case" format="2">
  <anchor x="0.0" y="830.0" name="_top"/>
  <anchor x="0.0" y="1023.0" name="top"/>
  <outline>
    <contour>
      <point x="-132.0" y="809.0" type="curve" smooth="yes"/>
      <point x="-80.0" y="809.0"/>
      <point x="-41.0" y="847.0"/>
      <point x="-41.0" y="898.0" type="curve" smooth="yes"/>
      <point x="-41.0" y="945.0"/>
      <point x="-69.0" y="978.0"/>
      <point x="-123.0" y="978.0" type="curve" smooth="yes"/>
      <point x="-174.0" y="978.0"/>
      <point x="-214.0" y="939.0"/>
      <point x="-214.0" y="889.0" type="curve" smooth="yes"/>
      <point x="-214.0" y="841.0"/>
      <point x="-181.0" y="809.0"/>
    </contour>
    <contour>
      <point x="123.0" y="809.0" type="curve" smooth="yes"/>
      <point x="175.0" y="809.0"/>
      <point x="214.0" y="847.0"/>
      <point x="214.0" y="898.0" type="curve" smooth="yes"/>
      <point x="214.0" y="945.0"/>
      <point x="186.0" y="978.0"/>
      <point x="132.0" y="978.0" type="curve" smooth="yes"/>
      <point x="81.0" y="978.0"/>
      <point x="41.0" y="939.0"/>
      <point x="41.0" y="889.0" type="curve" smooth="yes"/>
      <point x="41.0" y="841.0"/>
      <point x="73.0" y="809.0"/>
    </contour>
  </outline>
</glyph>
<glyph name="dotaccentcomb.case" format="2">
  <anchor x="0.0" y="830.0" name="_top"/>
  <anchor x="0.0" y="1036.0" name="top"/>
  <outline>
    <contour>
      <point x="-5.0" y="809.0" type="curve" smooth="yes"/>
      <point x="48.0" y="809.0"/>
      <point x="89.0" y="847.0"/>
      <point x="89.0" y="897.0" type="curve" smooth="yes"/>
      <point x="89.0" y="945.0"/>
      <point x="59.0" y="978.0"/>
      <point x="5.0" y="978.0" type="curve" smooth="yes"/>
      <point x="-47.0" y="978.0"/>
      <point x="-89.0" y="939.0"/>
      <point x="-89.0" y="889.0" type="curve" smooth="yes"/>
      <point x="-89.0" y="840.0"/>
      <point x="-55.0" y="809.0"/>
    </contour>
  </outline>
</glyph>
<glyph name="e.sc" format="2">
  <advance width="593.0"/>
  <anchor x="297.0" y="0.0" name="bottom"/>
  <anchor x="331.0" y="-72.0" name="btm"/>
  <anchor x="534.0" y="10.0" name="ogonek"/>
  <anchor x="317.0" y="896.0" name="top"/>
  <anchor x="20.0" y="646.0" name="topleft"/>
  <outline>
    <contour>
      <point x="88.0" y="0.0" type="line"/>
      <point x="557.0" y="0.0" type="line"/>
      <point x="557.0" y="121.0" type="line"/>
      <point x="244.0" y="121.0" type="line"/>
      <point x="244.0" y="273.0" type="line"/>
      <point x="462.0" y="273.0" type="line"/>
      <point x="462.0" y="388.0" type="line"/>
      <point x="244.0" y="388.0" type="line"/>
      <point x="244.0" y="528.0" type="line"/>
      <point x="527.0" y="528.0" type="line"/>
      <point x="527.0" y="646.0" type="line"/>
      <point x="88.0" y="646.0" type="line"/>
    </contour>
  </outline>
</glyph>
<glyph name="eight.tf" format="2">
  <advance width="658.0"/>
  <outline>
    <contour>
      <point x="336.0" y="-8.0" type="curve" smooth="yes"/>
      <point x="483.0" y="-8.0"/>
      <point x="601.0" y="64.0"/>
      <point x="600.0" y="200.0" type="curve" smooth="yes"/>
      <point x="598.0" y="408.0"/>
      <point x="228.0" y="423.0"/>
      <point x="228.0" y="573.0" type="curve" smooth="yes"/>
      <point x="228.0" y="620.0"/>
      <point x="273.0" y="652.0"/>
      <point x="329.0" y="652.0" type="curve" smooth="yes"/>
      <point x="395.0" y="652.0"/>
      <point x="434.0" y="616.0"/>
      <point x="434.0" y="570.0" type="curve" smooth="yes"/>
      <point x="434.0" y="514.0"/>
      <point x="405.0" y="460.0"/>
      <point x="330.0" y="438.0" type="curve"/>
      <point x="390.0" y="374.0" type="line"/>
      <point x="514.0" y="409.0"/>
      <point x="569.0" y="502.0"/>
      <point x="569.0" y="582.0" type="curve" smooth="yes"/>
      <point x="569.0" y="684.0"/>
      <point x="480.0" y="754.0"/>
      <point x="331.0" y="754.0" type="curve" smooth="yes"/>
      <point x="181.0" y="754.0"/>
      <point x="87.0" y="677.0"/>
      <point x="87.0" y="563.0" type="curve" smooth="yes"/>
      <point x="87.0" y="317.0"/>
      <point x="448.0" y="324.0"/>
      <point x="448.0" y="185.0" type="curve" smooth="yes"/>
      <point x="448.0" y="124.0"/>
      <point x="395.0" y="94.0"/>
      <point x="336.0" y="94.0" type="curve" smooth="yes"/>
      <point x="244.0" y="94.0"/>
      <point x="206.0" y="143.0"/>
      <point x="206.0" y="197.0" type="curve" smooth="yes"/>
      <point x="206.0" y="262.0"/>
      <point x="252.0" y="308.0"/>
      <point x="322.0" y="335.0" type="curve"/>
      <point x="256.0" y="399.0" type="line"/>
      <point x="112.0" y="345.0"/>
      <point x="62.0" y="261.0"/>
      <point x="62.0" y="188.0" type="curve" smooth="yes"/>
      <point x="62.0" y="57.0"/>
      <point x="179.0" y="-8.0"/>
    </contour>
  </outline>
</glyph>
<glyph name="eng.sc" format="2">
  <advance width="765.0"/>
  <outline>
    <contour>
      <point x="241.0" y="0.0" type="line"/>
      <point x="241.0" y="285.0" type="line"/>
      <point x="209.0" y="557.0" type="line"/>
      <point x="169.0" y="557.0" type="line"/>
      <point x="275.0" y="349.0" type="line"/>
      <point x="517.0" y="5.0" type="line"/>
      <point x="517.0" y="-58.0"/>
      <point x="428.0" y="-117.0"/>
      <point x="348.0" y="-138.0" type="curve"/>
      <point x="382.0" y="-197.0" type="line"/>
      <point x="512.0" y="-197.0"/>
      <point x="631.0" y="-125.0"/>
      <point x="660.0" y="-40.0" type="curve" smooth="yes"/>
      <point x="679.0" y="17.0"/>
      <point x="676.0" y="64.0"/>
      <point x="676.0" y="141.0" type="curve" smooth="yes"/>
      <point x="676.0" y="646.0" type="line"/>
      <point x="524.0" y="646.0" type="line"/>
      <point x="524.0" y="357.0" type="line"/>
      <point x="548.0" y="117.0" type="line"/>
      <point x="575.0" y="117.0" type="line"/>
      <point x="489.0" y="288.0" type="line"/>
      <point x="240.0" y="646.0" type="line"/>
      <point x="88.0" y="646.0" type="line"/>
      <point x="89.0" y="0.0" type="line"/>
    </contour>
  </outline>
</glyph>
<glyph name="five.dnom" format="2">
  <advance width="507.0"/>
  <outline>
    <contour>
      <point x="126.0" y="-7.0" type="curve" smooth="yes"/>
      <point x="338.0" y="-7.0"/>
      <point x="457.0" y="74.0"/>
      <point x="457.0" y="202.0" type="curve" smooth="yes"/>
      <point x="457.0" y="302.0"/>
      <point x="399.0" y="360.0"/>
      <point x="285.0" y="360.0" type="curve" smooth="yes"/>
      <point x="257.0" y="360.0"/>
      <point x="212.0" y="355.0"/>
      <point x="183.0" y="345.0" type="curve"/>
      <point x="195.0" y="443.0" type="line"/>
      <point x="427.0" y="443.0" type="line"/>
      <point x="439.0" y="550.0" type="line"/>
      <point x="99.0" y="550.0" type="line"/>
      <point x="76.0" y="257.0" type="line"/>
      <point x="102.0" y="244.0" type="line"/>
      <point x="135.0" y="256.0"/>
      <point x="176.0" y="266.0"/>
      <point x="209.0" y="266.0" type="curve" smooth="yes"/>
      <point x="287.0" y="266.0"/>
      <point x="319.0" y="243.0"/>
      <point x="319.0" y="196.0" type="curve" smooth="yes"/>
      <point x="319.0" y="131.0"/>
      <point x="235.0" y="89.0"/>
      <point x="99.0" y="89.0" type="curve" smooth="yes"/>
      <point x="90.0" y="89.0"/>
      <point x="80.0" y="89.0"/>
      <point x="70.0" y="89.0" type="curve"/>
      <point x="70.0" y="-1.0" type="line"/>
      <point x="87.0" y="-5.0"/>
      <point x="115.0" y="-7.0"/>
    </contour>
  </outline>
</glyph>
<glyph name="five.tosf" format="2">
  <advance width="677.0"/>
  <outline>
    <contour>
      <point x="175.0" y="-173.0" type="curve" smooth="yes"/>
      <point x="440.0" y="-171.0"/>
      <point x="601.0" y="-44.0"/>
      <point x="601.0" y="120.0" type="curve" smooth="yes"/>
      <point x="601.0" y="250.0"/>
      <point x="516.0" y="335.0"/>
      <point x="366.0" y="335.0" type="curve" smooth="yes"/>
      <point x="327.0" y="335.0"/>
      <point x="287.0" y="329.0"/>
      <point x="236.0" y="318.0" type="curve"/>
      <point x="254.0" y="482.0" type="line"/>
      <point x="565.0" y="482.0" type="line"/>
      <point x="579.0" y="612.0" type="line"/>
      <point x="142.0" y="612.0" type="line"/>
      <point x="108.0" y="204.0" type="line"/>
      <point x="135.0" y="189.0" type="line"/>
      <point x="192.0" y="206.0"/>
      <point x="244.0" y="221.0"/>
      <point x="289.0" y="221.0" type="curve" smooth="yes"/>
      <point x="402.0" y="221.0"/>
      <point x="445.0" y="185.0"/>
      <point x="445.0" y="114.0" type="curve" smooth="yes"/>
      <point x="445.0" y="10.0"/>
      <point x="321.0" y="-61.0"/>
      <point x="145.0" y="-61.0" type="curve" smooth="yes"/>
      <point x="133.0" y="-61.0"/>
      <point x="118.0" y="-61.0"/>
      <point x="105.0" y="-60.0" type="curve"/>
      <point x="105.0" y="-167.0" type="line"/>
      <point x="130.0" y="-173.0"/>
      <point x="153.0" y="-173.0"/>
    </contour>
  </outline>
</glyph>
<glyph name="four.dnom" format="2">
  <advance width="537.0"/>
  <outline>
    <contour>
      <point x="51.0" y="110.0" type="line"/>
      <point x="514.0" y="110.0" type="line"/>
      <point x="514.0" y="203.0" type="line"/>
      <point x="160.0" y="203.0" type="line"/>
      <point x="207.0" y="278.0" type="line"/>
      <point x="258.0" y="367.0"/>
      <point x="291.0" y="419.0"/>
      <point x="369.0" y="556.0" type="curve"/>
      <point x="210.0" y="556.0" type="line"/>
      <point x="137.0" y="410.0"/>
      <point x="81.0" y="285.0"/>
      <point x="20.0" y="154.0" type="curve"/>
    </contour>
    <contour>
      <point x="304.0" y="0.0" type="line"/>
      <point x="431.0" y="0.0" type="line"/>
      <point x="431.0" y="332.0" type="line"/>
      <point x="316.0" y="332.0" type="line"/>
      <point x="304.0" y="187.0" type="line"/>
    </contour>
  </outline>
</glyph>
<glyph name="four.sc" format="2">
  <advance width="689.0"/>
  <outline>
    <contour>
      <point x="76.0" y="147.0" type="line"/>
      <point x="655.0" y="147.0" type="line"/>
      <point x="655.0" y="261.0" type="line"/>
      <point x="205.0" y="261.0" type="line"/>
      <point x="242.0" y="323.0" type="line"/>
      <point x="317.0" y="461.0"/>
      <point x="368.0" y="552.0"/>
      <point x="443.0" y="690.0" type="curve"/>
      <point x="324.0" y="750.0" type="line"/>
      <point x="288.0" y="750.0" type="line"/>
      <point x="203.0" y="555.0"/>
      <point x="136.0" y="407.0"/>
      <point x="39.0" y="212.0" type="curve"/>
    </contour>
    <contour>
      <point x="394.0" y="0.0" type="line"/>
      <point x="541.0" y="0.0" type="line"/>
      <point x="541.0" y="498.0" type="line"/>
      <point x="413.0" y="498.0" type="line"/>
      <point x="394.0" y="298.0" type="line"/>
    </contour>
  </outline>
</glyph>
<glyph name="germandbls.sc" format="2">
  <advance width="717.0"/>
  <anchor x="359.0" y="0.0" name="bottom"/>
  <anchor x="359.0" y="646.0" name="top"/>
  <outline>
    <contour>
      <point x="50.0" y="0.0" type="line"/>
      <point x="215.0" y="0.0" type="line"/>
      <point x="215.0" y="369.0" type="line" smooth="yes"/>
      <point x="215.0" y="486.0"/>
      <point x="282.0" y="545.0"/>
      <point x="402.0" y="545.0" type="curve" smooth="yes"/>
      <point x="443.0" y="545.0"/>
      <point x="472.0" y="538.0"/>
      <point x="492.0" y="529.0" type="curve"/>
      <point x="358.0" y="383.0" type="line"/>
      <point x="355.0" y="300.0" type="line"/>
      <point x="489.0" y="300.0"/>
      <point x="542.0" y="267.0"/>
      <point x="542.0" y="193.0" type="curve" smooth="yes"/>
      <point x="542.0" y="125.0"/>
      <point x="483.0" y="99.0"/>
      <point x="433.0" y="99.0" type="curve" smooth="yes"/>
      <point x="382.0" y="99.0"/>
      <point x="340.0" y="119.0"/>
      <point x="322.0" y="128.0" type="curve"/>
      <point x="281.0" y="24.0" type="line"/>
      <point x="315.0" y="8.0"/>
      <point x="362.0" y="-10.0"/>
      <point x="463.0" y="-10.0" type="curve" smooth="yes"/>
      <point x="611.0" y="-10.0"/>
      <point x="709.0" y="73.0"/>
      <point x="709.0" y="206.0" type="curve" smooth="yes"/>
      <point x="709.0" y="323.0"/>
      <point x="602.0" y="379.0"/>
      <point x="538.0" y="379.0" type="curve"/>
      <point x="656.0" y="486.0" type="line"/>
      <point x="657.0" y="612.0" type="line"/>
      <point x="609.0" y="612.0"/>
      <point x="527.0" y="653.0"/>
      <point x="399.0" y="653.0" type="curve" smooth="yes"/>
      <point x="172.0" y="653.0"/>
      <point x="50.0" y="527.0"/>
      <point x="50.0" y="320.0" type="curve" smooth="yes"/>
    </contour>
  </outline>
</glyph>
<glyph name="guilsinglleft.case" format="2">
  <advance width="593.0"/>
  <outline>
    <contour>
      <point x="115.0" y="316.0" type="line"/>
      <point x="435.0" y="113.0" type="line"/>
      <point x="472.0" y="218.0" type="line"/>
      <point x="226.0" y="403.0" type="line"/>
      <point x="226.0" y="349.0" type="line"/>
      <point x="472.0" y="535.0" type="line"/>
      <point x="435.0" y="641.0" type="line"/>
      <point x="115.0" y="435.0" type="line"/>
    </contour>
  </outline>
</glyph>
<glyph name="h.sc" format="2">
  <advance width="758.0"/>
  <anchor x="379.0" y="0.0" name="bottom"/>
  <anchor x="367.0" y="-72.0" name="btm"/>
  <anchor x="379.0" y="323.0" name="center"/>
  <anchor x="379.0" y="722.0" name="top"/>
  <anchor x="20.0" y="646.0" name="topleft"/>
  <outline>
    <contour>
      <point x="88.0" y="0.0" type="line"/>
      <point x="245.0" y="0.0" type="line"/>
      <point x="245.0" y="269.0" type="line"/>
      <point x="514.0" y="269.0" type="line"/>
      <point x="514.0" y="0.0" type="line"/>
      <point x="670.0" y="0.0" type="line"/>
      <point x="670.0" y="646.0" type="line"/>
      <point x="514.0" y="646.0" type="line"/>
      <point x="514.0" y="384.0" type="line"/>
      <point x="245.0" y="384.0" type="line"/>
      <point x="245.0" y="646.0" type="line"/>
      <point x="88.0" y="646.0" type="line"/>
    </contour>
  </outline>
</glyph>
<glyph name="hookabovecomb.case" format="2">
  <anchor x="0.0" y="837.0" name="_top"/>
  <anchor x="0.0" y="990.0" name="top"/>
  <outline>
    <contour>
      <point x="-33.0" y="815.0" type="curve"/>
      <point x="34.0" y="815.0" type="line"/>
      <point x="26.0" y="844.0"/>
      <point x="34.0" y="870.0"/>
      <point x="53.0" y="885.0" type="curve" smooth="yes"/>
      <point x="76.0" y="903.0"/>
      <point x="107.0" y="935.0"/>
      <point x="107.0" y="978.0" type="curve" smooth="yes"/>
      <point x="107.0" y="1031.0"/>
      <point x="58.0" y="1071.0"/>
      <point x="-35.0" y="1071.0" type="curve" smooth="yes"/>
      <point x="-68.0" y="1071.0"/>
      <point x="-102.0" y="1062.0"/>
      <point x="-123.0" y="1053.0" type="curve"/>
      <point x="-121.0" y="978.0" type="line"/>
      <point x="-110.0" y="986.0"/>
      <point x="-80.0" y="994.0"/>
      <point x="-61.0" y="994.0" type="curve" smooth="yes"/>
      <point x="-20.0" y="994.0"/>
      <point x="2.0" y="978.0"/>
      <point x="2.0" y="951.0" type="curve" smooth="yes"/>
      <point x="2.0" y="913.0"/>
      <point x="-46.0" y="917.0"/>
      <point x="-46.0" y="859.0" type="curve"/>
      <point x="-46.0" y="839.0"/>
      <point x="-41.0" y="829.0"/>
    </contour>
  </outline>
</glyph>
<glyph name="hungarumlautcomb.case" format="2">
  <anchor x="205.0" y="831.0" name="_top"/>
  <anchor x="258.0" y="957.0" name="top"/>
  <outline>
    <contour>
      <point x="102.0" y="758.0" type="line"/>
      <point x="141.0" y="775.0"/>
      <point x="203.0" y="844.0"/>
      <point x="243.0" y="902.0" type="curve"/>
      <point x="130.0" y="957.0" type="line"/>
      <point x="122.0" y="932.0"/>
      <point x="37.0" y="827.0"/>
      <point x="23.0" y="814.0" type="curve"/>
    </contour>
    <contour>
      <point x="352.0" y="758.0" type="line"/>
      <point x="392.0" y="775.0"/>
      <point x="456.0" y="844.0"/>
      <point x="493.0" y="900.0" type="curve"/>
      <point x="383.0" y="956.0" type="line"/>
      <point x="374.0" y="931.0"/>
      <point x="287.0" y="827.0"/>
      <point x="273.0" y="814.0" type="curve"/>
    </contour>
  </outline>
</glyph>
<glyph name="j.sc" format="2">
  <advance width="379.0"/>
  <anchor x="190.0" y="0.0" name="bottom"/>
  <anchor x="126.0" y="-72.0" name="btm"/>
  <anchor x="203.0" y="723.0" name="top"/>
  <outline>
    <contour>
      <point x="31.0" y="-141.0" type="line"/>
      <point x="110.0" y="-143.0"/>
      <point x="250.0" y="-87.0"/>
      <point x="277.0" y="42.0" type="curve" smooth="yes"/>
      <point x="289.0" y="101.0"/>
      <point x="285.0" y="176.0"/>
      <point x="285.0" y="260.0" type="curve" smooth="yes"/>
      <point x="285.0" y="646.0" type="line"/>
      <point x="127.0" y="646.0" type="line"/>
      <point x="127.0" y="258.0" type="line" smooth="yes"/>
      <point x="127.0" y="162.0"/>
      <point x="127.0" y="97.0"/>
      <point x="113.0" y="48.0" type="curve" smooth="yes"/>
      <point x="94.0" y="-17.0"/>
      <point x="42.0" y="-45.0"/>
      <point x="-6.0" y="-61.0" type="curve"/>
    </contour>
  </outline>
</glyph>
<glyph name="k.sc" format="2">
  <advance width="684.0"/>
  <anchor x="342.0" y="0.0" name="bottom"/>
  <anchor x="354.0" y="-72.0" name="btm"/>
  <anchor x="354.0" y="723.0" name="top"/>
  <outline>
    <contour>
      <point x="88.0" y="0.0" type="line"/>
      <point x="245.0" y="0.0" type="line"/>
      <point x="245.0" y="261.0" type="line"/>
      <point x="224.0" y="165.0" type="line"/>
      <point x="349.0" y="303.0" type="line"/>
      <point x="379.0" y="330.0" type="line"/>
      <point x="660.0" y="646.0" type="line"/>
      <point x="488.0" y="646.0" type="line"/>
      <point x="245.0" y="372.0" type="line"/>
      <point x="245.0" y="646.0" type="line"/>
      <point x="88.0" y="646.0" type="line"/>
    </contour>
    <contour>
      <point x="465.0" y="51.0" type="curve" smooth="yes"/>
      <point x="483.0" y="21.0"/>
      <point x="486.0" y="11.0"/>
      <point x="495.0" y="0.0" type="curve"/>
      <point x="670.0" y="0.0" type="line"/>
      <point x="659.0" y="16.0"/>
      <point x="650.0" y="31.0"/>
      <point x="639.0" y="47.0" type="curve"/>
      <point x="572.0" y="160.0"/>
      <point x="447.0" y="332.0"/>
      <point x="409.0" y="386.0" type="curve"/>
      <point x="358.0" y="335.0" type="line"/>
      <point x="305.0" y="273.0" type="line"/>
      <point x="348.0" y="215.0"/>
      <point x="418.0" y="128.0"/>
    </contour>
  </outline>
</glyph>
<glyph name="l.sc" format="2">
  <advance width="529.0"/>
  <anchor x="265.0" y="0.0" name="bottom"/>
  <anchor x="287.0" y="-72.0" name="btm"/>
  <anchor x="265.0" y="323.0" name="center"/>
  <anchor x="167.0" y="722.0" name="top"/>
  <anchor x="509.0" y="646.0" name="topright"/>
  <outline>
    <contour>
      <point x="88.0" y="0.0" type="line"/>
      <point x="497.0" y="0.0" type="line"/>
      <point x="497.0" y="119.0" type="line"/>
      <point x="245.0" y="119.0" type="line"/>
      <point x="245.0" y="646.0" type="line"/>
      <point x="88.0" y="646.0" type="line"/>
    </contour>
  </outline>
</glyph>
<glyph name="lslash.sc" format="2">
  <advance width="530.0"/>
  <anchor x="288.0" y="-72.0" name="btm"/>
  <anchor x="167.0" y="722.0" name="top"/>
  <outline>
    <contour>
      <point x="13.0" y="322.0" type="line"/>
      <point x="44.0" y="241.0" type="line"/>
      <point x="417.0" y="365.0" type="line"/>
      <point x="385.0" y="447.0" type="line"/>
    </contour>
    <contour>
      <point x="89.0" y="0.0" type="line"/>
      <point x="498.0" y="0.0" type="line"/>
      <point x="498.0" y="119.0" type="line"/>
      <point x="246.0" y="119.0" type="line"/>
      <point x="246.0" y="646.0" type="line"/>
      <point x="89.0" y="646.0" type="line"/>
    </contour>
  </outline>
</glyph>
<glyph name="macroncomb.case" format="2">
  <anchor x="0.0" y="830.0" name="_top"/>
  <anchor x="0.0" y="993.0" name="top"/>
  <outline>
    <contour>
      <point x="-144.0" y="824.0" type="line"/>
      <point x="144.0" y="824.0" type="line"/>
      <point x="144.0" y="924.0" type="line"/>
      <point x="-144.0" y="924.0" type="line"/>
    </contour>
  </outline>
</glyph>
<glyph name="nine.dnom" format="2">
  <advance width="554.0"/>
  <outline>
    <contour>
      <point x="50.0" y="352.0" type="curve" smooth="yes"/>
      <point x="50.0" y="249.0"/>
      <point x="118.0" y="173.0"/>
      <point x="210.0" y="173.0" type="curve" smooth="yes"/>
      <point x="278.0" y="173.0"/>
      <point x="321.0" y="199.0"/>
      <point x="331.0" y="213.0" type="curve"/>
      <point x="306.0" y="280.0" type="line"/>
      <point x="294.0" y="276.0"/>
      <point x="283.0" y="271.0"/>
      <point x="256.0" y="271.0" type="curve" smooth="yes"/>
      <point x="214.0" y="271.0"/>
      <point x="182.0" y="304.0"/>
      <point x="182.0" y="375.0" type="curve" smooth="yes"/>
      <point x="182.0" y="431.0"/>
      <point x="214.0" y="467.0"/>
      <point x="268.0" y="467.0" type="curve" smooth="yes"/>
      <point x="340.0" y="467.0"/>
      <point x="363.0" y="401.0"/>
      <point x="362.0" y="295.0" type="curve" smooth="yes"/>
      <point x="361.0" y="190.0"/>
      <point x="277.0" y="58.0"/>
      <point x="127.0" y="23.0" type="curve"/>
      <point x="159.0" y="-53.0" type="line"/>
      <point x="300.0" y="-37.0"/>
      <point x="504.0" y="103.0"/>
      <point x="504.0" y="325.0" type="curve"/>
      <point x="504.0" y="466.0"/>
      <point x="415.0" y="559.0"/>
      <point x="285.0" y="559.0" type="curve" smooth="yes"/>
      <point x="134.0" y="559.0"/>
      <point x="50.0" y="472.0"/>
    </contour>
  </outline>
</glyph>
<glyph name="ohorn.sc" format="2">
  <advance width="753.0"/>
  <anchor x="377.0" y="0.0" name="bottom"/>
  <anchor x="375.0" y="-72.0" name="btm"/>
  <anchor x="382.0" y="872.0" name="top"/>
  <outline>
    <contour>
      <point x="373.0" y="-7.0" type="curve" smooth="yes"/>
      <point x="564.0" y="-4.0"/>
      <point x="700.0" y="96.0"/>
      <point x="705.0" y="325.0" type="curve" smooth="yes"/>
      <point x="709.0" y="528.0"/>
      <point x="586.0" y="658.0"/>
      <point x="387.0" y="653.0" type="curve" smooth="yes"/>
      <point x="191.0" y="648.0"/>
      <point x="52.0" y="555.0"/>
      <point x="47.0" y="326.0" type="curve" smooth="yes"/>
      <point x="43.0" y="120.0"/>
      <point x="168.0" y="-11.0"/>
    </contour>
    <contour>
      <point x="377.0" y="109.0" type="curve" smooth="yes"/>
      <point x="264.0" y="109.0"/>
      <point x="209.0" y="199.0"/>
      <point x="209.0" y="322.0" type="curve" smooth="yes"/>
      <point x="209.0" y="481.0"/>
      <point x="288.0" y="534.0"/>
      <point x="384.0" y="534.0" type="curve" smooth="yes"/>
      <point x="491.0" y="534.0"/>
      <point x="543.0" y="451.0"/>
      <point x="543.0" y="329.0" type="curve" smooth="yes"/>
      <point x="543.0" y="172.0"/>
      <point x="478.0" y="109.0"/>
    </contour>
    <contour>
      <point x="525.0" y="441.0" type="line"/>
      <point x="622.0" y="441.0"/>
      <point x="755.0" y="509.0"/>
      <point x="755.0" y="653.0" type="curve" smooth="yes"/>
      <point x="755.0" y="660.0"/>
      <point x="754.0" y="667.0"/>
      <point x="753.0" y="675.0" type="curve"/>
      <point x="637.0" y="675.0" type="line"/>
      <point x="638.0" y="671.0"/>
      <point x="637.0" y="665.0"/>
      <point x="636.0" y="658.0" type="curve" smooth="yes"/>
      <point x="630.0" y="617.0"/>
      <point x="607.0" y="556.0"/>
      <point x="525.0" y="556.0" type="curve"/>
    </contour>
  </outline>
</glyph>
<glyph name="one.dnom" format="2">
  <advance width="382.0"/>
  <outline>
    <contour>
      <point x="155.0" y="0.0" type="line"/>
      <point x="281.0" y="0.0" type="line"/>
      <point x="282.0" y="543.0" type="line"/>
      <point x="222.0" y="559.0" type="line"/>
      <point x="222.0" y="558.0" type="line"/>
      <point x="193.0" y="530.0"/>
      <point x="128.0" y="478.0"/>
      <point x="30.0" y="461.0" type="curve"/>
      <point x="44.0" y="393.0" type="line"/>
      <point x="107.0" y="397.0"/>
      <point x="123.0" y="403.0"/>
      <point x="155.0" y="416.0" type="curve"/>
    </contour>
  </outline>
</glyph>
<glyph name="one.sc" format="2">
  <advance width="490.0"/>
  <outline>
    <contour>
      <point x="191.0" y="0.0" type="line"/>
      <point x="348.0" y="0.0" type="line"/>
      <point x="349.0" y="742.0" type="line"/>
      <point x="273.0" y="752.0" type="line"/>
      <point x="236.0" y="721.0"/>
      <point x="127.0" y="668.0"/>
      <point x="62.0" y="651.0" type="curve"/>
      <point x="75.0" y="561.0" type="line"/>
      <point x="113.0" y="568.0"/>
      <point x="152.0" y="574.0"/>
      <point x="191.0" y="584.0" type="curve"/>
    </contour>
  </outline>
</glyph>
<glyph name="one.tosf" format="2">
  <advance width="658.0"/>
  <outline>
    <contour>
      <point x="72.0" y="104.0" type="line"/>
      <point x="72.0" y="0.0" type="line"/>
      <point x="629.0" y="0.0" type="line"/>
      <point x="629.0" y="104.0" type="line"/>
      <point x="462.0" y="104.0" type="line"/>
      <point x="463.0" y="672.0" type="line"/>
      <point x="368.0" y="695.0" type="line"/>
      <point x="368.0" y="695.0" type="line"/>
      <point x="326.0" y="653.0"/>
      <point x="195.0" y="580.0"/>
      <point x="71.0" y="558.0" type="curve"/>
      <point x="92.0" y="456.0" type="line"/>
      <point x="157.0" y="460.0"/>
      <point x="254.0" y="482.0"/>
      <point x="295.0" y="501.0" type="curve"/>
      <point x="295.0" y="104.0" type="line"/>
    </contour>
  </outline>
</glyph>
<glyph name="ringcomb.case" format="2">
  <anchor x="0.0" y="785.0" name="_top"/>
  <anchor x="75.0" y="925.0" name="top"/>
  <outline>
    <contour>
      <point x="-2.0" y="691.0" type="curve" smooth="yes"/>
      <point x="85.0" y="691.0"/>
      <point x="166.0" y="729.0"/>
      <point x="167.0" y="828.0" type="curve" smooth="yes"/>
      <point x="167.0" y="918.0"/>
      <point x="105.0" y="962.0"/>
      <point x="3.0" y="962.0" type="curve" smooth="yes"/>
      <point x="-80.0" y="962.0"/>
      <point x="-166.0" y="930.0"/>
      <point x="-167.0" y="830.0" type="curve" smooth="yes"/>
      <point x="-169.0" y="742.0"/>
      <point x="-107.0" y="691.0"/>
    </contour>
    <contour>
      <point x="-1.0" y="766.0" type="curve" smooth="yes"/>
      <point x="-46.0" y="766.0"/>
      <point x="-78.0" y="789.0"/>
      <point x="-78.0" y="830.0" type="curve" smooth="yes"/>
      <point x="-78.0" y="880.0"/>
      <point x="-42.0" y="891.0"/>
      <point x="-1.0" y="891.0" type="curve" smooth="yes"/>
      <point x="44.0" y="890.0"/>
      <point x="78.0" y="870.0"/>
      <point x="78.0" y="826.0" type="curve" smooth="yes"/>
      <point x="78.0" y="775.0"/>
      <point x="46.0" y="765.0"/>
    </contour>
  </outline>
</glyph>
<glyph name="s.sc" format="2">
  <advance width="572.0"/>
  <anchor x="286.0" y="0.0" name="bottom"/>
  <anchor x="286.0" y="-72.0" name="btm"/>
  <anchor x="308.0" y="892.0" name="top"/>
  <outline>
    <contour>
      <point x="288.0" y="-7.0" type="curve" smooth="yes"/>
      <point x="439.0" y="-7.0"/>
      <point x="537.0" y="67.0"/>
      <point x="537.0" y="183.0" type="curve" smooth="yes"/>
      <point x="537.0" y="286.0"/>
      <point x="456.0" y="334.0"/>
      <point x="341.0" y="384.0" type="curve" smooth="yes"/>
      <point x="254.0" y="421.0"/>
      <point x="218.0" y="443.0"/>
      <point x="218.0" y="483.0" type="curve" smooth="yes"/>
      <point x="218.0" y="516.0"/>
      <point x="247.0" y="538.0"/>
      <point x="323.0" y="538.0" type="curve" smooth="yes"/>
      <point x="392.0" y="538.0"/>
      <point x="446.0" y="517.0"/>
      <point x="479.0" y="497.0" type="curve"/>
      <point x="504.0" y="616.0" type="line"/>
      <point x="479.0" y="630.0"/>
      <point x="409.0" y="653.0"/>
      <point x="315.0" y="653.0" type="curve" smooth="yes"/>
      <point x="178.0" y="653.0"/>
      <point x="65.0" y="596.0"/>
      <point x="65.0" y="476.0" type="curve" smooth="yes"/>
      <point x="65.0" y="374.0"/>
      <point x="150.0" y="316.0"/>
      <point x="239.0" y="277.0" type="curve" smooth="yes"/>
      <point x="349.0" y="229.0"/>
      <point x="379.0" y="212.0"/>
      <point x="379.0" y="171.0" type="curve" smooth="yes"/>
      <point x="379.0" y="132.0"/>
      <point x="352.0" y="115.0"/>
      <point x="277.0" y="115.0" type="curve" smooth="yes"/>
      <point x="201.0" y="115.0"/>
      <point x="131.0" y="138.0"/>
      <point x="92.0" y="156.0" type="curve"/>
      <point x="71.0" y="33.0" type="line"/>
      <point x="96.0" y="18.0"/>
      <point x="191.0" y="-7.0"/>
    </contour>
  </outline>
</glyph>
<glyph name="schwa.sc" format="2">
  <advance width="725.0"/>
  <anchor x="363.0" y="0.0" name="bottom"/>
  <anchor x="349.0" y="-72.0" name="btm"/>
  <anchor x="345.0" y="723.0" name="top"/>
  <outline>
    <contour>
      <point x="336.0" y="-7.0" type="curve" smooth="yes"/>
      <point x="557.0" y="-7.0"/>
      <point x="677.0" y="133.0"/>
      <point x="677.0" y="324.0" type="curve" smooth="yes"/>
      <point x="677.0" y="559.0"/>
      <point x="522.0" y="653.0"/>
      <point x="349.0" y="654.0" type="curve" smooth="yes"/>
      <point x="223.0" y="655.0"/>
      <point x="135.0" y="617.0"/>
      <point x="87.0" y="586.0" type="curve"/>
      <point x="119.0" y="474.0" type="line"/>
      <point x="165.0" y="503.0"/>
      <point x="236.0" y="529.0"/>
      <point x="342.0" y="529.0" type="curve" smooth="yes"/>
      <point x="449.0" y="529.0"/>
      <point x="523.0" y="455.0"/>
      <point x="523.0" y="331.0" type="curve" smooth="yes"/>
      <point x="523.0" y="206.0"/>
      <point x="468.0" y="112.0"/>
      <point x="346.0" y="112.0" type="curve" smooth="yes"/>
      <point x="253.0" y="112.0"/>
      <point x="192.0" y="177.0"/>
      <point x="198.0" y="272.0" type="curve"/>
      <point x="552.0" y="272.0" type="line"/>
      <point x="564.0" y="376.0" type="line"/>
      <point x="55.0" y="376.0" type="line"/>
      <point x="51.0" y="349.0"/>
      <point x="48.0" y="332.0"/>
      <point x="48.0" y="284.0" type="curve" smooth="yes"/>
      <point x="48.0" y="76.0"/>
      <point x="191.0" y="-7.0"/>
    </contour>
  </outline>
</glyph>
<glyph name="seven.osf" format="2">
  <advance width="628.0"/>
  <outline>
    <contour>
      <point x="129.0" y="-147.0" type="curve"/>
      <point x="284.0" y="-192.0" type="line"/>
      <point x="578.0" y="563.0" type="line"/>
      <point x="541.0" y="621.0" type="line"/>
      <point x="52.0" y="621.0" type="line"/>
      <point x="52.0" y="487.0" type="line"/>
      <point x="408.0" y="486.0" type="line"/>
      <point x="342.0" y="325.0"/>
      <point x="233.0" y="69.0"/>
    </contour>
  </outline>
</glyph>
<glyph name="seven.sc" format="2">
  <advance width="628.0"/>
  <outline>
    <contour>
      <point x="138.0" y="0.0" type="curve"/>
      <point x="313.0" y="0.0" type="line"/>
      <point x="578.0" y="688.0" type="line"/>
      <point x="541.0" y="746.0" type="line"/>
      <point x="52.0" y="746.0" type="line"/>
      <point x="52.0" y="612.0" type="line"/>
      <point x="408.0" y="611.0" type="line"/>
      <point x="342.0" y="450.0"/>
      <point x="242.0" y="216.0"/>
    </contour>
  </outline>
</glyph>
<glyph name="seven.tosf" format="2">
  <advance width="677.0"/>
  <outline>
    <contour>
      <point x="152.0" y="-147.0" type="curve"/>
      <point x="308.0" y="-192.0" type="line"/>
      <point x="620.0" y="564.0" type="line"/>
      <point x="584.0" y="622.0" type="line"/>
      <point x="65.0" y="622.0" type="line"/>
      <point x="65.0" y="488.0" type="line"/>
      <point x="451.0" y="487.0" type="line"/>
      <point x="377.0" y="329.0"/>
      <point x="266.0" y="75.0"/>
    </contour>
  </outline>
</glyph>
<glyph name="six.tosf" format="2">
  <advance width="677.0"/>
  <outline>
    <contour>
      <point x="59.0" y="286.0" type="curve" smooth="yes"/>
      <point x="59.0" y="126.0"/>
      <point x="161.0" y="-8.0"/>
      <point x="330.0" y="-8.0" type="curve" smooth="yes"/>
      <point x="526.0" y="-8.0"/>
      <point x="616.0" y="123.0"/>
      <point x="616.0" y="271.0" type="curve" smooth="yes"/>
      <point x="616.0" y="393.0"/>
      <point x="541.0" y="498.0"/>
      <point x="409.0" y="498.0" type="curve" smooth="yes"/>
      <point x="337.0" y="498.0"/>
      <point x="286.0" y="471.0"/>
      <point x="268.0" y="452.0" type="curve"/>
      <point x="298.0" y="363.0" type="line"/>
      <point x="313.0" y="371.0"/>
      <point x="336.0" y="381.0"/>
      <point x="372.0" y="381.0" type="curve" smooth="yes"/>
      <point x="421.0" y="381.0"/>
      <point x="463.0" y="346.0"/>
      <point x="463.0" y="236.0" type="curve" smooth="yes"/>
      <point x="463.0" y="154.0"/>
      <point x="425.0" y="99.0"/>
      <point x="344.0" y="99.0" type="curve" smooth="yes"/>
      <point x="250.0" y="99.0"/>
      <point x="219.0" y="200.0"/>
      <point x="221.0" y="331.0" type="curve" smooth="yes"/>
      <point x="223.0" y="472.0"/>
      <point x="333.0" y="653.0"/>
      <point x="516.0" y="701.0" type="curve"/>
      <point x="479.0" y="792.0" type="line"/>
      <point x="306.0" y="765.0"/>
      <point x="59.0" y="577.0"/>
    </contour>
  </outline>
</glyph>
<glyph name="thorn.sc" format="2">
  <advance width="645.0"/>
  <anchor x="323.0" y="0.0" name="bottom"/>
  <anchor x="323.0" y="646.0" name="top"/>
  <outline>
    <contour>
      <point x="245.0" y="646.0" type="line"/>
      <point x="88.0" y="646.0" type="line"/>
      <point x="88.0" y="0.0" type="line"/>
      <point x="245.0" y="0.0" type="line"/>
    </contour>
    <contour>
      <point x="239.0" y="106.0" type="line"/>
      <point x="257.0" y="104.0"/>
      <point x="293.0" y="101.0"/>
      <point x="340.0" y="101.0" type="curve" smooth="yes"/>
      <point x="514.0" y="101.0"/>
      <point x="609.0" y="193.0"/>
      <point x="609.0" y="342.0" type="curve" smooth="yes"/>
      <point x="609.0" y="480.0"/>
      <point x="512.0" y="551.0"/>
      <point x="359.0" y="551.0" type="curve" smooth="yes"/>
      <point x="310.0" y="551.0"/>
      <point x="262.0" y="546.0"/>
      <point x="223.0" y="545.0" type="curve"/>
      <point x="238.0" y="428.0" type="line"/>
      <point x="261.0" y="433.0"/>
      <point x="295.0" y="436.0"/>
      <point x="315.0" y="436.0" type="curve" smooth="yes"/>
      <point x="402.0" y="438.0"/>
      <point x="454.0" y="401.0"/>
      <point x="454.0" y="337.0" type="curve" smooth="yes"/>
      <point x="454.0" y="238.0"/>
      <point x="389.0" y="214.0"/>
      <point x="315.0" y="214.0" type="curve" smooth="yes"/>
      <point x="293.0" y="214.0"/>
      <point x="266.0" y="214.0"/>
      <point x="239.0" y="218.0" type="curve"/>
    </contour>
  </outline>
</glyph>
<glyph name="three.dnom" format="2">
  <advance width="457.0"/>
  <outline>
    <contour>
      <point x="51.0" y="10.0" type="line"/>
      <point x="83.0" y="1.0"/>
      <point x="129.0" y="-8.0"/>
      <point x="168.0" y="-8.0" type="curve" smooth="yes"/>
      <point x="333.0" y="-8.0"/>
      <point x="429.0" y="69.0"/>
      <point x="429.0" y="156.0" type="curve" smooth="yes"/>
      <point x="429.0" y="226.0"/>
      <point x="380.0" y="283.0"/>
      <point x="279.0" y="289.0" type="curve"/>
      <point x="279.0" y="275.0" type="line"/>
      <point x="350.0" y="307.0"/>
      <point x="398.0" y="354.0"/>
      <point x="398.0" y="428.0" type="curve" smooth="yes"/>
      <point x="398.0" y="513.0"/>
      <point x="323.0" y="557.0"/>
      <point x="213.0" y="557.0" type="curve" smooth="yes"/>
      <point x="135.0" y="557.0"/>
      <point x="52.0" y="523.0"/>
      <point x="28.0" y="502.0" type="curve"/>
      <point x="69.0" y="419.0" type="line"/>
      <point x="97.0" y="438.0"/>
      <point x="135.0" y="457.0"/>
      <point x="184.0" y="457.0" type="curve" smooth="yes"/>
      <point x="230.0" y="457.0"/>
      <point x="265.0" y="435.0"/>
      <point x="262.0" y="399.0" type="curve" smooth="yes"/>
      <point x="260.0" y="371.0"/>
      <point x="243.0" y="347.0"/>
      <point x="195.0" y="329.0" type="curve" smooth="yes"/>
      <point x="174.0" y="321.0"/>
      <point x="149.0" y="311.0"/>
      <point x="117.0" y="307.0" type="curve"/>
      <point x="137.0" y="223.0" type="line"/>
      <point x="182.0" y="233.0" type="line"/>
      <point x="261.0" y="237.0"/>
      <point x="287.0" y="200.0"/>
      <point x="287.0" y="175.0" type="curve" smooth="yes"/>
      <point x="287.0" y="120.0"/>
      <point x="227.0" y="86.0"/>
      <point x="140.0" y="86.0" type="curve" smooth="yes"/>
      <point x="113.0" y="86.0"/>
      <point x="78.0" y="92.0"/>
      <point x="50.0" y="98.0" type="curve"/>
    </contour>
  </outline>
</glyph>
<glyph name="three.tosf" format="2">
  <advance width="677.0"/>
  <outline>
    <contour>
      <point x="86.0" y="-141.0" type="line"/>
      <point x="120.0" y="-148.0"/>
      <point x="163.0" y="-164.0"/>
      <point x="225.0" y="-164.0" type="curve" smooth="yes"/>
      <point x="462.0" y="-164.0"/>
      <point x="614.0" y="-57.0"/>
      <point x="614.0" y="83.0" type="curve" smooth="yes"/>
      <point x="614.0" y="164.0"/>
      <point x="538.0" y="263.0"/>
      <point x="375.0" y="260.0" type="curve"/>
      <point x="375.0" y="247.0" type="line"/>
      <point x="474.0" y="276.0"/>
      <point x="567.0" y="343.0"/>
      <point x="567.0" y="449.0" type="curve" smooth="yes"/>
      <point x="567.0" y="555.0"/>
      <point x="464.0" y="626.0"/>
      <point x="304.0" y="626.0" type="curve" smooth="yes"/>
      <point x="199.0" y="626.0"/>
      <point x="96.0" y="582.0"/>
      <point x="59.0" y="552.0" type="curve"/>
      <point x="110.0" y="457.0" type="line"/>
      <point x="150.0" y="480.0"/>
      <point x="205.0" y="506.0"/>
      <point x="287.0" y="506.0" type="curve" smooth="yes"/>
      <point x="358.0" y="506.0"/>
      <point x="413.0" y="484.0"/>
      <point x="413.0" y="428.0" type="curve" smooth="yes"/>
      <point x="413.0" y="381.0"/>
      <point x="369.0" y="347.0"/>
      <point x="302.0" y="319.0" type="curve" smooth="yes"/>
      <point x="271.0" y="306.0"/>
      <point x="224.0" y="290.0"/>
      <point x="180.0" y="280.0" type="curve"/>
      <point x="205.0" y="184.0" type="line"/>
      <point x="271.0" y="201.0" type="line"/>
      <point x="405.0" y="205.0"/>
      <point x="454.0" y="149.0"/>
      <point x="454.0" y="82.0" type="curve" smooth="yes"/>
      <point x="454.0" y="-7.0"/>
      <point x="342.0" y="-53.0"/>
      <point x="186.0" y="-53.0" type="curve" smooth="yes"/>
      <point x="152.0" y="-53.0"/>
      <point x="119.0" y="-48.0"/>
      <point x="85.0" y="-42.0" type="curve"/>
    </contour>
  </outline>
</glyph>
<glyph name="tilde.case" format="2">
  <advance width="458.0"/>
  <anchor x="228.0" y="831.0" name="_top"/>
  <outline>
    <contour>
      <point x="77.0" y="798.0" type="line"/>
      <point x="95.0" y="820.0"/>
      <point x="124.0" y="848.0"/>
      <point x="152.0" y="848.0" type="curve" smooth="yes"/>
      <point x="208.0" y="848.0"/>
      <point x="219.0" y="783.0"/>
      <point x="298.0" y="783.0" type="curve" smooth="yes"/>
      <point x="373.0" y="783.0"/>
      <point x="421.0" y="830.0"/>
      <point x="443.0" y="894.0" type="curve"/>
      <point x="382.0" y="947.0" type="line"/>
      <point x="364.0" y="922.0"/>
      <point x="339.0" y="893.0"/>
      <point x="306.0" y="893.0" type="curve" smooth="yes"/>
      <point x="256.0" y="893.0"/>
      <point x="242.0" y="956.0"/>
      <point x="163.0" y="956.0" type="curve" smooth="yes"/>
      <point x="88.0" y="956.0"/>
      <point x="37.0" y="907.0"/>
      <point x="16.0" y="846.0" type="curve"/>
    </contour>
  </outline>
</glyph>
<glyph name="tildecomb.case" format="2">
  <anchor x="0.0" y="830.0" name="_top"/>
  <anchor x="0.0" y="1047.0" name="top"/>
  <outline>
    <contour>
      <point x="72.0" y="830.0" type="curve" smooth="yes"/>
      <point x="151.0" y="830.0"/>
      <point x="191.0" y="904.0"/>
      <point x="199.0" y="965.0" type="curve"/>
      <point x="126.0" y="989.0" type="line"/>
      <point x="121.0" y="958.0"/>
      <point x="103.0" y="935.0"/>
      <point x="71.0" y="935.0" type="curve" smooth="yes"/>
      <point x="12.0" y="935.0"/>
      <point x="-12.0" y="1004.0"/>
      <point x="-86.0" y="1004.0" type="curve" smooth="yes"/>
      <point x="-162.0" y="1004.0"/>
      <point x="-202.0" y="930.0"/>
      <point x="-210.0" y="868.0" type="curve"/>
      <point x="-138.0" y="848.0" type="line"/>
      <point x="-132.0" y="876.0"/>
      <point x="-115.0" y="898.0"/>
      <point x="-82.0" y="898.0" type="curve" smooth="yes"/>
      <point x="-23.0" y="898.0"/>
      <point x="1.0" y="830.0"/>
    </contour>
  </outline>
</glyph>
<glyph name="two.dnom" format="2">
  <advance width="496.0"/>
  <outline>
    <contour>
      <point x="57.0" y="0.0" type="line"/>
      <point x="446.0" y="0.0" type="line"/>
      <point x="446.0" y="103.0" type="line"/>
      <point x="205.0" y="86.0" type="line"/>
      <point x="333.0" y="167.0"/>
      <point x="425.0" y="270.0"/>
      <point x="425.0" y="382.0" type="curve" smooth="yes"/>
      <point x="425.0" y="473.0"/>
      <point x="373.0" y="555.0"/>
      <point x="237.0" y="555.0" type="curve" smooth="yes"/>
      <point x="129.0" y="555.0"/>
      <point x="73.0" y="512.0"/>
      <point x="43.0" y="482.0" type="curve"/>
      <point x="84.0" y="415.0" type="line"/>
      <point x="111.0" y="440.0"/>
      <point x="162.0" y="451.0"/>
      <point x="212.0" y="451.0" type="curve" smooth="yes"/>
      <point x="257.0" y="451.0"/>
      <point x="288.0" y="420.0"/>
      <point x="288.0" y="362.0" type="curve" smooth="yes"/>
      <point x="288.0" y="236.0"/>
      <point x="145.0" y="115.0"/>
      <point x="40.0" y="56.0" type="curve"/>
    </contour>
  </outline>
</glyph>
<glyph name="two.osf" format="2">
  <advance width="665.0"/>
  <outline>
    <contour>
      <point x="91.0" y="0.0" type="line"/>
      <point x="590.0" y="0.0" type="line"/>
      <point x="590.0" y="129.0" type="line"/>
      <point x="229.0" y="115.0" type="line"/>
      <point x="229.0" y="68.0" type="line"/>
      <point x="426.0" y="169.0"/>
      <point x="556.0" y="292.0"/>
      <point x="556.0" y="437.0" type="curve" smooth="yes"/>
      <point x="556.0" y="536.0"/>
      <point x="494.0" y="631.0"/>
      <point x="317.0" y="631.0" type="curve" smooth="yes"/>
      <point x="200.0" y="631.0"/>
      <point x="113.0" y="575.0"/>
      <point x="74.0" y="534.0" type="curve"/>
      <point x="131.0" y="444.0" type="line"/>
      <point x="165.0" y="478.0"/>
      <point x="229.0" y="510.0"/>
      <point x="292.0" y="510.0" type="curve" smooth="yes"/>
      <point x="364.0" y="510.0"/>
      <point x="396.0" y="466.0"/>
      <point x="396.0" y="409.0" type="curve" smooth="yes"/>
      <point x="396.0" y="280.0"/>
      <point x="194.0" y="145.0"/>
      <point x="70.0" y="76.0" type="curve"/>
    </contour>
  </outline>
</glyph>
<glyph name="two.tosf" format="2">
  <advance width="677.0"/>
  <outline>
    <contour>
      <point x="94.0" y="0.0" type="line"/>
      <point x="600.0" y="0.0" type="line"/>
      <point x="600.0" y="129.0" type="line"/>
      <point x="231.0" y="115.0" type="line"/>
      <point x="231.0" y="68.0" type="line"/>
      <point x="432.0" y="169.0"/>
      <point x="570.0" y="351.0"/>
      <point x="570.0" y="497.0" type="curve" smooth="yes"/>
      <point x="570.0" y="595.0"/>
      <point x="507.0" y="691.0"/>
      <point x="328.0" y="691.0" type="curve" smooth="yes"/>
      <point x="209.0" y="691.0"/>
      <point x="121.0" y="635.0"/>
      <point x="81.0" y="594.0" type="curve"/>
      <point x="139.0" y="504.0" type="line"/>
      <point x="171.0" y="536.0"/>
      <point x="237.0" y="570.0"/>
      <point x="303.0" y="570.0" type="curve" smooth="yes"/>
      <point x="376.0" y="570.0"/>
      <point x="410.0" y="526.0"/>
      <point x="410.0" y="469.0" type="curve" smooth="yes"/>
      <point x="410.0" y="340.0"/>
      <point x="202.0" y="145.0"/>
      <point x="73.0" y="76.0" type="curve"/>
    </contour>
  </outline>
</glyph>
<glyph name="w.sc" format="2">
  <advance width="932.0"/>
  <anchor x="466.0" y="0.0" name="bottom"/>
  <anchor x="458.0" y="-72.0" name="btm"/>
  <anchor x="458.0" y="722.0" name="top"/>
  <outline>
    <contour>
      <point x="193.0" y="-5.0" type="line"/>
      <point x="343.0" y="-5.0" type="line"/>
      <point x="442.0" y="336.0" type="line"/>
      <point x="484.0" y="616.0" type="line"/>
      <point x="441.0" y="616.0" type="line"/>
      <point x="486.0" y="336.0" type="line"/>
      <point x="584.0" y="-5.0" type="line"/>
      <point x="743.0" y="-5.0" type="line"/>
      <point x="930.0" y="646.0" type="line"/>
      <point x="775.0" y="646.0" type="line"/>
      <point x="696.0" y="283.0" type="line"/>
      <point x="663.0" y="71.0" type="line"/>
      <point x="684.0" y="71.0" type="line"/>
      <point x="644.0" y="283.0" type="line"/>
      <point x="538.0" y="646.0" type="line"/>
      <point x="397.0" y="646.0" type="line"/>
      <point x="296.0" y="283.0" type="line"/>
      <point x="259.0" y="72.0" type="line"/>
      <point x="277.0" y="72.0" type="line"/>
      <point x="244.0" y="283.0" type="line"/>
      <point x="159.0" y="646.0" type="line"/>
      <point x="2.0" y="646.0" type="line"/>
    </contour>
  </outline>
</glyph>
<glyph name="x.sc" format="2">
  <advance width="652.0"/>
  <anchor x="326.0" y="0.0" name="bottom"/>
  <anchor x="319.0" y="-72.0" name="btm"/>
  <anchor x="319.0" y="722.0" name="top"/>
  <outline>
    <contour>
      <point x="15.0" y="0.0" type="line"/>
      <point x="179.0" y="0.0" type="line"/>
      <point x="286.0" y="168.0" type="line"/>
      <point x="335.0" y="257.0" type="line"/>
      <point x="303.0" y="256.0" type="line"/>
      <point x="353.0" y="168.0" type="line"/>
      <point x="463.0" y="0.0" type="line"/>
      <point x="637.0" y="0.0" type="line"/>
      <point x="405.0" y="340.0" type="line"/>
      <point x="409.0" y="299.0" type="line"/>
      <point x="631.0" y="646.0" type="line"/>
      <point x="466.0" y="646.0" type="line"/>
      <point x="366.0" y="483.0" type="line"/>
      <point x="321.0" y="407.0" type="line"/>
      <point x="346.0" y="407.0" type="line"/>
      <point x="298.0" y="483.0" type="line"/>
      <point x="192.0" y="647.0" type="line"/>
      <point x="20.0" y="646.0" type="line"/>
      <point x="244.0" y="310.0" type="line"/>
      <point x="242.0" y="355.0" type="line"/>
    </contour>
  </outline>
</glyph>
